%TF.GenerationSoftware,KiCad,Pcbnew,(5.1.9-0-10_14)*%
%TF.CreationDate,2024-01-22T23:17:15+01:00*%
%TF.ProjectId,berker-sensor,6265726b-6572-42d7-9365-6e736f722e6b,rev?*%
%TF.SameCoordinates,Original*%
%TF.FileFunction,Copper,L1,Top*%
%TF.FilePolarity,Positive*%
%FSLAX46Y46*%
G04 Gerber Fmt 4.6, Leading zero omitted, Abs format (unit mm)*
G04 Created by KiCad (PCBNEW (5.1.9-0-10_14)) date 2024-01-22 23:17:15*
%MOMM*%
%LPD*%
G01*
G04 APERTURE LIST*
%TA.AperFunction,ComponentPad*%
%ADD10C,1.200000*%
%TD*%
%TA.AperFunction,ComponentPad*%
%ADD11O,1.700000X1.700000*%
%TD*%
%TA.AperFunction,ComponentPad*%
%ADD12R,1.700000X1.700000*%
%TD*%
%TA.AperFunction,ComponentPad*%
%ADD13C,2.200000*%
%TD*%
%TA.AperFunction,ComponentPad*%
%ADD14R,2.200000X2.200000*%
%TD*%
%TA.AperFunction,Conductor*%
%ADD15C,0.254000*%
%TD*%
%TA.AperFunction,Conductor*%
%ADD16C,0.100000*%
%TD*%
G04 APERTURE END LIST*
D10*
%TO.P,U1,8*%
%TO.N,Net-(J4-Pad8)*%
X11430000Y-10160000D03*
%TO.P,U1,9*%
%TO.N,Net-(J3-Pad8)*%
X-11430000Y-10160000D03*
%TO.P,U1,7*%
%TO.N,Net-(J4-Pad7)*%
X11430000Y-7620000D03*
%TO.P,U1,10*%
%TO.N,Net-(J3-Pad7)*%
X-11430000Y-7620000D03*
%TO.P,U1,6*%
%TO.N,Net-(J4-Pad6)*%
X11430000Y-5080000D03*
%TO.P,U1,11*%
%TO.N,Net-(J3-Pad6)*%
X-11430000Y-5080000D03*
%TO.P,U1,5*%
%TO.N,Net-(J4-Pad5)*%
X11430000Y-2540000D03*
%TO.P,U1,12*%
%TO.N,Net-(J3-Pad5)*%
X-11430000Y-2540000D03*
%TO.P,U1,4*%
%TO.N,Net-(J4-Pad4)*%
X11430000Y0D03*
%TO.P,U1,13*%
%TO.N,Net-(J3-Pad4)*%
X-11430000Y0D03*
%TO.P,U1,3*%
%TO.N,Net-(J4-Pad3)*%
X11430000Y2540000D03*
%TO.P,U1,14*%
%TO.N,Net-(J3-Pad3)*%
X-11430000Y2540000D03*
%TO.P,U1,2*%
%TO.N,GND*%
X11430000Y5080000D03*
%TO.P,U1,15*%
%TO.N,Net-(J3-Pad2)*%
X-11430000Y5080000D03*
%TO.P,U1,1*%
%TO.N,Net-(J4-Pad1)*%
X11430000Y7620000D03*
%TO.P,U1,16*%
%TO.N,+3V3*%
X-11430000Y7620000D03*
%TD*%
D11*
%TO.P,J1,2*%
%TO.N,GND*%
X1280000Y18400000D03*
D12*
%TO.P,J1,1*%
%TO.N,+3V3*%
X-1260000Y18400000D03*
%TD*%
D13*
%TO.P,J4,8*%
%TO.N,Net-(J4-Pad8)*%
X6600000Y-10180000D03*
%TO.P,J4,7*%
%TO.N,Net-(J4-Pad7)*%
X6600000Y-7640000D03*
%TO.P,J4,6*%
%TO.N,Net-(J4-Pad6)*%
X6600000Y-5100000D03*
%TO.P,J4,5*%
%TO.N,Net-(J4-Pad5)*%
X6600000Y-2560000D03*
%TO.P,J4,4*%
%TO.N,Net-(J4-Pad4)*%
X6600000Y-20000D03*
%TO.P,J4,3*%
%TO.N,Net-(J4-Pad3)*%
X6600000Y2520000D03*
%TO.P,J4,2*%
%TO.N,GND*%
X6600000Y5060000D03*
D14*
%TO.P,J4,1*%
%TO.N,Net-(J4-Pad1)*%
X6600000Y7600000D03*
%TD*%
D13*
%TO.P,J3,8*%
%TO.N,Net-(J3-Pad8)*%
X-6600000Y-10180000D03*
%TO.P,J3,7*%
%TO.N,Net-(J3-Pad7)*%
X-6600000Y-7640000D03*
%TO.P,J3,6*%
%TO.N,Net-(J3-Pad6)*%
X-6600000Y-5100000D03*
%TO.P,J3,5*%
%TO.N,Net-(J3-Pad5)*%
X-6600000Y-2560000D03*
%TO.P,J3,4*%
%TO.N,Net-(J3-Pad4)*%
X-6600000Y-20000D03*
%TO.P,J3,3*%
%TO.N,Net-(J3-Pad3)*%
X-6600000Y2520000D03*
%TO.P,J3,2*%
%TO.N,Net-(J3-Pad2)*%
X-6600000Y5060000D03*
D14*
%TO.P,J3,1*%
%TO.N,+3V3*%
X-6600000Y7600000D03*
%TD*%
D15*
%TO.N,GND*%
X2270244Y19748979D02*
X4004438Y19478241D01*
X5707919Y19055294D01*
X7367353Y18483449D01*
X8969754Y17767180D01*
X10502581Y16912094D01*
X11953837Y15924882D01*
X13312164Y14813272D01*
X14566931Y13585962D01*
X15708318Y12252559D01*
X16727393Y10823497D01*
X17616179Y9309962D01*
X18367721Y7723799D01*
X18976137Y6077421D01*
X19436664Y4383714D01*
X19745700Y2655933D01*
X19900825Y907600D01*
X19900825Y-847600D01*
X19745700Y-2595933D01*
X19436664Y-4323714D01*
X18976137Y-6017421D01*
X18367721Y-7663799D01*
X17616179Y-9249962D01*
X16727393Y-10763497D01*
X15708318Y-12192559D01*
X14566931Y-13525962D01*
X13312164Y-14753272D01*
X11953837Y-15864882D01*
X10502581Y-16852094D01*
X8969754Y-17707180D01*
X7367353Y-18423449D01*
X5707919Y-18995294D01*
X4004438Y-19418241D01*
X2270244Y-19688979D01*
X518908Y-19805389D01*
X-1235864Y-19766560D01*
X-2980336Y-19572796D01*
X-4700858Y-19225614D01*
X-6383963Y-18727731D01*
X-8016478Y-18083043D01*
X-9585628Y-17296596D01*
X-11079131Y-16374544D01*
X-12485299Y-15324105D01*
X-13793126Y-14153499D01*
X-14992377Y-12871889D01*
X-16073666Y-11489303D01*
X-17014397Y-10038363D01*
X-12665000Y-10038363D01*
X-12665000Y-10281637D01*
X-12617540Y-10520236D01*
X-12524443Y-10744992D01*
X-12389287Y-10947267D01*
X-12217267Y-11119287D01*
X-12014992Y-11254443D01*
X-11790236Y-11347540D01*
X-11551637Y-11395000D01*
X-11308363Y-11395000D01*
X-11069764Y-11347540D01*
X-10845008Y-11254443D01*
X-10642733Y-11119287D01*
X-10470713Y-10947267D01*
X-10335557Y-10744992D01*
X-10242460Y-10520236D01*
X-10195000Y-10281637D01*
X-10195000Y-10038363D01*
X-10242460Y-9799764D01*
X-10335557Y-9575008D01*
X-10470713Y-9372733D01*
X-10642733Y-9200713D01*
X-10845008Y-9065557D01*
X-11069764Y-8972460D01*
X-11308363Y-8925000D01*
X-11551637Y-8925000D01*
X-11790236Y-8972460D01*
X-12014992Y-9065557D01*
X-12217267Y-9200713D01*
X-12389287Y-9372733D01*
X-12524443Y-9575008D01*
X-12617540Y-9799764D01*
X-12665000Y-10038363D01*
X-17014397Y-10038363D01*
X-17028532Y-10016563D01*
X-17849499Y-8465195D01*
X-18256253Y-7498363D01*
X-12665000Y-7498363D01*
X-12665000Y-7741637D01*
X-12617540Y-7980236D01*
X-12524443Y-8204992D01*
X-12389287Y-8407267D01*
X-12217267Y-8579287D01*
X-12014992Y-8714443D01*
X-11790236Y-8807540D01*
X-11551637Y-8855000D01*
X-11308363Y-8855000D01*
X-11069764Y-8807540D01*
X-10845008Y-8714443D01*
X-10642733Y-8579287D01*
X-10470713Y-8407267D01*
X-10335557Y-8204992D01*
X-10242460Y-7980236D01*
X-10195000Y-7741637D01*
X-10195000Y-7498363D01*
X-10242460Y-7259764D01*
X-10335557Y-7035008D01*
X-10470713Y-6832733D01*
X-10642733Y-6660713D01*
X-10845008Y-6525557D01*
X-11069764Y-6432460D01*
X-11308363Y-6385000D01*
X-11551637Y-6385000D01*
X-11790236Y-6432460D01*
X-12014992Y-6525557D01*
X-12217267Y-6660713D01*
X-12389287Y-6832733D01*
X-12524443Y-7035008D01*
X-12617540Y-7259764D01*
X-12665000Y-7498363D01*
X-18256253Y-7498363D01*
X-18530144Y-6847341D01*
X-19065139Y-5175662D01*
X-19114014Y-4958363D01*
X-12665000Y-4958363D01*
X-12665000Y-5201637D01*
X-12617540Y-5440236D01*
X-12524443Y-5664992D01*
X-12389287Y-5867267D01*
X-12217267Y-6039287D01*
X-12014992Y-6174443D01*
X-11790236Y-6267540D01*
X-11551637Y-6315000D01*
X-11308363Y-6315000D01*
X-11069764Y-6267540D01*
X-10845008Y-6174443D01*
X-10642733Y-6039287D01*
X-10470713Y-5867267D01*
X-10335557Y-5664992D01*
X-10242460Y-5440236D01*
X-10195000Y-5201637D01*
X-10195000Y-4958363D01*
X-10242460Y-4719764D01*
X-10335557Y-4495008D01*
X-10470713Y-4292733D01*
X-10642733Y-4120713D01*
X-10845008Y-3985557D01*
X-11069764Y-3892460D01*
X-11308363Y-3845000D01*
X-11551637Y-3845000D01*
X-11790236Y-3892460D01*
X-12014992Y-3985557D01*
X-12217267Y-4120713D01*
X-12389287Y-4292733D01*
X-12524443Y-4495008D01*
X-12617540Y-4719764D01*
X-12665000Y-4958363D01*
X-19114014Y-4958363D01*
X-19450298Y-3463242D01*
X-19589819Y-2418363D01*
X-12665000Y-2418363D01*
X-12665000Y-2661637D01*
X-12617540Y-2900236D01*
X-12524443Y-3124992D01*
X-12389287Y-3327267D01*
X-12217267Y-3499287D01*
X-12014992Y-3634443D01*
X-11790236Y-3727540D01*
X-11551637Y-3775000D01*
X-11308363Y-3775000D01*
X-11069764Y-3727540D01*
X-10845008Y-3634443D01*
X-10642733Y-3499287D01*
X-10470713Y-3327267D01*
X-10335557Y-3124992D01*
X-10242460Y-2900236D01*
X-10195000Y-2661637D01*
X-10195000Y-2418363D01*
X-10242460Y-2179764D01*
X-10335557Y-1955008D01*
X-10470713Y-1752733D01*
X-10642733Y-1580713D01*
X-10845008Y-1445557D01*
X-11069764Y-1352460D01*
X-11308363Y-1305000D01*
X-11551637Y-1305000D01*
X-11790236Y-1352460D01*
X-12014992Y-1445557D01*
X-12217267Y-1580713D01*
X-12389287Y-1752733D01*
X-12524443Y-1955008D01*
X-12617540Y-2179764D01*
X-12665000Y-2418363D01*
X-19589819Y-2418363D01*
X-19682606Y-1723483D01*
X-19760244Y30000D01*
X-19751244Y233281D01*
X-19368540Y233281D01*
X-19368540Y-233281D01*
X-19277518Y-690878D01*
X-19098973Y-1121924D01*
X-18839765Y-1509856D01*
X-18509856Y-1839765D01*
X-18121924Y-2098973D01*
X-17690878Y-2277518D01*
X-17233281Y-2368540D01*
X-16766719Y-2368540D01*
X-16309122Y-2277518D01*
X-15878076Y-2098973D01*
X-15490144Y-1839765D01*
X-15160235Y-1509856D01*
X-14901027Y-1121924D01*
X-14722482Y-690878D01*
X-14631460Y-233281D01*
X-14631460Y121637D01*
X-12665000Y121637D01*
X-12665000Y-121637D01*
X-12617540Y-360236D01*
X-12524443Y-584992D01*
X-12389287Y-787267D01*
X-12217267Y-959287D01*
X-12014992Y-1094443D01*
X-11790236Y-1187540D01*
X-11551637Y-1235000D01*
X-11308363Y-1235000D01*
X-11069764Y-1187540D01*
X-10845008Y-1094443D01*
X-10642733Y-959287D01*
X-10470713Y-787267D01*
X-10335557Y-584992D01*
X-10242460Y-360236D01*
X-10195000Y-121637D01*
X-10195000Y121637D01*
X-10242460Y360236D01*
X-10335557Y584992D01*
X-10470713Y787267D01*
X-10642733Y959287D01*
X-10845008Y1094443D01*
X-11069764Y1187540D01*
X-11308363Y1235000D01*
X-11551637Y1235000D01*
X-11790236Y1187540D01*
X-12014992Y1094443D01*
X-12217267Y959287D01*
X-12389287Y787267D01*
X-12524443Y584992D01*
X-12617540Y360236D01*
X-12665000Y121637D01*
X-14631460Y121637D01*
X-14631460Y233281D01*
X-14722482Y690878D01*
X-14901027Y1121924D01*
X-15160235Y1509856D01*
X-15490144Y1839765D01*
X-15878076Y2098973D01*
X-16309122Y2277518D01*
X-16766719Y2368540D01*
X-17233281Y2368540D01*
X-17690878Y2277518D01*
X-18121924Y2098973D01*
X-18509856Y1839765D01*
X-18839765Y1509856D01*
X-19098973Y1121924D01*
X-19277518Y690878D01*
X-19368540Y233281D01*
X-19751244Y233281D01*
X-19682606Y1783483D01*
X-19565348Y2661637D01*
X-12665000Y2661637D01*
X-12665000Y2418363D01*
X-12617540Y2179764D01*
X-12524443Y1955008D01*
X-12389287Y1752733D01*
X-12217267Y1580713D01*
X-12014992Y1445557D01*
X-11790236Y1352460D01*
X-11551637Y1305000D01*
X-11308363Y1305000D01*
X-11069764Y1352460D01*
X-10845008Y1445557D01*
X-10642733Y1580713D01*
X-10470713Y1752733D01*
X-10335557Y1955008D01*
X-10242460Y2179764D01*
X-10195000Y2418363D01*
X-10195000Y2661637D01*
X-10242460Y2900236D01*
X-10335557Y3124992D01*
X-10470713Y3327267D01*
X-10642733Y3499287D01*
X-10845008Y3634443D01*
X-11069764Y3727540D01*
X-11308363Y3775000D01*
X-11551637Y3775000D01*
X-11790236Y3727540D01*
X-12014992Y3634443D01*
X-12217267Y3499287D01*
X-12389287Y3327267D01*
X-12524443Y3124992D01*
X-12617540Y2900236D01*
X-12665000Y2661637D01*
X-19565348Y2661637D01*
X-19450298Y3523242D01*
X-19072792Y5201637D01*
X-12665000Y5201637D01*
X-12665000Y4958363D01*
X-12617540Y4719764D01*
X-12524443Y4495008D01*
X-12389287Y4292733D01*
X-12217267Y4120713D01*
X-12014992Y3985557D01*
X-11790236Y3892460D01*
X-11551637Y3845000D01*
X-11308363Y3845000D01*
X-11069764Y3892460D01*
X-10845008Y3985557D01*
X-10642733Y4120713D01*
X-10470713Y4292733D01*
X-10335557Y4495008D01*
X-10242460Y4719764D01*
X-10195000Y4958363D01*
X-10195000Y5201637D01*
X-10242460Y5440236D01*
X-10335557Y5664992D01*
X-10470713Y5867267D01*
X-10642733Y6039287D01*
X-10845008Y6174443D01*
X-11069764Y6267540D01*
X-11308363Y6315000D01*
X-11551637Y6315000D01*
X-11790236Y6267540D01*
X-12014992Y6174443D01*
X-12217267Y6039287D01*
X-12389287Y5867267D01*
X-12524443Y5664992D01*
X-12617540Y5440236D01*
X-12665000Y5201637D01*
X-19072792Y5201637D01*
X-19065139Y5235662D01*
X-18530144Y6907341D01*
X-18179149Y7741637D01*
X-12665000Y7741637D01*
X-12665000Y7498363D01*
X-12617540Y7259764D01*
X-12524443Y7035008D01*
X-12389287Y6832733D01*
X-12217267Y6660713D01*
X-12014992Y6525557D01*
X-11790236Y6432460D01*
X-11551637Y6385000D01*
X-11308363Y6385000D01*
X-11069764Y6432460D01*
X-10845008Y6525557D01*
X-10642733Y6660713D01*
X-10470713Y6832733D01*
X-10335557Y7035008D01*
X-10242460Y7259764D01*
X-10195000Y7498363D01*
X-10195000Y7741637D01*
X-10242460Y7980236D01*
X-10335557Y8204992D01*
X-10470713Y8407267D01*
X-10642733Y8579287D01*
X-10823392Y8700000D01*
X-8338072Y8700000D01*
X-8338072Y6500000D01*
X-8325812Y6375518D01*
X-8289502Y6255820D01*
X-8230537Y6145506D01*
X-8151185Y6048815D01*
X-8070310Y5982443D01*
X-8137537Y5881831D01*
X-8268325Y5566081D01*
X-8335000Y5230883D01*
X-8335000Y4889117D01*
X-8268325Y4553919D01*
X-8137537Y4238169D01*
X-7947663Y3954002D01*
X-7783661Y3790000D01*
X-7947663Y3625998D01*
X-8137537Y3341831D01*
X-8268325Y3026081D01*
X-8335000Y2690883D01*
X-8335000Y2349117D01*
X-8268325Y2013919D01*
X-8137537Y1698169D01*
X-7947663Y1414002D01*
X-7783661Y1250000D01*
X-7947663Y1085998D01*
X-8137537Y801831D01*
X-8268325Y486081D01*
X-8335000Y150883D01*
X-8335000Y-190883D01*
X-8268325Y-526081D01*
X-8137537Y-841831D01*
X-7947663Y-1125998D01*
X-7783661Y-1290000D01*
X-7947663Y-1454002D01*
X-8137537Y-1738169D01*
X-8268325Y-2053919D01*
X-8335000Y-2389117D01*
X-8335000Y-2730883D01*
X-8268325Y-3066081D01*
X-8137537Y-3381831D01*
X-7947663Y-3665998D01*
X-7783661Y-3830000D01*
X-7947663Y-3994002D01*
X-8137537Y-4278169D01*
X-8268325Y-4593919D01*
X-8335000Y-4929117D01*
X-8335000Y-5270883D01*
X-8268325Y-5606081D01*
X-8137537Y-5921831D01*
X-7947663Y-6205998D01*
X-7783661Y-6370000D01*
X-7947663Y-6534002D01*
X-8137537Y-6818169D01*
X-8268325Y-7133919D01*
X-8335000Y-7469117D01*
X-8335000Y-7810883D01*
X-8268325Y-8146081D01*
X-8137537Y-8461831D01*
X-7947663Y-8745998D01*
X-7783661Y-8910000D01*
X-7947663Y-9074002D01*
X-8137537Y-9358169D01*
X-8268325Y-9673919D01*
X-8335000Y-10009117D01*
X-8335000Y-10350883D01*
X-8268325Y-10686081D01*
X-8137537Y-11001831D01*
X-7947663Y-11285998D01*
X-7705998Y-11527663D01*
X-7421831Y-11717537D01*
X-7106081Y-11848325D01*
X-6770883Y-11915000D01*
X-6429117Y-11915000D01*
X-6093919Y-11848325D01*
X-5778169Y-11717537D01*
X-5494002Y-11527663D01*
X-5252337Y-11285998D01*
X-5062463Y-11001831D01*
X-4931675Y-10686081D01*
X-4865000Y-10350883D01*
X-4865000Y-10009117D01*
X-4931675Y-9673919D01*
X-5062463Y-9358169D01*
X-5252337Y-9074002D01*
X-5416339Y-8910000D01*
X-5252337Y-8745998D01*
X-5062463Y-8461831D01*
X-4931675Y-8146081D01*
X-4865000Y-7810883D01*
X-4865000Y-7469117D01*
X-4931675Y-7133919D01*
X-5062463Y-6818169D01*
X-5252337Y-6534002D01*
X-5416339Y-6370000D01*
X-5252337Y-6205998D01*
X-5062463Y-5921831D01*
X-4931675Y-5606081D01*
X-4865000Y-5270883D01*
X-4865000Y-4929117D01*
X-4931675Y-4593919D01*
X-5062463Y-4278169D01*
X-5252337Y-3994002D01*
X-5416339Y-3830000D01*
X-5252337Y-3665998D01*
X-5062463Y-3381831D01*
X-4931675Y-3066081D01*
X-4865000Y-2730883D01*
X-4865000Y-2389117D01*
X-4931675Y-2053919D01*
X-5062463Y-1738169D01*
X-5252337Y-1454002D01*
X-5416339Y-1290000D01*
X-5252337Y-1125998D01*
X-5062463Y-841831D01*
X-4931675Y-526081D01*
X-4865000Y-190883D01*
X-4865000Y150883D01*
X-4931675Y486081D01*
X-5062463Y801831D01*
X-5252337Y1085998D01*
X-5416339Y1250000D01*
X-5252337Y1414002D01*
X-5062463Y1698169D01*
X-4931675Y2013919D01*
X-4865000Y2349117D01*
X-4865000Y2690883D01*
X-4931675Y3026081D01*
X-5062463Y3341831D01*
X-5252337Y3625998D01*
X-5416339Y3790000D01*
X-5252337Y3954002D01*
X-5062463Y4238169D01*
X-4931675Y4553919D01*
X-4865000Y4889117D01*
X-4865000Y5230883D01*
X-4931675Y5566081D01*
X-5062463Y5881831D01*
X-5129690Y5982443D01*
X-5048815Y6048815D01*
X-4969463Y6145506D01*
X-4910498Y6255820D01*
X-4874188Y6375518D01*
X-4861928Y6500000D01*
X-4861928Y6532418D01*
X-2660000Y6532418D01*
X-2659999Y-9032419D01*
X-2656655Y-9066372D01*
X-2656655Y-9092329D01*
X-2655692Y-9101494D01*
X-2612182Y-9489393D01*
X-2599751Y-9547873D01*
X-2588127Y-9606583D01*
X-2585401Y-9615386D01*
X-2467377Y-9987447D01*
X-2443811Y-10042430D01*
X-2421016Y-10097736D01*
X-2416633Y-10105842D01*
X-2228589Y-10447892D01*
X-2194812Y-10497221D01*
X-2161691Y-10547074D01*
X-2155816Y-10554174D01*
X-1904916Y-10853185D01*
X-1862186Y-10895029D01*
X-1820027Y-10937484D01*
X-1812886Y-10943308D01*
X-1508684Y-11187892D01*
X-1458639Y-11220640D01*
X-1409038Y-11254097D01*
X-1400901Y-11258423D01*
X-1054989Y-11439262D01*
X-999540Y-11461665D01*
X-944381Y-11484852D01*
X-935559Y-11487515D01*
X-561109Y-11597722D01*
X-502379Y-11608925D01*
X-443750Y-11620960D01*
X-434579Y-11621859D01*
X-45853Y-11657235D01*
X13964Y-11656817D01*
X73781Y-11657235D01*
X82952Y-11656335D01*
X82954Y-11656335D01*
X471145Y-11615534D01*
X529708Y-11603513D01*
X588501Y-11592298D01*
X597323Y-11589634D01*
X970198Y-11474210D01*
X1025353Y-11451025D01*
X1080806Y-11428621D01*
X1088943Y-11424294D01*
X1432298Y-11238643D01*
X1481849Y-11205220D01*
X1531946Y-11172438D01*
X1539087Y-11166613D01*
X1839841Y-10917806D01*
X1881981Y-10875371D01*
X1924730Y-10833508D01*
X1930604Y-10826408D01*
X2177305Y-10523923D01*
X2210409Y-10474096D01*
X2244204Y-10424741D01*
X2248587Y-10416635D01*
X2431837Y-10071993D01*
X2454631Y-10016689D01*
X2478198Y-9961705D01*
X2480923Y-9952902D01*
X2593741Y-9579230D01*
X2605361Y-9520542D01*
X2617797Y-9462039D01*
X2618760Y-9452874D01*
X2656850Y-9064405D01*
X2656850Y-9064402D01*
X2660000Y-9032419D01*
X2660000Y2690883D01*
X4865000Y2690883D01*
X4865000Y2349117D01*
X4931675Y2013919D01*
X5062463Y1698169D01*
X5252337Y1414002D01*
X5416339Y1250000D01*
X5252337Y1085998D01*
X5062463Y801831D01*
X4931675Y486081D01*
X4865000Y150883D01*
X4865000Y-190883D01*
X4931675Y-526081D01*
X5062463Y-841831D01*
X5252337Y-1125998D01*
X5416339Y-1290000D01*
X5252337Y-1454002D01*
X5062463Y-1738169D01*
X4931675Y-2053919D01*
X4865000Y-2389117D01*
X4865000Y-2730883D01*
X4931675Y-3066081D01*
X5062463Y-3381831D01*
X5252337Y-3665998D01*
X5416339Y-3830000D01*
X5252337Y-3994002D01*
X5062463Y-4278169D01*
X4931675Y-4593919D01*
X4865000Y-4929117D01*
X4865000Y-5270883D01*
X4931675Y-5606081D01*
X5062463Y-5921831D01*
X5252337Y-6205998D01*
X5416339Y-6370000D01*
X5252337Y-6534002D01*
X5062463Y-6818169D01*
X4931675Y-7133919D01*
X4865000Y-7469117D01*
X4865000Y-7810883D01*
X4931675Y-8146081D01*
X5062463Y-8461831D01*
X5252337Y-8745998D01*
X5416339Y-8910000D01*
X5252337Y-9074002D01*
X5062463Y-9358169D01*
X4931675Y-9673919D01*
X4865000Y-10009117D01*
X4865000Y-10350883D01*
X4931675Y-10686081D01*
X5062463Y-11001831D01*
X5252337Y-11285998D01*
X5494002Y-11527663D01*
X5778169Y-11717537D01*
X6093919Y-11848325D01*
X6429117Y-11915000D01*
X6770883Y-11915000D01*
X7106081Y-11848325D01*
X7421831Y-11717537D01*
X7705998Y-11527663D01*
X7947663Y-11285998D01*
X8137537Y-11001831D01*
X8268325Y-10686081D01*
X8335000Y-10350883D01*
X8335000Y-10038363D01*
X10195000Y-10038363D01*
X10195000Y-10281637D01*
X10242460Y-10520236D01*
X10335557Y-10744992D01*
X10470713Y-10947267D01*
X10642733Y-11119287D01*
X10845008Y-11254443D01*
X11069764Y-11347540D01*
X11308363Y-11395000D01*
X11551637Y-11395000D01*
X11790236Y-11347540D01*
X12014992Y-11254443D01*
X12217267Y-11119287D01*
X12389287Y-10947267D01*
X12524443Y-10744992D01*
X12617540Y-10520236D01*
X12665000Y-10281637D01*
X12665000Y-10038363D01*
X12617540Y-9799764D01*
X12524443Y-9575008D01*
X12389287Y-9372733D01*
X12217267Y-9200713D01*
X12014992Y-9065557D01*
X11790236Y-8972460D01*
X11551637Y-8925000D01*
X11308363Y-8925000D01*
X11069764Y-8972460D01*
X10845008Y-9065557D01*
X10642733Y-9200713D01*
X10470713Y-9372733D01*
X10335557Y-9575008D01*
X10242460Y-9799764D01*
X10195000Y-10038363D01*
X8335000Y-10038363D01*
X8335000Y-10009117D01*
X8268325Y-9673919D01*
X8137537Y-9358169D01*
X7947663Y-9074002D01*
X7783661Y-8910000D01*
X7947663Y-8745998D01*
X8137537Y-8461831D01*
X8268325Y-8146081D01*
X8335000Y-7810883D01*
X8335000Y-7498363D01*
X10195000Y-7498363D01*
X10195000Y-7741637D01*
X10242460Y-7980236D01*
X10335557Y-8204992D01*
X10470713Y-8407267D01*
X10642733Y-8579287D01*
X10845008Y-8714443D01*
X11069764Y-8807540D01*
X11308363Y-8855000D01*
X11551637Y-8855000D01*
X11790236Y-8807540D01*
X12014992Y-8714443D01*
X12217267Y-8579287D01*
X12389287Y-8407267D01*
X12524443Y-8204992D01*
X12617540Y-7980236D01*
X12665000Y-7741637D01*
X12665000Y-7498363D01*
X12617540Y-7259764D01*
X12524443Y-7035008D01*
X12389287Y-6832733D01*
X12217267Y-6660713D01*
X12014992Y-6525557D01*
X11790236Y-6432460D01*
X11551637Y-6385000D01*
X11308363Y-6385000D01*
X11069764Y-6432460D01*
X10845008Y-6525557D01*
X10642733Y-6660713D01*
X10470713Y-6832733D01*
X10335557Y-7035008D01*
X10242460Y-7259764D01*
X10195000Y-7498363D01*
X8335000Y-7498363D01*
X8335000Y-7469117D01*
X8268325Y-7133919D01*
X8137537Y-6818169D01*
X7947663Y-6534002D01*
X7783661Y-6370000D01*
X7947663Y-6205998D01*
X8137537Y-5921831D01*
X8268325Y-5606081D01*
X8335000Y-5270883D01*
X8335000Y-4958363D01*
X10195000Y-4958363D01*
X10195000Y-5201637D01*
X10242460Y-5440236D01*
X10335557Y-5664992D01*
X10470713Y-5867267D01*
X10642733Y-6039287D01*
X10845008Y-6174443D01*
X11069764Y-6267540D01*
X11308363Y-6315000D01*
X11551637Y-6315000D01*
X11790236Y-6267540D01*
X12014992Y-6174443D01*
X12217267Y-6039287D01*
X12389287Y-5867267D01*
X12524443Y-5664992D01*
X12617540Y-5440236D01*
X12665000Y-5201637D01*
X12665000Y-4958363D01*
X12617540Y-4719764D01*
X12524443Y-4495008D01*
X12389287Y-4292733D01*
X12217267Y-4120713D01*
X12014992Y-3985557D01*
X11790236Y-3892460D01*
X11551637Y-3845000D01*
X11308363Y-3845000D01*
X11069764Y-3892460D01*
X10845008Y-3985557D01*
X10642733Y-4120713D01*
X10470713Y-4292733D01*
X10335557Y-4495008D01*
X10242460Y-4719764D01*
X10195000Y-4958363D01*
X8335000Y-4958363D01*
X8335000Y-4929117D01*
X8268325Y-4593919D01*
X8137537Y-4278169D01*
X7947663Y-3994002D01*
X7783661Y-3830000D01*
X7947663Y-3665998D01*
X8137537Y-3381831D01*
X8268325Y-3066081D01*
X8335000Y-2730883D01*
X8335000Y-2418363D01*
X10195000Y-2418363D01*
X10195000Y-2661637D01*
X10242460Y-2900236D01*
X10335557Y-3124992D01*
X10470713Y-3327267D01*
X10642733Y-3499287D01*
X10845008Y-3634443D01*
X11069764Y-3727540D01*
X11308363Y-3775000D01*
X11551637Y-3775000D01*
X11790236Y-3727540D01*
X12014992Y-3634443D01*
X12217267Y-3499287D01*
X12389287Y-3327267D01*
X12524443Y-3124992D01*
X12617540Y-2900236D01*
X12665000Y-2661637D01*
X12665000Y-2418363D01*
X12617540Y-2179764D01*
X12524443Y-1955008D01*
X12389287Y-1752733D01*
X12217267Y-1580713D01*
X12014992Y-1445557D01*
X11790236Y-1352460D01*
X11551637Y-1305000D01*
X11308363Y-1305000D01*
X11069764Y-1352460D01*
X10845008Y-1445557D01*
X10642733Y-1580713D01*
X10470713Y-1752733D01*
X10335557Y-1955008D01*
X10242460Y-2179764D01*
X10195000Y-2418363D01*
X8335000Y-2418363D01*
X8335000Y-2389117D01*
X8268325Y-2053919D01*
X8137537Y-1738169D01*
X7947663Y-1454002D01*
X7783661Y-1290000D01*
X7947663Y-1125998D01*
X8137537Y-841831D01*
X8268325Y-526081D01*
X8335000Y-190883D01*
X8335000Y121637D01*
X10195000Y121637D01*
X10195000Y-121637D01*
X10242460Y-360236D01*
X10335557Y-584992D01*
X10470713Y-787267D01*
X10642733Y-959287D01*
X10845008Y-1094443D01*
X11069764Y-1187540D01*
X11308363Y-1235000D01*
X11551637Y-1235000D01*
X11790236Y-1187540D01*
X12014992Y-1094443D01*
X12217267Y-959287D01*
X12389287Y-787267D01*
X12524443Y-584992D01*
X12617540Y-360236D01*
X12665000Y-121637D01*
X12665000Y121637D01*
X12642793Y233281D01*
X14631460Y233281D01*
X14631460Y-233281D01*
X14722482Y-690878D01*
X14901027Y-1121924D01*
X15160235Y-1509856D01*
X15490144Y-1839765D01*
X15878076Y-2098973D01*
X16309122Y-2277518D01*
X16766719Y-2368540D01*
X17233281Y-2368540D01*
X17690878Y-2277518D01*
X18121924Y-2098973D01*
X18509856Y-1839765D01*
X18839765Y-1509856D01*
X19098973Y-1121924D01*
X19277518Y-690878D01*
X19368540Y-233281D01*
X19368540Y233281D01*
X19277518Y690878D01*
X19098973Y1121924D01*
X18839765Y1509856D01*
X18509856Y1839765D01*
X18121924Y2098973D01*
X17690878Y2277518D01*
X17233281Y2368540D01*
X16766719Y2368540D01*
X16309122Y2277518D01*
X15878076Y2098973D01*
X15490144Y1839765D01*
X15160235Y1509856D01*
X14901027Y1121924D01*
X14722482Y690878D01*
X14631460Y233281D01*
X12642793Y233281D01*
X12617540Y360236D01*
X12524443Y584992D01*
X12389287Y787267D01*
X12217267Y959287D01*
X12014992Y1094443D01*
X11790236Y1187540D01*
X11551637Y1235000D01*
X11308363Y1235000D01*
X11069764Y1187540D01*
X10845008Y1094443D01*
X10642733Y959287D01*
X10470713Y787267D01*
X10335557Y584992D01*
X10242460Y360236D01*
X10195000Y121637D01*
X8335000Y121637D01*
X8335000Y150883D01*
X8268325Y486081D01*
X8137537Y801831D01*
X7947663Y1085998D01*
X7783661Y1250000D01*
X7947663Y1414002D01*
X8137537Y1698169D01*
X8268325Y2013919D01*
X8335000Y2349117D01*
X8335000Y2661637D01*
X10195000Y2661637D01*
X10195000Y2418363D01*
X10242460Y2179764D01*
X10335557Y1955008D01*
X10470713Y1752733D01*
X10642733Y1580713D01*
X10845008Y1445557D01*
X11069764Y1352460D01*
X11308363Y1305000D01*
X11551637Y1305000D01*
X11790236Y1352460D01*
X12014992Y1445557D01*
X12217267Y1580713D01*
X12389287Y1752733D01*
X12524443Y1955008D01*
X12617540Y2179764D01*
X12665000Y2418363D01*
X12665000Y2661637D01*
X12617540Y2900236D01*
X12524443Y3124992D01*
X12389287Y3327267D01*
X12217267Y3499287D01*
X12014992Y3634443D01*
X11790236Y3727540D01*
X11551637Y3775000D01*
X11308363Y3775000D01*
X11069764Y3727540D01*
X10845008Y3634443D01*
X10642733Y3499287D01*
X10470713Y3327267D01*
X10335557Y3124992D01*
X10242460Y2900236D01*
X10195000Y2661637D01*
X8335000Y2661637D01*
X8335000Y2690883D01*
X8268325Y3026081D01*
X8137537Y3341831D01*
X7947663Y3625998D01*
X7705998Y3867663D01*
X7424926Y4055469D01*
X6600000Y4880395D01*
X5775074Y4055469D01*
X5494002Y3867663D01*
X5252337Y3625998D01*
X5062463Y3341831D01*
X4931675Y3026081D01*
X4865000Y2690883D01*
X2660000Y2690883D01*
X2660000Y5001361D01*
X4857591Y5001361D01*
X4902511Y4662561D01*
X5012664Y4339034D01*
X5118662Y4140726D01*
X5393288Y4032893D01*
X6420395Y5060000D01*
X6406253Y5074143D01*
X6585858Y5253748D01*
X6600000Y5239605D01*
X6614143Y5253748D01*
X6793748Y5074143D01*
X6779605Y5060000D01*
X7806712Y4032893D01*
X8081338Y4140726D01*
X8125377Y4230236D01*
X10759841Y4230236D01*
X10807148Y4006652D01*
X11028516Y3905763D01*
X11265313Y3850000D01*
X11508438Y3841505D01*
X11748549Y3880605D01*
X11976418Y3965798D01*
X12052852Y4006652D01*
X12100159Y4230236D01*
X11430000Y4900395D01*
X10759841Y4230236D01*
X8125377Y4230236D01*
X8232216Y4447384D01*
X8320369Y4777585D01*
X8334843Y5001562D01*
X10191505Y5001562D01*
X10230605Y4761451D01*
X10315798Y4533582D01*
X10356652Y4457148D01*
X10580236Y4409841D01*
X11250395Y5080000D01*
X11609605Y5080000D01*
X12279764Y4409841D01*
X12503348Y4457148D01*
X12604237Y4678516D01*
X12660000Y4915313D01*
X12668495Y5158438D01*
X12629395Y5398549D01*
X12544202Y5626418D01*
X12503348Y5702852D01*
X12279764Y5750159D01*
X11609605Y5080000D01*
X11250395Y5080000D01*
X10580236Y5750159D01*
X10356652Y5702852D01*
X10255763Y5481484D01*
X10200000Y5244687D01*
X10191505Y5001562D01*
X8334843Y5001562D01*
X8342409Y5118639D01*
X8297489Y5457439D01*
X8187336Y5780966D01*
X8107802Y5929764D01*
X10759841Y5929764D01*
X11430000Y5259605D01*
X12100159Y5929764D01*
X12052852Y6153348D01*
X11831484Y6254237D01*
X11594687Y6310000D01*
X11351562Y6318495D01*
X11111451Y6279395D01*
X10883582Y6194202D01*
X10807148Y6153348D01*
X10759841Y5929764D01*
X8107802Y5929764D01*
X8081338Y5979274D01*
X8071267Y5983228D01*
X8151185Y6048815D01*
X8230537Y6145506D01*
X8289502Y6255820D01*
X8325812Y6375518D01*
X8338072Y6500000D01*
X8338072Y7741637D01*
X10195000Y7741637D01*
X10195000Y7498363D01*
X10242460Y7259764D01*
X10335557Y7035008D01*
X10470713Y6832733D01*
X10642733Y6660713D01*
X10845008Y6525557D01*
X11069764Y6432460D01*
X11308363Y6385000D01*
X11551637Y6385000D01*
X11790236Y6432460D01*
X12014992Y6525557D01*
X12217267Y6660713D01*
X12389287Y6832733D01*
X12524443Y7035008D01*
X12617540Y7259764D01*
X12665000Y7498363D01*
X12665000Y7741637D01*
X12617540Y7980236D01*
X12524443Y8204992D01*
X12389287Y8407267D01*
X12217267Y8579287D01*
X12014992Y8714443D01*
X11790236Y8807540D01*
X11551637Y8855000D01*
X11308363Y8855000D01*
X11069764Y8807540D01*
X10845008Y8714443D01*
X10642733Y8579287D01*
X10470713Y8407267D01*
X10335557Y8204992D01*
X10242460Y7980236D01*
X10195000Y7741637D01*
X8338072Y7741637D01*
X8338072Y8700000D01*
X8325812Y8824482D01*
X8289502Y8944180D01*
X8230537Y9054494D01*
X8151185Y9151185D01*
X8054494Y9230537D01*
X7944180Y9289502D01*
X7824482Y9325812D01*
X7700000Y9338072D01*
X5500000Y9338072D01*
X5375518Y9325812D01*
X5255820Y9289502D01*
X5145506Y9230537D01*
X5048815Y9151185D01*
X4969463Y9054494D01*
X4910498Y8944180D01*
X4874188Y8824482D01*
X4861928Y8700000D01*
X4861928Y6500000D01*
X4874188Y6375518D01*
X4910498Y6255820D01*
X4969463Y6145506D01*
X5048815Y6048815D01*
X5128733Y5983228D01*
X5118662Y5979274D01*
X4967784Y5672616D01*
X4879631Y5342415D01*
X4857591Y5001361D01*
X2660000Y5001361D01*
X2660000Y6532419D01*
X2656655Y6566382D01*
X2656655Y6592329D01*
X2655692Y6601493D01*
X2612182Y6989393D01*
X2599751Y7047873D01*
X2588127Y7106583D01*
X2585401Y7115386D01*
X2467377Y7487447D01*
X2443834Y7542377D01*
X2421017Y7597736D01*
X2416633Y7605842D01*
X2228589Y7947892D01*
X2194823Y7997205D01*
X2161691Y8047074D01*
X2155816Y8054174D01*
X1904916Y8353185D01*
X1862203Y8395013D01*
X1820027Y8437484D01*
X1812886Y8443308D01*
X1508685Y8687892D01*
X1458622Y8720652D01*
X1409038Y8754097D01*
X1400901Y8758423D01*
X1054988Y8939262D01*
X999553Y8961659D01*
X944381Y8984852D01*
X935559Y8987515D01*
X561109Y9097722D01*
X502379Y9108925D01*
X443750Y9120960D01*
X434579Y9121859D01*
X45853Y9157235D01*
X-13964Y9156817D01*
X-73781Y9157235D01*
X-82953Y9156335D01*
X-82955Y9156335D01*
X-471145Y9115534D01*
X-529701Y9103514D01*
X-588502Y9092298D01*
X-597323Y9089634D01*
X-970198Y8974210D01*
X-1025353Y8951025D01*
X-1080806Y8928621D01*
X-1088938Y8924296D01*
X-1088943Y8924294D01*
X-1088947Y8924291D01*
X-1432298Y8738643D01*
X-1481899Y8705187D01*
X-1531946Y8672437D01*
X-1539087Y8666613D01*
X-1839842Y8417806D01*
X-1881981Y8375371D01*
X-1924731Y8333508D01*
X-1930604Y8326407D01*
X-2177305Y8023923D01*
X-2210402Y7974107D01*
X-2244205Y7924741D01*
X-2248587Y7916635D01*
X-2431837Y7571993D01*
X-2454632Y7516687D01*
X-2478198Y7461704D01*
X-2480923Y7452901D01*
X-2593741Y7079230D01*
X-2605361Y7020542D01*
X-2617797Y6962039D01*
X-2618760Y6952874D01*
X-2656850Y6564405D01*
X-2660000Y6532418D01*
X-4861928Y6532418D01*
X-4861928Y8700000D01*
X-4874188Y8824482D01*
X-4910498Y8944180D01*
X-4969463Y9054494D01*
X-5048815Y9151185D01*
X-5145506Y9230537D01*
X-5255820Y9289502D01*
X-5375518Y9325812D01*
X-5500000Y9338072D01*
X-7700000Y9338072D01*
X-7824482Y9325812D01*
X-7944180Y9289502D01*
X-8054494Y9230537D01*
X-8151185Y9151185D01*
X-8230537Y9054494D01*
X-8289502Y8944180D01*
X-8325812Y8824482D01*
X-8338072Y8700000D01*
X-10823392Y8700000D01*
X-10845008Y8714443D01*
X-11069764Y8807540D01*
X-11308363Y8855000D01*
X-11551637Y8855000D01*
X-11790236Y8807540D01*
X-12014992Y8714443D01*
X-12217267Y8579287D01*
X-12389287Y8407267D01*
X-12524443Y8204992D01*
X-12617540Y7980236D01*
X-12665000Y7741637D01*
X-18179149Y7741637D01*
X-17849499Y8525195D01*
X-17028532Y10076563D01*
X-16073666Y11549303D01*
X-14992377Y12931889D01*
X-13793126Y14213499D01*
X-12485299Y15384105D01*
X-11079131Y16434544D01*
X-9585628Y17356596D01*
X-8016478Y18143043D01*
X-6383963Y18787731D01*
X-4700858Y19285614D01*
X-2980336Y19632796D01*
X-2580900Y19677163D01*
X-2640537Y19604494D01*
X-2699502Y19494180D01*
X-2735812Y19374482D01*
X-2748072Y19250000D01*
X-2748072Y17550000D01*
X-2735812Y17425518D01*
X-2699502Y17305820D01*
X-2640537Y17195506D01*
X-2561185Y17098815D01*
X-2464494Y17019463D01*
X-2354180Y16960498D01*
X-2234482Y16924188D01*
X-2110000Y16911928D01*
X-410000Y16911928D01*
X-285518Y16924188D01*
X-165820Y16960498D01*
X-55506Y17019463D01*
X41185Y17098815D01*
X120537Y17195506D01*
X179502Y17305820D01*
X203966Y17386466D01*
X279731Y17302412D01*
X513080Y17128359D01*
X775901Y17003175D01*
X923110Y16958524D01*
X1153000Y17079845D01*
X1153000Y18273000D01*
X1407000Y18273000D01*
X1407000Y17079845D01*
X1636890Y16958524D01*
X1784099Y17003175D01*
X2046920Y17128359D01*
X2280269Y17302412D01*
X2475178Y17518645D01*
X2624157Y17768748D01*
X2721481Y18043109D01*
X2600814Y18273000D01*
X1407000Y18273000D01*
X1153000Y18273000D01*
X1133000Y18273000D01*
X1133000Y18527000D01*
X1153000Y18527000D01*
X1153000Y18547000D01*
X1407000Y18547000D01*
X1407000Y18527000D01*
X2600814Y18527000D01*
X2721481Y18756891D01*
X2624157Y19031252D01*
X2475178Y19281355D01*
X2280269Y19497588D01*
X2046920Y19671641D01*
X1821997Y19778774D01*
X2270244Y19748979D01*
%TA.AperFunction,Conductor*%
D16*
G36*
X2270244Y19748979D02*
G01*
X4004438Y19478241D01*
X5707919Y19055294D01*
X7367353Y18483449D01*
X8969754Y17767180D01*
X10502581Y16912094D01*
X11953837Y15924882D01*
X13312164Y14813272D01*
X14566931Y13585962D01*
X15708318Y12252559D01*
X16727393Y10823497D01*
X17616179Y9309962D01*
X18367721Y7723799D01*
X18976137Y6077421D01*
X19436664Y4383714D01*
X19745700Y2655933D01*
X19900825Y907600D01*
X19900825Y-847600D01*
X19745700Y-2595933D01*
X19436664Y-4323714D01*
X18976137Y-6017421D01*
X18367721Y-7663799D01*
X17616179Y-9249962D01*
X16727393Y-10763497D01*
X15708318Y-12192559D01*
X14566931Y-13525962D01*
X13312164Y-14753272D01*
X11953837Y-15864882D01*
X10502581Y-16852094D01*
X8969754Y-17707180D01*
X7367353Y-18423449D01*
X5707919Y-18995294D01*
X4004438Y-19418241D01*
X2270244Y-19688979D01*
X518908Y-19805389D01*
X-1235864Y-19766560D01*
X-2980336Y-19572796D01*
X-4700858Y-19225614D01*
X-6383963Y-18727731D01*
X-8016478Y-18083043D01*
X-9585628Y-17296596D01*
X-11079131Y-16374544D01*
X-12485299Y-15324105D01*
X-13793126Y-14153499D01*
X-14992377Y-12871889D01*
X-16073666Y-11489303D01*
X-17014397Y-10038363D01*
X-12665000Y-10038363D01*
X-12665000Y-10281637D01*
X-12617540Y-10520236D01*
X-12524443Y-10744992D01*
X-12389287Y-10947267D01*
X-12217267Y-11119287D01*
X-12014992Y-11254443D01*
X-11790236Y-11347540D01*
X-11551637Y-11395000D01*
X-11308363Y-11395000D01*
X-11069764Y-11347540D01*
X-10845008Y-11254443D01*
X-10642733Y-11119287D01*
X-10470713Y-10947267D01*
X-10335557Y-10744992D01*
X-10242460Y-10520236D01*
X-10195000Y-10281637D01*
X-10195000Y-10038363D01*
X-10242460Y-9799764D01*
X-10335557Y-9575008D01*
X-10470713Y-9372733D01*
X-10642733Y-9200713D01*
X-10845008Y-9065557D01*
X-11069764Y-8972460D01*
X-11308363Y-8925000D01*
X-11551637Y-8925000D01*
X-11790236Y-8972460D01*
X-12014992Y-9065557D01*
X-12217267Y-9200713D01*
X-12389287Y-9372733D01*
X-12524443Y-9575008D01*
X-12617540Y-9799764D01*
X-12665000Y-10038363D01*
X-17014397Y-10038363D01*
X-17028532Y-10016563D01*
X-17849499Y-8465195D01*
X-18256253Y-7498363D01*
X-12665000Y-7498363D01*
X-12665000Y-7741637D01*
X-12617540Y-7980236D01*
X-12524443Y-8204992D01*
X-12389287Y-8407267D01*
X-12217267Y-8579287D01*
X-12014992Y-8714443D01*
X-11790236Y-8807540D01*
X-11551637Y-8855000D01*
X-11308363Y-8855000D01*
X-11069764Y-8807540D01*
X-10845008Y-8714443D01*
X-10642733Y-8579287D01*
X-10470713Y-8407267D01*
X-10335557Y-8204992D01*
X-10242460Y-7980236D01*
X-10195000Y-7741637D01*
X-10195000Y-7498363D01*
X-10242460Y-7259764D01*
X-10335557Y-7035008D01*
X-10470713Y-6832733D01*
X-10642733Y-6660713D01*
X-10845008Y-6525557D01*
X-11069764Y-6432460D01*
X-11308363Y-6385000D01*
X-11551637Y-6385000D01*
X-11790236Y-6432460D01*
X-12014992Y-6525557D01*
X-12217267Y-6660713D01*
X-12389287Y-6832733D01*
X-12524443Y-7035008D01*
X-12617540Y-7259764D01*
X-12665000Y-7498363D01*
X-18256253Y-7498363D01*
X-18530144Y-6847341D01*
X-19065139Y-5175662D01*
X-19114014Y-4958363D01*
X-12665000Y-4958363D01*
X-12665000Y-5201637D01*
X-12617540Y-5440236D01*
X-12524443Y-5664992D01*
X-12389287Y-5867267D01*
X-12217267Y-6039287D01*
X-12014992Y-6174443D01*
X-11790236Y-6267540D01*
X-11551637Y-6315000D01*
X-11308363Y-6315000D01*
X-11069764Y-6267540D01*
X-10845008Y-6174443D01*
X-10642733Y-6039287D01*
X-10470713Y-5867267D01*
X-10335557Y-5664992D01*
X-10242460Y-5440236D01*
X-10195000Y-5201637D01*
X-10195000Y-4958363D01*
X-10242460Y-4719764D01*
X-10335557Y-4495008D01*
X-10470713Y-4292733D01*
X-10642733Y-4120713D01*
X-10845008Y-3985557D01*
X-11069764Y-3892460D01*
X-11308363Y-3845000D01*
X-11551637Y-3845000D01*
X-11790236Y-3892460D01*
X-12014992Y-3985557D01*
X-12217267Y-4120713D01*
X-12389287Y-4292733D01*
X-12524443Y-4495008D01*
X-12617540Y-4719764D01*
X-12665000Y-4958363D01*
X-19114014Y-4958363D01*
X-19450298Y-3463242D01*
X-19589819Y-2418363D01*
X-12665000Y-2418363D01*
X-12665000Y-2661637D01*
X-12617540Y-2900236D01*
X-12524443Y-3124992D01*
X-12389287Y-3327267D01*
X-12217267Y-3499287D01*
X-12014992Y-3634443D01*
X-11790236Y-3727540D01*
X-11551637Y-3775000D01*
X-11308363Y-3775000D01*
X-11069764Y-3727540D01*
X-10845008Y-3634443D01*
X-10642733Y-3499287D01*
X-10470713Y-3327267D01*
X-10335557Y-3124992D01*
X-10242460Y-2900236D01*
X-10195000Y-2661637D01*
X-10195000Y-2418363D01*
X-10242460Y-2179764D01*
X-10335557Y-1955008D01*
X-10470713Y-1752733D01*
X-10642733Y-1580713D01*
X-10845008Y-1445557D01*
X-11069764Y-1352460D01*
X-11308363Y-1305000D01*
X-11551637Y-1305000D01*
X-11790236Y-1352460D01*
X-12014992Y-1445557D01*
X-12217267Y-1580713D01*
X-12389287Y-1752733D01*
X-12524443Y-1955008D01*
X-12617540Y-2179764D01*
X-12665000Y-2418363D01*
X-19589819Y-2418363D01*
X-19682606Y-1723483D01*
X-19760244Y30000D01*
X-19751244Y233281D01*
X-19368540Y233281D01*
X-19368540Y-233281D01*
X-19277518Y-690878D01*
X-19098973Y-1121924D01*
X-18839765Y-1509856D01*
X-18509856Y-1839765D01*
X-18121924Y-2098973D01*
X-17690878Y-2277518D01*
X-17233281Y-2368540D01*
X-16766719Y-2368540D01*
X-16309122Y-2277518D01*
X-15878076Y-2098973D01*
X-15490144Y-1839765D01*
X-15160235Y-1509856D01*
X-14901027Y-1121924D01*
X-14722482Y-690878D01*
X-14631460Y-233281D01*
X-14631460Y121637D01*
X-12665000Y121637D01*
X-12665000Y-121637D01*
X-12617540Y-360236D01*
X-12524443Y-584992D01*
X-12389287Y-787267D01*
X-12217267Y-959287D01*
X-12014992Y-1094443D01*
X-11790236Y-1187540D01*
X-11551637Y-1235000D01*
X-11308363Y-1235000D01*
X-11069764Y-1187540D01*
X-10845008Y-1094443D01*
X-10642733Y-959287D01*
X-10470713Y-787267D01*
X-10335557Y-584992D01*
X-10242460Y-360236D01*
X-10195000Y-121637D01*
X-10195000Y121637D01*
X-10242460Y360236D01*
X-10335557Y584992D01*
X-10470713Y787267D01*
X-10642733Y959287D01*
X-10845008Y1094443D01*
X-11069764Y1187540D01*
X-11308363Y1235000D01*
X-11551637Y1235000D01*
X-11790236Y1187540D01*
X-12014992Y1094443D01*
X-12217267Y959287D01*
X-12389287Y787267D01*
X-12524443Y584992D01*
X-12617540Y360236D01*
X-12665000Y121637D01*
X-14631460Y121637D01*
X-14631460Y233281D01*
X-14722482Y690878D01*
X-14901027Y1121924D01*
X-15160235Y1509856D01*
X-15490144Y1839765D01*
X-15878076Y2098973D01*
X-16309122Y2277518D01*
X-16766719Y2368540D01*
X-17233281Y2368540D01*
X-17690878Y2277518D01*
X-18121924Y2098973D01*
X-18509856Y1839765D01*
X-18839765Y1509856D01*
X-19098973Y1121924D01*
X-19277518Y690878D01*
X-19368540Y233281D01*
X-19751244Y233281D01*
X-19682606Y1783483D01*
X-19565348Y2661637D01*
X-12665000Y2661637D01*
X-12665000Y2418363D01*
X-12617540Y2179764D01*
X-12524443Y1955008D01*
X-12389287Y1752733D01*
X-12217267Y1580713D01*
X-12014992Y1445557D01*
X-11790236Y1352460D01*
X-11551637Y1305000D01*
X-11308363Y1305000D01*
X-11069764Y1352460D01*
X-10845008Y1445557D01*
X-10642733Y1580713D01*
X-10470713Y1752733D01*
X-10335557Y1955008D01*
X-10242460Y2179764D01*
X-10195000Y2418363D01*
X-10195000Y2661637D01*
X-10242460Y2900236D01*
X-10335557Y3124992D01*
X-10470713Y3327267D01*
X-10642733Y3499287D01*
X-10845008Y3634443D01*
X-11069764Y3727540D01*
X-11308363Y3775000D01*
X-11551637Y3775000D01*
X-11790236Y3727540D01*
X-12014992Y3634443D01*
X-12217267Y3499287D01*
X-12389287Y3327267D01*
X-12524443Y3124992D01*
X-12617540Y2900236D01*
X-12665000Y2661637D01*
X-19565348Y2661637D01*
X-19450298Y3523242D01*
X-19072792Y5201637D01*
X-12665000Y5201637D01*
X-12665000Y4958363D01*
X-12617540Y4719764D01*
X-12524443Y4495008D01*
X-12389287Y4292733D01*
X-12217267Y4120713D01*
X-12014992Y3985557D01*
X-11790236Y3892460D01*
X-11551637Y3845000D01*
X-11308363Y3845000D01*
X-11069764Y3892460D01*
X-10845008Y3985557D01*
X-10642733Y4120713D01*
X-10470713Y4292733D01*
X-10335557Y4495008D01*
X-10242460Y4719764D01*
X-10195000Y4958363D01*
X-10195000Y5201637D01*
X-10242460Y5440236D01*
X-10335557Y5664992D01*
X-10470713Y5867267D01*
X-10642733Y6039287D01*
X-10845008Y6174443D01*
X-11069764Y6267540D01*
X-11308363Y6315000D01*
X-11551637Y6315000D01*
X-11790236Y6267540D01*
X-12014992Y6174443D01*
X-12217267Y6039287D01*
X-12389287Y5867267D01*
X-12524443Y5664992D01*
X-12617540Y5440236D01*
X-12665000Y5201637D01*
X-19072792Y5201637D01*
X-19065139Y5235662D01*
X-18530144Y6907341D01*
X-18179149Y7741637D01*
X-12665000Y7741637D01*
X-12665000Y7498363D01*
X-12617540Y7259764D01*
X-12524443Y7035008D01*
X-12389287Y6832733D01*
X-12217267Y6660713D01*
X-12014992Y6525557D01*
X-11790236Y6432460D01*
X-11551637Y6385000D01*
X-11308363Y6385000D01*
X-11069764Y6432460D01*
X-10845008Y6525557D01*
X-10642733Y6660713D01*
X-10470713Y6832733D01*
X-10335557Y7035008D01*
X-10242460Y7259764D01*
X-10195000Y7498363D01*
X-10195000Y7741637D01*
X-10242460Y7980236D01*
X-10335557Y8204992D01*
X-10470713Y8407267D01*
X-10642733Y8579287D01*
X-10823392Y8700000D01*
X-8338072Y8700000D01*
X-8338072Y6500000D01*
X-8325812Y6375518D01*
X-8289502Y6255820D01*
X-8230537Y6145506D01*
X-8151185Y6048815D01*
X-8070310Y5982443D01*
X-8137537Y5881831D01*
X-8268325Y5566081D01*
X-8335000Y5230883D01*
X-8335000Y4889117D01*
X-8268325Y4553919D01*
X-8137537Y4238169D01*
X-7947663Y3954002D01*
X-7783661Y3790000D01*
X-7947663Y3625998D01*
X-8137537Y3341831D01*
X-8268325Y3026081D01*
X-8335000Y2690883D01*
X-8335000Y2349117D01*
X-8268325Y2013919D01*
X-8137537Y1698169D01*
X-7947663Y1414002D01*
X-7783661Y1250000D01*
X-7947663Y1085998D01*
X-8137537Y801831D01*
X-8268325Y486081D01*
X-8335000Y150883D01*
X-8335000Y-190883D01*
X-8268325Y-526081D01*
X-8137537Y-841831D01*
X-7947663Y-1125998D01*
X-7783661Y-1290000D01*
X-7947663Y-1454002D01*
X-8137537Y-1738169D01*
X-8268325Y-2053919D01*
X-8335000Y-2389117D01*
X-8335000Y-2730883D01*
X-8268325Y-3066081D01*
X-8137537Y-3381831D01*
X-7947663Y-3665998D01*
X-7783661Y-3830000D01*
X-7947663Y-3994002D01*
X-8137537Y-4278169D01*
X-8268325Y-4593919D01*
X-8335000Y-4929117D01*
X-8335000Y-5270883D01*
X-8268325Y-5606081D01*
X-8137537Y-5921831D01*
X-7947663Y-6205998D01*
X-7783661Y-6370000D01*
X-7947663Y-6534002D01*
X-8137537Y-6818169D01*
X-8268325Y-7133919D01*
X-8335000Y-7469117D01*
X-8335000Y-7810883D01*
X-8268325Y-8146081D01*
X-8137537Y-8461831D01*
X-7947663Y-8745998D01*
X-7783661Y-8910000D01*
X-7947663Y-9074002D01*
X-8137537Y-9358169D01*
X-8268325Y-9673919D01*
X-8335000Y-10009117D01*
X-8335000Y-10350883D01*
X-8268325Y-10686081D01*
X-8137537Y-11001831D01*
X-7947663Y-11285998D01*
X-7705998Y-11527663D01*
X-7421831Y-11717537D01*
X-7106081Y-11848325D01*
X-6770883Y-11915000D01*
X-6429117Y-11915000D01*
X-6093919Y-11848325D01*
X-5778169Y-11717537D01*
X-5494002Y-11527663D01*
X-5252337Y-11285998D01*
X-5062463Y-11001831D01*
X-4931675Y-10686081D01*
X-4865000Y-10350883D01*
X-4865000Y-10009117D01*
X-4931675Y-9673919D01*
X-5062463Y-9358169D01*
X-5252337Y-9074002D01*
X-5416339Y-8910000D01*
X-5252337Y-8745998D01*
X-5062463Y-8461831D01*
X-4931675Y-8146081D01*
X-4865000Y-7810883D01*
X-4865000Y-7469117D01*
X-4931675Y-7133919D01*
X-5062463Y-6818169D01*
X-5252337Y-6534002D01*
X-5416339Y-6370000D01*
X-5252337Y-6205998D01*
X-5062463Y-5921831D01*
X-4931675Y-5606081D01*
X-4865000Y-5270883D01*
X-4865000Y-4929117D01*
X-4931675Y-4593919D01*
X-5062463Y-4278169D01*
X-5252337Y-3994002D01*
X-5416339Y-3830000D01*
X-5252337Y-3665998D01*
X-5062463Y-3381831D01*
X-4931675Y-3066081D01*
X-4865000Y-2730883D01*
X-4865000Y-2389117D01*
X-4931675Y-2053919D01*
X-5062463Y-1738169D01*
X-5252337Y-1454002D01*
X-5416339Y-1290000D01*
X-5252337Y-1125998D01*
X-5062463Y-841831D01*
X-4931675Y-526081D01*
X-4865000Y-190883D01*
X-4865000Y150883D01*
X-4931675Y486081D01*
X-5062463Y801831D01*
X-5252337Y1085998D01*
X-5416339Y1250000D01*
X-5252337Y1414002D01*
X-5062463Y1698169D01*
X-4931675Y2013919D01*
X-4865000Y2349117D01*
X-4865000Y2690883D01*
X-4931675Y3026081D01*
X-5062463Y3341831D01*
X-5252337Y3625998D01*
X-5416339Y3790000D01*
X-5252337Y3954002D01*
X-5062463Y4238169D01*
X-4931675Y4553919D01*
X-4865000Y4889117D01*
X-4865000Y5230883D01*
X-4931675Y5566081D01*
X-5062463Y5881831D01*
X-5129690Y5982443D01*
X-5048815Y6048815D01*
X-4969463Y6145506D01*
X-4910498Y6255820D01*
X-4874188Y6375518D01*
X-4861928Y6500000D01*
X-4861928Y6532418D01*
X-2660000Y6532418D01*
X-2659999Y-9032419D01*
X-2656655Y-9066372D01*
X-2656655Y-9092329D01*
X-2655692Y-9101494D01*
X-2612182Y-9489393D01*
X-2599751Y-9547873D01*
X-2588127Y-9606583D01*
X-2585401Y-9615386D01*
X-2467377Y-9987447D01*
X-2443811Y-10042430D01*
X-2421016Y-10097736D01*
X-2416633Y-10105842D01*
X-2228589Y-10447892D01*
X-2194812Y-10497221D01*
X-2161691Y-10547074D01*
X-2155816Y-10554174D01*
X-1904916Y-10853185D01*
X-1862186Y-10895029D01*
X-1820027Y-10937484D01*
X-1812886Y-10943308D01*
X-1508684Y-11187892D01*
X-1458639Y-11220640D01*
X-1409038Y-11254097D01*
X-1400901Y-11258423D01*
X-1054989Y-11439262D01*
X-999540Y-11461665D01*
X-944381Y-11484852D01*
X-935559Y-11487515D01*
X-561109Y-11597722D01*
X-502379Y-11608925D01*
X-443750Y-11620960D01*
X-434579Y-11621859D01*
X-45853Y-11657235D01*
X13964Y-11656817D01*
X73781Y-11657235D01*
X82952Y-11656335D01*
X82954Y-11656335D01*
X471145Y-11615534D01*
X529708Y-11603513D01*
X588501Y-11592298D01*
X597323Y-11589634D01*
X970198Y-11474210D01*
X1025353Y-11451025D01*
X1080806Y-11428621D01*
X1088943Y-11424294D01*
X1432298Y-11238643D01*
X1481849Y-11205220D01*
X1531946Y-11172438D01*
X1539087Y-11166613D01*
X1839841Y-10917806D01*
X1881981Y-10875371D01*
X1924730Y-10833508D01*
X1930604Y-10826408D01*
X2177305Y-10523923D01*
X2210409Y-10474096D01*
X2244204Y-10424741D01*
X2248587Y-10416635D01*
X2431837Y-10071993D01*
X2454631Y-10016689D01*
X2478198Y-9961705D01*
X2480923Y-9952902D01*
X2593741Y-9579230D01*
X2605361Y-9520542D01*
X2617797Y-9462039D01*
X2618760Y-9452874D01*
X2656850Y-9064405D01*
X2656850Y-9064402D01*
X2660000Y-9032419D01*
X2660000Y2690883D01*
X4865000Y2690883D01*
X4865000Y2349117D01*
X4931675Y2013919D01*
X5062463Y1698169D01*
X5252337Y1414002D01*
X5416339Y1250000D01*
X5252337Y1085998D01*
X5062463Y801831D01*
X4931675Y486081D01*
X4865000Y150883D01*
X4865000Y-190883D01*
X4931675Y-526081D01*
X5062463Y-841831D01*
X5252337Y-1125998D01*
X5416339Y-1290000D01*
X5252337Y-1454002D01*
X5062463Y-1738169D01*
X4931675Y-2053919D01*
X4865000Y-2389117D01*
X4865000Y-2730883D01*
X4931675Y-3066081D01*
X5062463Y-3381831D01*
X5252337Y-3665998D01*
X5416339Y-3830000D01*
X5252337Y-3994002D01*
X5062463Y-4278169D01*
X4931675Y-4593919D01*
X4865000Y-4929117D01*
X4865000Y-5270883D01*
X4931675Y-5606081D01*
X5062463Y-5921831D01*
X5252337Y-6205998D01*
X5416339Y-6370000D01*
X5252337Y-6534002D01*
X5062463Y-6818169D01*
X4931675Y-7133919D01*
X4865000Y-7469117D01*
X4865000Y-7810883D01*
X4931675Y-8146081D01*
X5062463Y-8461831D01*
X5252337Y-8745998D01*
X5416339Y-8910000D01*
X5252337Y-9074002D01*
X5062463Y-9358169D01*
X4931675Y-9673919D01*
X4865000Y-10009117D01*
X4865000Y-10350883D01*
X4931675Y-10686081D01*
X5062463Y-11001831D01*
X5252337Y-11285998D01*
X5494002Y-11527663D01*
X5778169Y-11717537D01*
X6093919Y-11848325D01*
X6429117Y-11915000D01*
X6770883Y-11915000D01*
X7106081Y-11848325D01*
X7421831Y-11717537D01*
X7705998Y-11527663D01*
X7947663Y-11285998D01*
X8137537Y-11001831D01*
X8268325Y-10686081D01*
X8335000Y-10350883D01*
X8335000Y-10038363D01*
X10195000Y-10038363D01*
X10195000Y-10281637D01*
X10242460Y-10520236D01*
X10335557Y-10744992D01*
X10470713Y-10947267D01*
X10642733Y-11119287D01*
X10845008Y-11254443D01*
X11069764Y-11347540D01*
X11308363Y-11395000D01*
X11551637Y-11395000D01*
X11790236Y-11347540D01*
X12014992Y-11254443D01*
X12217267Y-11119287D01*
X12389287Y-10947267D01*
X12524443Y-10744992D01*
X12617540Y-10520236D01*
X12665000Y-10281637D01*
X12665000Y-10038363D01*
X12617540Y-9799764D01*
X12524443Y-9575008D01*
X12389287Y-9372733D01*
X12217267Y-9200713D01*
X12014992Y-9065557D01*
X11790236Y-8972460D01*
X11551637Y-8925000D01*
X11308363Y-8925000D01*
X11069764Y-8972460D01*
X10845008Y-9065557D01*
X10642733Y-9200713D01*
X10470713Y-9372733D01*
X10335557Y-9575008D01*
X10242460Y-9799764D01*
X10195000Y-10038363D01*
X8335000Y-10038363D01*
X8335000Y-10009117D01*
X8268325Y-9673919D01*
X8137537Y-9358169D01*
X7947663Y-9074002D01*
X7783661Y-8910000D01*
X7947663Y-8745998D01*
X8137537Y-8461831D01*
X8268325Y-8146081D01*
X8335000Y-7810883D01*
X8335000Y-7498363D01*
X10195000Y-7498363D01*
X10195000Y-7741637D01*
X10242460Y-7980236D01*
X10335557Y-8204992D01*
X10470713Y-8407267D01*
X10642733Y-8579287D01*
X10845008Y-8714443D01*
X11069764Y-8807540D01*
X11308363Y-8855000D01*
X11551637Y-8855000D01*
X11790236Y-8807540D01*
X12014992Y-8714443D01*
X12217267Y-8579287D01*
X12389287Y-8407267D01*
X12524443Y-8204992D01*
X12617540Y-7980236D01*
X12665000Y-7741637D01*
X12665000Y-7498363D01*
X12617540Y-7259764D01*
X12524443Y-7035008D01*
X12389287Y-6832733D01*
X12217267Y-6660713D01*
X12014992Y-6525557D01*
X11790236Y-6432460D01*
X11551637Y-6385000D01*
X11308363Y-6385000D01*
X11069764Y-6432460D01*
X10845008Y-6525557D01*
X10642733Y-6660713D01*
X10470713Y-6832733D01*
X10335557Y-7035008D01*
X10242460Y-7259764D01*
X10195000Y-7498363D01*
X8335000Y-7498363D01*
X8335000Y-7469117D01*
X8268325Y-7133919D01*
X8137537Y-6818169D01*
X7947663Y-6534002D01*
X7783661Y-6370000D01*
X7947663Y-6205998D01*
X8137537Y-5921831D01*
X8268325Y-5606081D01*
X8335000Y-5270883D01*
X8335000Y-4958363D01*
X10195000Y-4958363D01*
X10195000Y-5201637D01*
X10242460Y-5440236D01*
X10335557Y-5664992D01*
X10470713Y-5867267D01*
X10642733Y-6039287D01*
X10845008Y-6174443D01*
X11069764Y-6267540D01*
X11308363Y-6315000D01*
X11551637Y-6315000D01*
X11790236Y-6267540D01*
X12014992Y-6174443D01*
X12217267Y-6039287D01*
X12389287Y-5867267D01*
X12524443Y-5664992D01*
X12617540Y-5440236D01*
X12665000Y-5201637D01*
X12665000Y-4958363D01*
X12617540Y-4719764D01*
X12524443Y-4495008D01*
X12389287Y-4292733D01*
X12217267Y-4120713D01*
X12014992Y-3985557D01*
X11790236Y-3892460D01*
X11551637Y-3845000D01*
X11308363Y-3845000D01*
X11069764Y-3892460D01*
X10845008Y-3985557D01*
X10642733Y-4120713D01*
X10470713Y-4292733D01*
X10335557Y-4495008D01*
X10242460Y-4719764D01*
X10195000Y-4958363D01*
X8335000Y-4958363D01*
X8335000Y-4929117D01*
X8268325Y-4593919D01*
X8137537Y-4278169D01*
X7947663Y-3994002D01*
X7783661Y-3830000D01*
X7947663Y-3665998D01*
X8137537Y-3381831D01*
X8268325Y-3066081D01*
X8335000Y-2730883D01*
X8335000Y-2418363D01*
X10195000Y-2418363D01*
X10195000Y-2661637D01*
X10242460Y-2900236D01*
X10335557Y-3124992D01*
X10470713Y-3327267D01*
X10642733Y-3499287D01*
X10845008Y-3634443D01*
X11069764Y-3727540D01*
X11308363Y-3775000D01*
X11551637Y-3775000D01*
X11790236Y-3727540D01*
X12014992Y-3634443D01*
X12217267Y-3499287D01*
X12389287Y-3327267D01*
X12524443Y-3124992D01*
X12617540Y-2900236D01*
X12665000Y-2661637D01*
X12665000Y-2418363D01*
X12617540Y-2179764D01*
X12524443Y-1955008D01*
X12389287Y-1752733D01*
X12217267Y-1580713D01*
X12014992Y-1445557D01*
X11790236Y-1352460D01*
X11551637Y-1305000D01*
X11308363Y-1305000D01*
X11069764Y-1352460D01*
X10845008Y-1445557D01*
X10642733Y-1580713D01*
X10470713Y-1752733D01*
X10335557Y-1955008D01*
X10242460Y-2179764D01*
X10195000Y-2418363D01*
X8335000Y-2418363D01*
X8335000Y-2389117D01*
X8268325Y-2053919D01*
X8137537Y-1738169D01*
X7947663Y-1454002D01*
X7783661Y-1290000D01*
X7947663Y-1125998D01*
X8137537Y-841831D01*
X8268325Y-526081D01*
X8335000Y-190883D01*
X8335000Y121637D01*
X10195000Y121637D01*
X10195000Y-121637D01*
X10242460Y-360236D01*
X10335557Y-584992D01*
X10470713Y-787267D01*
X10642733Y-959287D01*
X10845008Y-1094443D01*
X11069764Y-1187540D01*
X11308363Y-1235000D01*
X11551637Y-1235000D01*
X11790236Y-1187540D01*
X12014992Y-1094443D01*
X12217267Y-959287D01*
X12389287Y-787267D01*
X12524443Y-584992D01*
X12617540Y-360236D01*
X12665000Y-121637D01*
X12665000Y121637D01*
X12642793Y233281D01*
X14631460Y233281D01*
X14631460Y-233281D01*
X14722482Y-690878D01*
X14901027Y-1121924D01*
X15160235Y-1509856D01*
X15490144Y-1839765D01*
X15878076Y-2098973D01*
X16309122Y-2277518D01*
X16766719Y-2368540D01*
X17233281Y-2368540D01*
X17690878Y-2277518D01*
X18121924Y-2098973D01*
X18509856Y-1839765D01*
X18839765Y-1509856D01*
X19098973Y-1121924D01*
X19277518Y-690878D01*
X19368540Y-233281D01*
X19368540Y233281D01*
X19277518Y690878D01*
X19098973Y1121924D01*
X18839765Y1509856D01*
X18509856Y1839765D01*
X18121924Y2098973D01*
X17690878Y2277518D01*
X17233281Y2368540D01*
X16766719Y2368540D01*
X16309122Y2277518D01*
X15878076Y2098973D01*
X15490144Y1839765D01*
X15160235Y1509856D01*
X14901027Y1121924D01*
X14722482Y690878D01*
X14631460Y233281D01*
X12642793Y233281D01*
X12617540Y360236D01*
X12524443Y584992D01*
X12389287Y787267D01*
X12217267Y959287D01*
X12014992Y1094443D01*
X11790236Y1187540D01*
X11551637Y1235000D01*
X11308363Y1235000D01*
X11069764Y1187540D01*
X10845008Y1094443D01*
X10642733Y959287D01*
X10470713Y787267D01*
X10335557Y584992D01*
X10242460Y360236D01*
X10195000Y121637D01*
X8335000Y121637D01*
X8335000Y150883D01*
X8268325Y486081D01*
X8137537Y801831D01*
X7947663Y1085998D01*
X7783661Y1250000D01*
X7947663Y1414002D01*
X8137537Y1698169D01*
X8268325Y2013919D01*
X8335000Y2349117D01*
X8335000Y2661637D01*
X10195000Y2661637D01*
X10195000Y2418363D01*
X10242460Y2179764D01*
X10335557Y1955008D01*
X10470713Y1752733D01*
X10642733Y1580713D01*
X10845008Y1445557D01*
X11069764Y1352460D01*
X11308363Y1305000D01*
X11551637Y1305000D01*
X11790236Y1352460D01*
X12014992Y1445557D01*
X12217267Y1580713D01*
X12389287Y1752733D01*
X12524443Y1955008D01*
X12617540Y2179764D01*
X12665000Y2418363D01*
X12665000Y2661637D01*
X12617540Y2900236D01*
X12524443Y3124992D01*
X12389287Y3327267D01*
X12217267Y3499287D01*
X12014992Y3634443D01*
X11790236Y3727540D01*
X11551637Y3775000D01*
X11308363Y3775000D01*
X11069764Y3727540D01*
X10845008Y3634443D01*
X10642733Y3499287D01*
X10470713Y3327267D01*
X10335557Y3124992D01*
X10242460Y2900236D01*
X10195000Y2661637D01*
X8335000Y2661637D01*
X8335000Y2690883D01*
X8268325Y3026081D01*
X8137537Y3341831D01*
X7947663Y3625998D01*
X7705998Y3867663D01*
X7424926Y4055469D01*
X6600000Y4880395D01*
X5775074Y4055469D01*
X5494002Y3867663D01*
X5252337Y3625998D01*
X5062463Y3341831D01*
X4931675Y3026081D01*
X4865000Y2690883D01*
X2660000Y2690883D01*
X2660000Y5001361D01*
X4857591Y5001361D01*
X4902511Y4662561D01*
X5012664Y4339034D01*
X5118662Y4140726D01*
X5393288Y4032893D01*
X6420395Y5060000D01*
X6406253Y5074143D01*
X6585858Y5253748D01*
X6600000Y5239605D01*
X6614143Y5253748D01*
X6793748Y5074143D01*
X6779605Y5060000D01*
X7806712Y4032893D01*
X8081338Y4140726D01*
X8125377Y4230236D01*
X10759841Y4230236D01*
X10807148Y4006652D01*
X11028516Y3905763D01*
X11265313Y3850000D01*
X11508438Y3841505D01*
X11748549Y3880605D01*
X11976418Y3965798D01*
X12052852Y4006652D01*
X12100159Y4230236D01*
X11430000Y4900395D01*
X10759841Y4230236D01*
X8125377Y4230236D01*
X8232216Y4447384D01*
X8320369Y4777585D01*
X8334843Y5001562D01*
X10191505Y5001562D01*
X10230605Y4761451D01*
X10315798Y4533582D01*
X10356652Y4457148D01*
X10580236Y4409841D01*
X11250395Y5080000D01*
X11609605Y5080000D01*
X12279764Y4409841D01*
X12503348Y4457148D01*
X12604237Y4678516D01*
X12660000Y4915313D01*
X12668495Y5158438D01*
X12629395Y5398549D01*
X12544202Y5626418D01*
X12503348Y5702852D01*
X12279764Y5750159D01*
X11609605Y5080000D01*
X11250395Y5080000D01*
X10580236Y5750159D01*
X10356652Y5702852D01*
X10255763Y5481484D01*
X10200000Y5244687D01*
X10191505Y5001562D01*
X8334843Y5001562D01*
X8342409Y5118639D01*
X8297489Y5457439D01*
X8187336Y5780966D01*
X8107802Y5929764D01*
X10759841Y5929764D01*
X11430000Y5259605D01*
X12100159Y5929764D01*
X12052852Y6153348D01*
X11831484Y6254237D01*
X11594687Y6310000D01*
X11351562Y6318495D01*
X11111451Y6279395D01*
X10883582Y6194202D01*
X10807148Y6153348D01*
X10759841Y5929764D01*
X8107802Y5929764D01*
X8081338Y5979274D01*
X8071267Y5983228D01*
X8151185Y6048815D01*
X8230537Y6145506D01*
X8289502Y6255820D01*
X8325812Y6375518D01*
X8338072Y6500000D01*
X8338072Y7741637D01*
X10195000Y7741637D01*
X10195000Y7498363D01*
X10242460Y7259764D01*
X10335557Y7035008D01*
X10470713Y6832733D01*
X10642733Y6660713D01*
X10845008Y6525557D01*
X11069764Y6432460D01*
X11308363Y6385000D01*
X11551637Y6385000D01*
X11790236Y6432460D01*
X12014992Y6525557D01*
X12217267Y6660713D01*
X12389287Y6832733D01*
X12524443Y7035008D01*
X12617540Y7259764D01*
X12665000Y7498363D01*
X12665000Y7741637D01*
X12617540Y7980236D01*
X12524443Y8204992D01*
X12389287Y8407267D01*
X12217267Y8579287D01*
X12014992Y8714443D01*
X11790236Y8807540D01*
X11551637Y8855000D01*
X11308363Y8855000D01*
X11069764Y8807540D01*
X10845008Y8714443D01*
X10642733Y8579287D01*
X10470713Y8407267D01*
X10335557Y8204992D01*
X10242460Y7980236D01*
X10195000Y7741637D01*
X8338072Y7741637D01*
X8338072Y8700000D01*
X8325812Y8824482D01*
X8289502Y8944180D01*
X8230537Y9054494D01*
X8151185Y9151185D01*
X8054494Y9230537D01*
X7944180Y9289502D01*
X7824482Y9325812D01*
X7700000Y9338072D01*
X5500000Y9338072D01*
X5375518Y9325812D01*
X5255820Y9289502D01*
X5145506Y9230537D01*
X5048815Y9151185D01*
X4969463Y9054494D01*
X4910498Y8944180D01*
X4874188Y8824482D01*
X4861928Y8700000D01*
X4861928Y6500000D01*
X4874188Y6375518D01*
X4910498Y6255820D01*
X4969463Y6145506D01*
X5048815Y6048815D01*
X5128733Y5983228D01*
X5118662Y5979274D01*
X4967784Y5672616D01*
X4879631Y5342415D01*
X4857591Y5001361D01*
X2660000Y5001361D01*
X2660000Y6532419D01*
X2656655Y6566382D01*
X2656655Y6592329D01*
X2655692Y6601493D01*
X2612182Y6989393D01*
X2599751Y7047873D01*
X2588127Y7106583D01*
X2585401Y7115386D01*
X2467377Y7487447D01*
X2443834Y7542377D01*
X2421017Y7597736D01*
X2416633Y7605842D01*
X2228589Y7947892D01*
X2194823Y7997205D01*
X2161691Y8047074D01*
X2155816Y8054174D01*
X1904916Y8353185D01*
X1862203Y8395013D01*
X1820027Y8437484D01*
X1812886Y8443308D01*
X1508685Y8687892D01*
X1458622Y8720652D01*
X1409038Y8754097D01*
X1400901Y8758423D01*
X1054988Y8939262D01*
X999553Y8961659D01*
X944381Y8984852D01*
X935559Y8987515D01*
X561109Y9097722D01*
X502379Y9108925D01*
X443750Y9120960D01*
X434579Y9121859D01*
X45853Y9157235D01*
X-13964Y9156817D01*
X-73781Y9157235D01*
X-82953Y9156335D01*
X-82955Y9156335D01*
X-471145Y9115534D01*
X-529701Y9103514D01*
X-588502Y9092298D01*
X-597323Y9089634D01*
X-970198Y8974210D01*
X-1025353Y8951025D01*
X-1080806Y8928621D01*
X-1088938Y8924296D01*
X-1088943Y8924294D01*
X-1088947Y8924291D01*
X-1432298Y8738643D01*
X-1481899Y8705187D01*
X-1531946Y8672437D01*
X-1539087Y8666613D01*
X-1839842Y8417806D01*
X-1881981Y8375371D01*
X-1924731Y8333508D01*
X-1930604Y8326407D01*
X-2177305Y8023923D01*
X-2210402Y7974107D01*
X-2244205Y7924741D01*
X-2248587Y7916635D01*
X-2431837Y7571993D01*
X-2454632Y7516687D01*
X-2478198Y7461704D01*
X-2480923Y7452901D01*
X-2593741Y7079230D01*
X-2605361Y7020542D01*
X-2617797Y6962039D01*
X-2618760Y6952874D01*
X-2656850Y6564405D01*
X-2660000Y6532418D01*
X-4861928Y6532418D01*
X-4861928Y8700000D01*
X-4874188Y8824482D01*
X-4910498Y8944180D01*
X-4969463Y9054494D01*
X-5048815Y9151185D01*
X-5145506Y9230537D01*
X-5255820Y9289502D01*
X-5375518Y9325812D01*
X-5500000Y9338072D01*
X-7700000Y9338072D01*
X-7824482Y9325812D01*
X-7944180Y9289502D01*
X-8054494Y9230537D01*
X-8151185Y9151185D01*
X-8230537Y9054494D01*
X-8289502Y8944180D01*
X-8325812Y8824482D01*
X-8338072Y8700000D01*
X-10823392Y8700000D01*
X-10845008Y8714443D01*
X-11069764Y8807540D01*
X-11308363Y8855000D01*
X-11551637Y8855000D01*
X-11790236Y8807540D01*
X-12014992Y8714443D01*
X-12217267Y8579287D01*
X-12389287Y8407267D01*
X-12524443Y8204992D01*
X-12617540Y7980236D01*
X-12665000Y7741637D01*
X-18179149Y7741637D01*
X-17849499Y8525195D01*
X-17028532Y10076563D01*
X-16073666Y11549303D01*
X-14992377Y12931889D01*
X-13793126Y14213499D01*
X-12485299Y15384105D01*
X-11079131Y16434544D01*
X-9585628Y17356596D01*
X-8016478Y18143043D01*
X-6383963Y18787731D01*
X-4700858Y19285614D01*
X-2980336Y19632796D01*
X-2580900Y19677163D01*
X-2640537Y19604494D01*
X-2699502Y19494180D01*
X-2735812Y19374482D01*
X-2748072Y19250000D01*
X-2748072Y17550000D01*
X-2735812Y17425518D01*
X-2699502Y17305820D01*
X-2640537Y17195506D01*
X-2561185Y17098815D01*
X-2464494Y17019463D01*
X-2354180Y16960498D01*
X-2234482Y16924188D01*
X-2110000Y16911928D01*
X-410000Y16911928D01*
X-285518Y16924188D01*
X-165820Y16960498D01*
X-55506Y17019463D01*
X41185Y17098815D01*
X120537Y17195506D01*
X179502Y17305820D01*
X203966Y17386466D01*
X279731Y17302412D01*
X513080Y17128359D01*
X775901Y17003175D01*
X923110Y16958524D01*
X1153000Y17079845D01*
X1153000Y18273000D01*
X1407000Y18273000D01*
X1407000Y17079845D01*
X1636890Y16958524D01*
X1784099Y17003175D01*
X2046920Y17128359D01*
X2280269Y17302412D01*
X2475178Y17518645D01*
X2624157Y17768748D01*
X2721481Y18043109D01*
X2600814Y18273000D01*
X1407000Y18273000D01*
X1153000Y18273000D01*
X1133000Y18273000D01*
X1133000Y18527000D01*
X1153000Y18527000D01*
X1153000Y18547000D01*
X1407000Y18547000D01*
X1407000Y18527000D01*
X2600814Y18527000D01*
X2721481Y18756891D01*
X2624157Y19031252D01*
X2475178Y19281355D01*
X2280269Y19497588D01*
X2046920Y19671641D01*
X1821997Y19778774D01*
X2270244Y19748979D01*
G37*
%TD.AperFunction*%
%TD*%
M02*
