%TF.GenerationSoftware,KiCad,Pcbnew,(5.1.9-0-10_14)*%
%TF.CreationDate,2024-01-23T16:21:58+01:00*%
%TF.ProjectId,mains-psu,6d61696e-732d-4707-9375-2e6b69636164,rev?*%
%TF.SameCoordinates,Original*%
%TF.FileFunction,Copper,L2,Bot*%
%TF.FilePolarity,Positive*%
%FSLAX46Y46*%
G04 Gerber Fmt 4.6, Leading zero omitted, Abs format (unit mm)*
G04 Created by KiCad (PCBNEW (5.1.9-0-10_14)) date 2024-01-23 16:21:58*
%MOMM*%
%LPD*%
G01*
G04 APERTURE LIST*
%TA.AperFunction,ComponentPad*%
%ADD10C,1.600000*%
%TD*%
%TA.AperFunction,ComponentPad*%
%ADD11R,1.600000X1.600000*%
%TD*%
%TA.AperFunction,ComponentPad*%
%ADD12C,2.000000*%
%TD*%
%TA.AperFunction,ComponentPad*%
%ADD13C,1.524000*%
%TD*%
%TA.AperFunction,ComponentPad*%
%ADD14O,1.700000X1.700000*%
%TD*%
%TA.AperFunction,ComponentPad*%
%ADD15R,1.700000X1.700000*%
%TD*%
%TA.AperFunction,Conductor*%
%ADD16C,1.000000*%
%TD*%
%TA.AperFunction,Conductor*%
%ADD17C,0.254000*%
%TD*%
%TA.AperFunction,Conductor*%
%ADD18C,0.100000*%
%TD*%
G04 APERTURE END LIST*
%TO.P,J2,1*%
%TO.N,NEUT*%
%TA.AperFunction,SMDPad,CuDef*%
G36*
G01*
X-2100000Y-9512500D02*
X-2100000Y-10187500D01*
G75*
G02*
X-2437500Y-10525000I-337500J0D01*
G01*
X-4162500Y-10525000D01*
G75*
G02*
X-4500000Y-10187500I0J337500D01*
G01*
X-4500000Y-9512500D01*
G75*
G02*
X-4162500Y-9175000I337500J0D01*
G01*
X-2437500Y-9175000D01*
G75*
G02*
X-2100000Y-9512500I0J-337500D01*
G01*
G37*
%TD.AperFunction*%
%TA.AperFunction,SMDPad,CuDef*%
G36*
G01*
X-2100000Y-17612500D02*
X-2100000Y-18287500D01*
G75*
G02*
X-2437500Y-18625000I-337500J0D01*
G01*
X-4162500Y-18625000D01*
G75*
G02*
X-4500000Y-18287500I0J337500D01*
G01*
X-4500000Y-17612500D01*
G75*
G02*
X-4162500Y-17275000I337500J0D01*
G01*
X-2437500Y-17275000D01*
G75*
G02*
X-2100000Y-17612500I0J-337500D01*
G01*
G37*
%TD.AperFunction*%
%TD*%
%TO.P,J1,1*%
%TO.N,LINE*%
%TA.AperFunction,SMDPad,CuDef*%
G36*
G01*
X900000Y-18287500D02*
X900000Y-17612500D01*
G75*
G02*
X1237500Y-17275000I337500J0D01*
G01*
X2962500Y-17275000D01*
G75*
G02*
X3300000Y-17612500I0J-337500D01*
G01*
X3300000Y-18287500D01*
G75*
G02*
X2962500Y-18625000I-337500J0D01*
G01*
X1237500Y-18625000D01*
G75*
G02*
X900000Y-18287500I0J337500D01*
G01*
G37*
%TD.AperFunction*%
%TA.AperFunction,SMDPad,CuDef*%
G36*
G01*
X900000Y-10187500D02*
X900000Y-9512500D01*
G75*
G02*
X1237500Y-9175000I337500J0D01*
G01*
X2962500Y-9175000D01*
G75*
G02*
X3300000Y-9512500I0J-337500D01*
G01*
X3300000Y-10187500D01*
G75*
G02*
X2962500Y-10525000I-337500J0D01*
G01*
X1237500Y-10525000D01*
G75*
G02*
X900000Y-10187500I0J337500D01*
G01*
G37*
%TD.AperFunction*%
%TD*%
D10*
%TO.P,C2,2*%
%TO.N,GND*%
X16300000Y9000000D03*
D11*
%TO.P,C2,1*%
%TO.N,+3V3*%
X14300000Y9000000D03*
%TD*%
D12*
%TO.P,U1,2*%
%TO.N,Net-(F1-Pad1)*%
X7500000Y-3700000D03*
%TO.P,U1,1*%
%TO.N,NEUT*%
X-7500000Y-3700000D03*
%TO.P,U1,4*%
%TO.N,GND*%
X-2500000Y11300000D03*
%TO.P,U1,3*%
%TO.N,+3V3*%
X2500000Y11300000D03*
%TD*%
D13*
%TO.P,RV1,2*%
%TO.N,NEUT*%
X-10048350Y-11951650D03*
%TO.P,RV1,1*%
%TO.N,Net-(F1-Pad1)*%
X-15351650Y-6648350D03*
%TD*%
%TO.P,F1,2*%
%TO.N,LINE*%
X7503949Y-14896051D03*
%TO.P,F1,1*%
%TO.N,Net-(F1-Pad1)*%
X11096051Y-11303949D03*
%TD*%
D14*
%TO.P,J3,2*%
%TO.N,GND*%
X1270000Y18400000D03*
D15*
%TO.P,J3,1*%
%TO.N,+3V3*%
X-1270000Y18400000D03*
%TD*%
D10*
%TO.P,C1,2*%
%TO.N,GND*%
X-16300000Y9000000D03*
D11*
%TO.P,C1,1*%
%TO.N,+3V3*%
X-14300000Y9000000D03*
%TD*%
D16*
%TO.N,NEUT*%
X-9696700Y-11600000D02*
X-10048350Y-11951650D01*
X-10048350Y-6248350D02*
X-7500000Y-3700000D01*
X-10048350Y-11951650D02*
X-10048350Y-6248350D01*
X-7946700Y-9850000D02*
X-10048350Y-11951650D01*
X-3300000Y-9850000D02*
X-3300000Y-8300000D01*
X-6396700Y-8300000D02*
X-7946700Y-9850000D01*
X-3300000Y-8300000D02*
X-6396700Y-8300000D01*
%TO.N,LINE*%
X7503949Y-11903949D02*
X7503949Y-14896051D01*
X5400000Y-8200000D02*
X7503949Y-10303949D01*
X7503949Y-10303949D02*
X7503949Y-11903949D01*
X2100000Y-8200000D02*
X5400000Y-8200000D01*
X2100000Y-9850000D02*
X2100000Y-8200000D01*
%TO.N,Net-(F1-Pad1)*%
X11096051Y-7296051D02*
X7500000Y-3700000D01*
X11096051Y-11303949D02*
X11096051Y-7296051D01*
X-9000000Y-100000D02*
X-15351650Y-6648350D01*
X3900000Y-100000D02*
X-9000000Y-100000D01*
X7500000Y-3700000D02*
X3900000Y-100000D01*
%TD*%
D17*
%TO.N,GND*%
X2190890Y19724796D02*
X3925596Y19453978D01*
X5629579Y19030907D01*
X7289503Y18458892D01*
X8892377Y17742412D01*
X10425656Y16887074D01*
X11877340Y15899571D01*
X13236067Y14787633D01*
X14491205Y13559961D01*
X15632929Y12226165D01*
X16652304Y10796682D01*
X16957933Y10276219D01*
X16786004Y10357571D01*
X16511816Y10426300D01*
X16229488Y10440217D01*
X15949870Y10398787D01*
X15683708Y10303603D01*
X15561691Y10238384D01*
X15551185Y10251185D01*
X15454494Y10330537D01*
X15344180Y10389502D01*
X15224482Y10425812D01*
X15100000Y10438072D01*
X13500000Y10438072D01*
X13375518Y10425812D01*
X13255820Y10389502D01*
X13145506Y10330537D01*
X13048815Y10251185D01*
X12969463Y10154494D01*
X12910498Y10044180D01*
X12874188Y9924482D01*
X12861928Y9800000D01*
X12861928Y8200000D01*
X12874188Y8075518D01*
X12910498Y7955820D01*
X12969463Y7845506D01*
X13048815Y7748815D01*
X13145506Y7669463D01*
X13255820Y7610498D01*
X13375518Y7574188D01*
X13500000Y7561928D01*
X15100000Y7561928D01*
X15224482Y7574188D01*
X15344180Y7610498D01*
X15454494Y7669463D01*
X15551185Y7748815D01*
X15561807Y7761758D01*
X15813996Y7642429D01*
X16088184Y7573700D01*
X16370512Y7559783D01*
X16650130Y7601213D01*
X16916292Y7696397D01*
X17041514Y7763329D01*
X17113097Y8007298D01*
X16300000Y8820395D01*
X16285858Y8806253D01*
X16106253Y8985858D01*
X16120395Y9000000D01*
X16106253Y9014143D01*
X16285858Y9193748D01*
X16300000Y9179605D01*
X16314143Y9193748D01*
X16493748Y9014143D01*
X16479605Y9000000D01*
X17292702Y8186903D01*
X17536671Y8258486D01*
X17657571Y8513996D01*
X17726300Y8788184D01*
X17730951Y8882544D01*
X18293116Y7696068D01*
X18901711Y6049205D01*
X19362375Y4354998D01*
X19671502Y2626707D01*
X19826672Y877859D01*
X19826672Y-877859D01*
X19671502Y-2626707D01*
X19362375Y-4354998D01*
X18901711Y-6049205D01*
X18293116Y-7696068D01*
X17541353Y-9282700D01*
X16652304Y-10796682D01*
X15632929Y-12226165D01*
X14491205Y-13559961D01*
X13236067Y-14787633D01*
X11877340Y-15899571D01*
X10425656Y-16887074D01*
X8892377Y-17742412D01*
X7289503Y-18458892D01*
X5629579Y-19030907D01*
X5284713Y-19116532D01*
X5389739Y-18770308D01*
X5437291Y-18287500D01*
X5437291Y-17612500D01*
X5389739Y-17129692D01*
X5275573Y-16753338D01*
X5662319Y-17140084D01*
X6135494Y-17456250D01*
X6661259Y-17674029D01*
X7219407Y-17785051D01*
X7788491Y-17785051D01*
X8346639Y-17674029D01*
X8872404Y-17456250D01*
X9345579Y-17140084D01*
X9747982Y-16737681D01*
X10064148Y-16264506D01*
X10281927Y-15738741D01*
X10392949Y-15180593D01*
X10392949Y-14611509D01*
X10289020Y-14089020D01*
X10811509Y-14192949D01*
X11380593Y-14192949D01*
X11938741Y-14081927D01*
X12464506Y-13864148D01*
X12937681Y-13547982D01*
X13340084Y-13145579D01*
X13656250Y-12672404D01*
X13874029Y-12146639D01*
X13985051Y-11588491D01*
X13985051Y-11019407D01*
X13874029Y-10461259D01*
X13723051Y-10096766D01*
X13723051Y-7425095D01*
X13735761Y-7296050D01*
X13715000Y-7085261D01*
X13685040Y-6781069D01*
X13534825Y-6285878D01*
X13290890Y-5829507D01*
X12962608Y-5429494D01*
X12862369Y-5347230D01*
X10557436Y-3042298D01*
X10506831Y-2787888D01*
X10271111Y-2218810D01*
X9928899Y-1706654D01*
X9493346Y-1271101D01*
X8981190Y-928889D01*
X8412112Y-693169D01*
X8157702Y-642564D01*
X7301461Y213677D01*
X14830497Y213677D01*
X14830497Y-213677D01*
X14913870Y-632821D01*
X15077412Y-1027645D01*
X15314837Y-1382977D01*
X15617023Y-1685163D01*
X15972355Y-1922588D01*
X16367179Y-2086130D01*
X16786323Y-2169503D01*
X17213677Y-2169503D01*
X17632821Y-2086130D01*
X18027645Y-1922588D01*
X18382977Y-1685163D01*
X18685163Y-1382977D01*
X18922588Y-1027645D01*
X19086130Y-632821D01*
X19169503Y-213677D01*
X19169503Y213677D01*
X19086130Y632821D01*
X18922588Y1027645D01*
X18685163Y1382977D01*
X18382977Y1685163D01*
X18027645Y1922588D01*
X17632821Y2086130D01*
X17213677Y2169503D01*
X16786323Y2169503D01*
X16367179Y2086130D01*
X15972355Y1922588D01*
X15617023Y1685163D01*
X15314837Y1382977D01*
X15077412Y1027645D01*
X14913870Y632821D01*
X14830497Y213677D01*
X7301461Y213677D01*
X5848825Y1666313D01*
X5766557Y1766557D01*
X5366544Y2094839D01*
X4910173Y2338774D01*
X4414982Y2488989D01*
X4029048Y2527000D01*
X4029045Y2527000D01*
X3900000Y2539710D01*
X3770955Y2527000D01*
X-8891026Y2527000D01*
X-9040246Y2539403D01*
X-9277399Y2512389D01*
X-9514982Y2488989D01*
X-9534321Y2483123D01*
X-9554395Y2480836D01*
X-9781738Y2408069D01*
X-10010173Y2338774D01*
X-10027992Y2329249D01*
X-10047239Y2323089D01*
X-10256025Y2207364D01*
X-10466544Y2094839D01*
X-10482165Y2082019D01*
X-10499837Y2072224D01*
X-10682032Y1917993D01*
X-10866557Y1766557D01*
X-10961549Y1650809D01*
X-16399183Y-3955221D01*
X-16720105Y-4088151D01*
X-17193280Y-4404317D01*
X-17595683Y-4806720D01*
X-17911849Y-5279895D01*
X-18129628Y-5805660D01*
X-18240650Y-6363808D01*
X-18240650Y-6932892D01*
X-18129628Y-7491040D01*
X-17911849Y-8016805D01*
X-17595683Y-8489980D01*
X-17193280Y-8892383D01*
X-16720105Y-9208549D01*
X-16194340Y-9426328D01*
X-15636192Y-9537350D01*
X-15067108Y-9537350D01*
X-14508960Y-9426328D01*
X-13983195Y-9208549D01*
X-13510020Y-8892383D01*
X-13107617Y-8489980D01*
X-12791451Y-8016805D01*
X-12675349Y-7736511D01*
X-12675350Y-10744466D01*
X-12826328Y-11108960D01*
X-12937350Y-11667108D01*
X-12937350Y-12236192D01*
X-12826328Y-12794340D01*
X-12608549Y-13320105D01*
X-12292383Y-13793280D01*
X-11889980Y-14195683D01*
X-11416805Y-14511849D01*
X-10891040Y-14729628D01*
X-10332892Y-14840650D01*
X-9763808Y-14840650D01*
X-9205660Y-14729628D01*
X-8679895Y-14511849D01*
X-8206720Y-14195683D01*
X-7804317Y-13793280D01*
X-7488151Y-13320105D01*
X-7337173Y-12955611D01*
X-6095701Y-11714139D01*
X-5992847Y-11839467D01*
X-6006356Y-11859799D01*
X-6041954Y-11911789D01*
X-6046567Y-11920321D01*
X-6046570Y-11920325D01*
X-6046570Y-11920326D01*
X-6138195Y-12092648D01*
X-6162191Y-12150866D01*
X-6187013Y-12208783D01*
X-6189883Y-12218053D01*
X-6246292Y-12404889D01*
X-6258517Y-12466631D01*
X-6271623Y-12528295D01*
X-6272638Y-12537946D01*
X-6291683Y-12732179D01*
X-6291683Y-12732188D01*
X-6295000Y-12765866D01*
X-6294999Y-15034135D01*
X-6292072Y-15063850D01*
X-6292115Y-15069972D01*
X-6291169Y-15079630D01*
X-6270768Y-15273727D01*
X-6258095Y-15335461D01*
X-6246298Y-15397304D01*
X-6243494Y-15406594D01*
X-6185782Y-15593032D01*
X-6161372Y-15651101D01*
X-6137775Y-15709505D01*
X-6133219Y-15718074D01*
X-6040394Y-15889750D01*
X-6005167Y-15941977D01*
X-5992945Y-15960654D01*
X-6220214Y-16237580D01*
X-6448909Y-16665438D01*
X-6589739Y-17129692D01*
X-6637291Y-17612500D01*
X-6637291Y-18287500D01*
X-6595474Y-18712083D01*
X-8098867Y-18118386D01*
X-9668480Y-17331707D01*
X-11162423Y-16409384D01*
X-12569006Y-15358635D01*
X-13877219Y-14187684D01*
X-15076824Y-12905695D01*
X-16158432Y-11522701D01*
X-17113579Y-10049527D01*
X-17934788Y-8497701D01*
X-18615634Y-6879370D01*
X-19150787Y-5207198D01*
X-19536060Y-3494273D01*
X-19768436Y-1754000D01*
X-19846097Y0D01*
X-19836637Y213677D01*
X-19169503Y213677D01*
X-19169503Y-213677D01*
X-19086130Y-632821D01*
X-18922588Y-1027645D01*
X-18685163Y-1382977D01*
X-18382977Y-1685163D01*
X-18027645Y-1922588D01*
X-17632821Y-2086130D01*
X-17213677Y-2169503D01*
X-16786323Y-2169503D01*
X-16367179Y-2086130D01*
X-15972355Y-1922588D01*
X-15617023Y-1685163D01*
X-15314837Y-1382977D01*
X-15077412Y-1027645D01*
X-14913870Y-632821D01*
X-14830497Y-213677D01*
X-14830497Y213677D01*
X-14913870Y632821D01*
X-15077412Y1027645D01*
X-15314837Y1382977D01*
X-15617023Y1685163D01*
X-15972355Y1922588D01*
X-16367179Y2086130D01*
X-16786323Y2169503D01*
X-17213677Y2169503D01*
X-17632821Y2086130D01*
X-18027645Y1922588D01*
X-18382977Y1685163D01*
X-18685163Y1382977D01*
X-18922588Y1027645D01*
X-19086130Y632821D01*
X-19169503Y213677D01*
X-19836637Y213677D01*
X-19768436Y1754000D01*
X-19536060Y3494273D01*
X-19150787Y5207198D01*
X-18615634Y6879370D01*
X-17934788Y8497701D01*
X-17732796Y8879402D01*
X-17698787Y8649870D01*
X-17603603Y8383708D01*
X-17536671Y8258486D01*
X-17292702Y8186903D01*
X-16479605Y9000000D01*
X-16493748Y9014143D01*
X-16314143Y9193748D01*
X-16300000Y9179605D01*
X-16285858Y9193748D01*
X-16106253Y9014143D01*
X-16120395Y9000000D01*
X-16106253Y8985858D01*
X-16285858Y8806253D01*
X-16300000Y8820395D01*
X-17113097Y8007298D01*
X-17041514Y7763329D01*
X-16786004Y7642429D01*
X-16511816Y7573700D01*
X-16229488Y7559783D01*
X-15949870Y7601213D01*
X-15683708Y7696397D01*
X-15561691Y7761616D01*
X-15551185Y7748815D01*
X-15454494Y7669463D01*
X-15344180Y7610498D01*
X-15224482Y7574188D01*
X-15100000Y7561928D01*
X-13500000Y7561928D01*
X-13375518Y7574188D01*
X-13255820Y7610498D01*
X-13145506Y7669463D01*
X-13048815Y7748815D01*
X-12969463Y7845506D01*
X-12910498Y7955820D01*
X-12874188Y8075518D01*
X-12861928Y8200000D01*
X-12861928Y9800000D01*
X-12874188Y9924482D01*
X-12910498Y10044180D01*
X-12969463Y10154494D01*
X-12977746Y10164587D01*
X-3455808Y10164587D01*
X-3360044Y9900186D01*
X-3070429Y9759296D01*
X-2758892Y9677616D01*
X-2437405Y9658282D01*
X-2118325Y9702039D01*
X-1813912Y9807205D01*
X-1639956Y9900186D01*
X-1544192Y10164587D01*
X-2500000Y11120395D01*
X-3455808Y10164587D01*
X-12977746Y10164587D01*
X-13048815Y10251185D01*
X-13145506Y10330537D01*
X-13255820Y10389502D01*
X-13375518Y10425812D01*
X-13500000Y10438072D01*
X-15100000Y10438072D01*
X-15224482Y10425812D01*
X-15344180Y10389502D01*
X-15454494Y10330537D01*
X-15551185Y10251185D01*
X-15561807Y10238242D01*
X-15813996Y10357571D01*
X-16088184Y10426300D01*
X-16370512Y10440217D01*
X-16650130Y10398787D01*
X-16916292Y10303603D01*
X-16966111Y10276974D01*
X-16343407Y11237405D01*
X-4141718Y11237405D01*
X-4097961Y10918325D01*
X-3992795Y10613912D01*
X-3899814Y10439956D01*
X-3635413Y10344192D01*
X-2679605Y11300000D01*
X-2320395Y11300000D01*
X-1364587Y10344192D01*
X-1100186Y10439956D01*
X-959296Y10729571D01*
X-877616Y11041108D01*
X-858282Y11362595D01*
X-871781Y11461033D01*
X865000Y11461033D01*
X865000Y11138967D01*
X927832Y10823088D01*
X1051082Y10525537D01*
X1230013Y10257748D01*
X1457748Y10030013D01*
X1725537Y9851082D01*
X2023088Y9727832D01*
X2338967Y9665000D01*
X2661033Y9665000D01*
X2976912Y9727832D01*
X3274463Y9851082D01*
X3542252Y10030013D01*
X3769987Y10257748D01*
X3948918Y10525537D01*
X4072168Y10823088D01*
X4135000Y11138967D01*
X4135000Y11461033D01*
X4072168Y11776912D01*
X3948918Y12074463D01*
X3769987Y12342252D01*
X3542252Y12569987D01*
X3274463Y12748918D01*
X2976912Y12872168D01*
X2661033Y12935000D01*
X2338967Y12935000D01*
X2023088Y12872168D01*
X1725537Y12748918D01*
X1457748Y12569987D01*
X1230013Y12342252D01*
X1051082Y12074463D01*
X927832Y11776912D01*
X865000Y11461033D01*
X-871781Y11461033D01*
X-902039Y11681675D01*
X-1007205Y11986088D01*
X-1100186Y12160044D01*
X-1364587Y12255808D01*
X-2320395Y11300000D01*
X-2679605Y11300000D01*
X-3635413Y12255808D01*
X-3899814Y12160044D01*
X-4040704Y11870429D01*
X-4122384Y11558892D01*
X-4141718Y11237405D01*
X-16343407Y11237405D01*
X-16158432Y11522701D01*
X-15444621Y12435413D01*
X-3455808Y12435413D01*
X-2500000Y11479605D01*
X-1544192Y12435413D01*
X-1639956Y12699814D01*
X-1929571Y12840704D01*
X-2241108Y12922384D01*
X-2562595Y12941718D01*
X-2881675Y12897961D01*
X-3186088Y12792795D01*
X-3360044Y12699814D01*
X-3455808Y12435413D01*
X-15444621Y12435413D01*
X-15076824Y12905695D01*
X-13877219Y14187684D01*
X-12569006Y15358635D01*
X-11162423Y16409384D01*
X-9668480Y17331707D01*
X-8098867Y18118386D01*
X-6465870Y18763264D01*
X-4782268Y19261295D01*
X-3061239Y19608579D01*
X-2605656Y19659182D01*
X-2650537Y19604494D01*
X-2709502Y19494180D01*
X-2745812Y19374482D01*
X-2758072Y19250000D01*
X-2758072Y17550000D01*
X-2745812Y17425518D01*
X-2709502Y17305820D01*
X-2650537Y17195506D01*
X-2571185Y17098815D01*
X-2474494Y17019463D01*
X-2364180Y16960498D01*
X-2244482Y16924188D01*
X-2120000Y16911928D01*
X-420000Y16911928D01*
X-295518Y16924188D01*
X-175820Y16960498D01*
X-65506Y17019463D01*
X31185Y17098815D01*
X110537Y17195506D01*
X169502Y17305820D01*
X193966Y17386466D01*
X269731Y17302412D01*
X503080Y17128359D01*
X765901Y17003175D01*
X913110Y16958524D01*
X1143000Y17079845D01*
X1143000Y18273000D01*
X1397000Y18273000D01*
X1397000Y17079845D01*
X1626890Y16958524D01*
X1774099Y17003175D01*
X2036920Y17128359D01*
X2270269Y17302412D01*
X2465178Y17518645D01*
X2614157Y17768748D01*
X2711481Y18043109D01*
X2590814Y18273000D01*
X1397000Y18273000D01*
X1143000Y18273000D01*
X1123000Y18273000D01*
X1123000Y18527000D01*
X1143000Y18527000D01*
X1143000Y18547000D01*
X1397000Y18547000D01*
X1397000Y18527000D01*
X2590814Y18527000D01*
X2711481Y18756891D01*
X2614157Y19031252D01*
X2465178Y19281355D01*
X2270269Y19497588D01*
X2036920Y19671641D01*
X1882252Y19745311D01*
X2190890Y19724796D01*
%TA.AperFunction,Conductor*%
D18*
G36*
X2190890Y19724796D02*
G01*
X3925596Y19453978D01*
X5629579Y19030907D01*
X7289503Y18458892D01*
X8892377Y17742412D01*
X10425656Y16887074D01*
X11877340Y15899571D01*
X13236067Y14787633D01*
X14491205Y13559961D01*
X15632929Y12226165D01*
X16652304Y10796682D01*
X16957933Y10276219D01*
X16786004Y10357571D01*
X16511816Y10426300D01*
X16229488Y10440217D01*
X15949870Y10398787D01*
X15683708Y10303603D01*
X15561691Y10238384D01*
X15551185Y10251185D01*
X15454494Y10330537D01*
X15344180Y10389502D01*
X15224482Y10425812D01*
X15100000Y10438072D01*
X13500000Y10438072D01*
X13375518Y10425812D01*
X13255820Y10389502D01*
X13145506Y10330537D01*
X13048815Y10251185D01*
X12969463Y10154494D01*
X12910498Y10044180D01*
X12874188Y9924482D01*
X12861928Y9800000D01*
X12861928Y8200000D01*
X12874188Y8075518D01*
X12910498Y7955820D01*
X12969463Y7845506D01*
X13048815Y7748815D01*
X13145506Y7669463D01*
X13255820Y7610498D01*
X13375518Y7574188D01*
X13500000Y7561928D01*
X15100000Y7561928D01*
X15224482Y7574188D01*
X15344180Y7610498D01*
X15454494Y7669463D01*
X15551185Y7748815D01*
X15561807Y7761758D01*
X15813996Y7642429D01*
X16088184Y7573700D01*
X16370512Y7559783D01*
X16650130Y7601213D01*
X16916292Y7696397D01*
X17041514Y7763329D01*
X17113097Y8007298D01*
X16300000Y8820395D01*
X16285858Y8806253D01*
X16106253Y8985858D01*
X16120395Y9000000D01*
X16106253Y9014143D01*
X16285858Y9193748D01*
X16300000Y9179605D01*
X16314143Y9193748D01*
X16493748Y9014143D01*
X16479605Y9000000D01*
X17292702Y8186903D01*
X17536671Y8258486D01*
X17657571Y8513996D01*
X17726300Y8788184D01*
X17730951Y8882544D01*
X18293116Y7696068D01*
X18901711Y6049205D01*
X19362375Y4354998D01*
X19671502Y2626707D01*
X19826672Y877859D01*
X19826672Y-877859D01*
X19671502Y-2626707D01*
X19362375Y-4354998D01*
X18901711Y-6049205D01*
X18293116Y-7696068D01*
X17541353Y-9282700D01*
X16652304Y-10796682D01*
X15632929Y-12226165D01*
X14491205Y-13559961D01*
X13236067Y-14787633D01*
X11877340Y-15899571D01*
X10425656Y-16887074D01*
X8892377Y-17742412D01*
X7289503Y-18458892D01*
X5629579Y-19030907D01*
X5284713Y-19116532D01*
X5389739Y-18770308D01*
X5437291Y-18287500D01*
X5437291Y-17612500D01*
X5389739Y-17129692D01*
X5275573Y-16753338D01*
X5662319Y-17140084D01*
X6135494Y-17456250D01*
X6661259Y-17674029D01*
X7219407Y-17785051D01*
X7788491Y-17785051D01*
X8346639Y-17674029D01*
X8872404Y-17456250D01*
X9345579Y-17140084D01*
X9747982Y-16737681D01*
X10064148Y-16264506D01*
X10281927Y-15738741D01*
X10392949Y-15180593D01*
X10392949Y-14611509D01*
X10289020Y-14089020D01*
X10811509Y-14192949D01*
X11380593Y-14192949D01*
X11938741Y-14081927D01*
X12464506Y-13864148D01*
X12937681Y-13547982D01*
X13340084Y-13145579D01*
X13656250Y-12672404D01*
X13874029Y-12146639D01*
X13985051Y-11588491D01*
X13985051Y-11019407D01*
X13874029Y-10461259D01*
X13723051Y-10096766D01*
X13723051Y-7425095D01*
X13735761Y-7296050D01*
X13715000Y-7085261D01*
X13685040Y-6781069D01*
X13534825Y-6285878D01*
X13290890Y-5829507D01*
X12962608Y-5429494D01*
X12862369Y-5347230D01*
X10557436Y-3042298D01*
X10506831Y-2787888D01*
X10271111Y-2218810D01*
X9928899Y-1706654D01*
X9493346Y-1271101D01*
X8981190Y-928889D01*
X8412112Y-693169D01*
X8157702Y-642564D01*
X7301461Y213677D01*
X14830497Y213677D01*
X14830497Y-213677D01*
X14913870Y-632821D01*
X15077412Y-1027645D01*
X15314837Y-1382977D01*
X15617023Y-1685163D01*
X15972355Y-1922588D01*
X16367179Y-2086130D01*
X16786323Y-2169503D01*
X17213677Y-2169503D01*
X17632821Y-2086130D01*
X18027645Y-1922588D01*
X18382977Y-1685163D01*
X18685163Y-1382977D01*
X18922588Y-1027645D01*
X19086130Y-632821D01*
X19169503Y-213677D01*
X19169503Y213677D01*
X19086130Y632821D01*
X18922588Y1027645D01*
X18685163Y1382977D01*
X18382977Y1685163D01*
X18027645Y1922588D01*
X17632821Y2086130D01*
X17213677Y2169503D01*
X16786323Y2169503D01*
X16367179Y2086130D01*
X15972355Y1922588D01*
X15617023Y1685163D01*
X15314837Y1382977D01*
X15077412Y1027645D01*
X14913870Y632821D01*
X14830497Y213677D01*
X7301461Y213677D01*
X5848825Y1666313D01*
X5766557Y1766557D01*
X5366544Y2094839D01*
X4910173Y2338774D01*
X4414982Y2488989D01*
X4029048Y2527000D01*
X4029045Y2527000D01*
X3900000Y2539710D01*
X3770955Y2527000D01*
X-8891026Y2527000D01*
X-9040246Y2539403D01*
X-9277399Y2512389D01*
X-9514982Y2488989D01*
X-9534321Y2483123D01*
X-9554395Y2480836D01*
X-9781738Y2408069D01*
X-10010173Y2338774D01*
X-10027992Y2329249D01*
X-10047239Y2323089D01*
X-10256025Y2207364D01*
X-10466544Y2094839D01*
X-10482165Y2082019D01*
X-10499837Y2072224D01*
X-10682032Y1917993D01*
X-10866557Y1766557D01*
X-10961549Y1650809D01*
X-16399183Y-3955221D01*
X-16720105Y-4088151D01*
X-17193280Y-4404317D01*
X-17595683Y-4806720D01*
X-17911849Y-5279895D01*
X-18129628Y-5805660D01*
X-18240650Y-6363808D01*
X-18240650Y-6932892D01*
X-18129628Y-7491040D01*
X-17911849Y-8016805D01*
X-17595683Y-8489980D01*
X-17193280Y-8892383D01*
X-16720105Y-9208549D01*
X-16194340Y-9426328D01*
X-15636192Y-9537350D01*
X-15067108Y-9537350D01*
X-14508960Y-9426328D01*
X-13983195Y-9208549D01*
X-13510020Y-8892383D01*
X-13107617Y-8489980D01*
X-12791451Y-8016805D01*
X-12675349Y-7736511D01*
X-12675350Y-10744466D01*
X-12826328Y-11108960D01*
X-12937350Y-11667108D01*
X-12937350Y-12236192D01*
X-12826328Y-12794340D01*
X-12608549Y-13320105D01*
X-12292383Y-13793280D01*
X-11889980Y-14195683D01*
X-11416805Y-14511849D01*
X-10891040Y-14729628D01*
X-10332892Y-14840650D01*
X-9763808Y-14840650D01*
X-9205660Y-14729628D01*
X-8679895Y-14511849D01*
X-8206720Y-14195683D01*
X-7804317Y-13793280D01*
X-7488151Y-13320105D01*
X-7337173Y-12955611D01*
X-6095701Y-11714139D01*
X-5992847Y-11839467D01*
X-6006356Y-11859799D01*
X-6041954Y-11911789D01*
X-6046567Y-11920321D01*
X-6046570Y-11920325D01*
X-6046570Y-11920326D01*
X-6138195Y-12092648D01*
X-6162191Y-12150866D01*
X-6187013Y-12208783D01*
X-6189883Y-12218053D01*
X-6246292Y-12404889D01*
X-6258517Y-12466631D01*
X-6271623Y-12528295D01*
X-6272638Y-12537946D01*
X-6291683Y-12732179D01*
X-6291683Y-12732188D01*
X-6295000Y-12765866D01*
X-6294999Y-15034135D01*
X-6292072Y-15063850D01*
X-6292115Y-15069972D01*
X-6291169Y-15079630D01*
X-6270768Y-15273727D01*
X-6258095Y-15335461D01*
X-6246298Y-15397304D01*
X-6243494Y-15406594D01*
X-6185782Y-15593032D01*
X-6161372Y-15651101D01*
X-6137775Y-15709505D01*
X-6133219Y-15718074D01*
X-6040394Y-15889750D01*
X-6005167Y-15941977D01*
X-5992945Y-15960654D01*
X-6220214Y-16237580D01*
X-6448909Y-16665438D01*
X-6589739Y-17129692D01*
X-6637291Y-17612500D01*
X-6637291Y-18287500D01*
X-6595474Y-18712083D01*
X-8098867Y-18118386D01*
X-9668480Y-17331707D01*
X-11162423Y-16409384D01*
X-12569006Y-15358635D01*
X-13877219Y-14187684D01*
X-15076824Y-12905695D01*
X-16158432Y-11522701D01*
X-17113579Y-10049527D01*
X-17934788Y-8497701D01*
X-18615634Y-6879370D01*
X-19150787Y-5207198D01*
X-19536060Y-3494273D01*
X-19768436Y-1754000D01*
X-19846097Y0D01*
X-19836637Y213677D01*
X-19169503Y213677D01*
X-19169503Y-213677D01*
X-19086130Y-632821D01*
X-18922588Y-1027645D01*
X-18685163Y-1382977D01*
X-18382977Y-1685163D01*
X-18027645Y-1922588D01*
X-17632821Y-2086130D01*
X-17213677Y-2169503D01*
X-16786323Y-2169503D01*
X-16367179Y-2086130D01*
X-15972355Y-1922588D01*
X-15617023Y-1685163D01*
X-15314837Y-1382977D01*
X-15077412Y-1027645D01*
X-14913870Y-632821D01*
X-14830497Y-213677D01*
X-14830497Y213677D01*
X-14913870Y632821D01*
X-15077412Y1027645D01*
X-15314837Y1382977D01*
X-15617023Y1685163D01*
X-15972355Y1922588D01*
X-16367179Y2086130D01*
X-16786323Y2169503D01*
X-17213677Y2169503D01*
X-17632821Y2086130D01*
X-18027645Y1922588D01*
X-18382977Y1685163D01*
X-18685163Y1382977D01*
X-18922588Y1027645D01*
X-19086130Y632821D01*
X-19169503Y213677D01*
X-19836637Y213677D01*
X-19768436Y1754000D01*
X-19536060Y3494273D01*
X-19150787Y5207198D01*
X-18615634Y6879370D01*
X-17934788Y8497701D01*
X-17732796Y8879402D01*
X-17698787Y8649870D01*
X-17603603Y8383708D01*
X-17536671Y8258486D01*
X-17292702Y8186903D01*
X-16479605Y9000000D01*
X-16493748Y9014143D01*
X-16314143Y9193748D01*
X-16300000Y9179605D01*
X-16285858Y9193748D01*
X-16106253Y9014143D01*
X-16120395Y9000000D01*
X-16106253Y8985858D01*
X-16285858Y8806253D01*
X-16300000Y8820395D01*
X-17113097Y8007298D01*
X-17041514Y7763329D01*
X-16786004Y7642429D01*
X-16511816Y7573700D01*
X-16229488Y7559783D01*
X-15949870Y7601213D01*
X-15683708Y7696397D01*
X-15561691Y7761616D01*
X-15551185Y7748815D01*
X-15454494Y7669463D01*
X-15344180Y7610498D01*
X-15224482Y7574188D01*
X-15100000Y7561928D01*
X-13500000Y7561928D01*
X-13375518Y7574188D01*
X-13255820Y7610498D01*
X-13145506Y7669463D01*
X-13048815Y7748815D01*
X-12969463Y7845506D01*
X-12910498Y7955820D01*
X-12874188Y8075518D01*
X-12861928Y8200000D01*
X-12861928Y9800000D01*
X-12874188Y9924482D01*
X-12910498Y10044180D01*
X-12969463Y10154494D01*
X-12977746Y10164587D01*
X-3455808Y10164587D01*
X-3360044Y9900186D01*
X-3070429Y9759296D01*
X-2758892Y9677616D01*
X-2437405Y9658282D01*
X-2118325Y9702039D01*
X-1813912Y9807205D01*
X-1639956Y9900186D01*
X-1544192Y10164587D01*
X-2500000Y11120395D01*
X-3455808Y10164587D01*
X-12977746Y10164587D01*
X-13048815Y10251185D01*
X-13145506Y10330537D01*
X-13255820Y10389502D01*
X-13375518Y10425812D01*
X-13500000Y10438072D01*
X-15100000Y10438072D01*
X-15224482Y10425812D01*
X-15344180Y10389502D01*
X-15454494Y10330537D01*
X-15551185Y10251185D01*
X-15561807Y10238242D01*
X-15813996Y10357571D01*
X-16088184Y10426300D01*
X-16370512Y10440217D01*
X-16650130Y10398787D01*
X-16916292Y10303603D01*
X-16966111Y10276974D01*
X-16343407Y11237405D01*
X-4141718Y11237405D01*
X-4097961Y10918325D01*
X-3992795Y10613912D01*
X-3899814Y10439956D01*
X-3635413Y10344192D01*
X-2679605Y11300000D01*
X-2320395Y11300000D01*
X-1364587Y10344192D01*
X-1100186Y10439956D01*
X-959296Y10729571D01*
X-877616Y11041108D01*
X-858282Y11362595D01*
X-871781Y11461033D01*
X865000Y11461033D01*
X865000Y11138967D01*
X927832Y10823088D01*
X1051082Y10525537D01*
X1230013Y10257748D01*
X1457748Y10030013D01*
X1725537Y9851082D01*
X2023088Y9727832D01*
X2338967Y9665000D01*
X2661033Y9665000D01*
X2976912Y9727832D01*
X3274463Y9851082D01*
X3542252Y10030013D01*
X3769987Y10257748D01*
X3948918Y10525537D01*
X4072168Y10823088D01*
X4135000Y11138967D01*
X4135000Y11461033D01*
X4072168Y11776912D01*
X3948918Y12074463D01*
X3769987Y12342252D01*
X3542252Y12569987D01*
X3274463Y12748918D01*
X2976912Y12872168D01*
X2661033Y12935000D01*
X2338967Y12935000D01*
X2023088Y12872168D01*
X1725537Y12748918D01*
X1457748Y12569987D01*
X1230013Y12342252D01*
X1051082Y12074463D01*
X927832Y11776912D01*
X865000Y11461033D01*
X-871781Y11461033D01*
X-902039Y11681675D01*
X-1007205Y11986088D01*
X-1100186Y12160044D01*
X-1364587Y12255808D01*
X-2320395Y11300000D01*
X-2679605Y11300000D01*
X-3635413Y12255808D01*
X-3899814Y12160044D01*
X-4040704Y11870429D01*
X-4122384Y11558892D01*
X-4141718Y11237405D01*
X-16343407Y11237405D01*
X-16158432Y11522701D01*
X-15444621Y12435413D01*
X-3455808Y12435413D01*
X-2500000Y11479605D01*
X-1544192Y12435413D01*
X-1639956Y12699814D01*
X-1929571Y12840704D01*
X-2241108Y12922384D01*
X-2562595Y12941718D01*
X-2881675Y12897961D01*
X-3186088Y12792795D01*
X-3360044Y12699814D01*
X-3455808Y12435413D01*
X-15444621Y12435413D01*
X-15076824Y12905695D01*
X-13877219Y14187684D01*
X-12569006Y15358635D01*
X-11162423Y16409384D01*
X-9668480Y17331707D01*
X-8098867Y18118386D01*
X-6465870Y18763264D01*
X-4782268Y19261295D01*
X-3061239Y19608579D01*
X-2605656Y19659182D01*
X-2650537Y19604494D01*
X-2709502Y19494180D01*
X-2745812Y19374482D01*
X-2758072Y19250000D01*
X-2758072Y17550000D01*
X-2745812Y17425518D01*
X-2709502Y17305820D01*
X-2650537Y17195506D01*
X-2571185Y17098815D01*
X-2474494Y17019463D01*
X-2364180Y16960498D01*
X-2244482Y16924188D01*
X-2120000Y16911928D01*
X-420000Y16911928D01*
X-295518Y16924188D01*
X-175820Y16960498D01*
X-65506Y17019463D01*
X31185Y17098815D01*
X110537Y17195506D01*
X169502Y17305820D01*
X193966Y17386466D01*
X269731Y17302412D01*
X503080Y17128359D01*
X765901Y17003175D01*
X913110Y16958524D01*
X1143000Y17079845D01*
X1143000Y18273000D01*
X1397000Y18273000D01*
X1397000Y17079845D01*
X1626890Y16958524D01*
X1774099Y17003175D01*
X2036920Y17128359D01*
X2270269Y17302412D01*
X2465178Y17518645D01*
X2614157Y17768748D01*
X2711481Y18043109D01*
X2590814Y18273000D01*
X1397000Y18273000D01*
X1143000Y18273000D01*
X1123000Y18273000D01*
X1123000Y18527000D01*
X1143000Y18527000D01*
X1143000Y18547000D01*
X1397000Y18547000D01*
X1397000Y18527000D01*
X2590814Y18527000D01*
X2711481Y18756891D01*
X2614157Y19031252D01*
X2465178Y19281355D01*
X2270269Y19497588D01*
X2036920Y19671641D01*
X1882252Y19745311D01*
X2190890Y19724796D01*
G37*
%TD.AperFunction*%
%TD*%
M02*
