%TF.GenerationSoftware,KiCad,Pcbnew,(5.1.9-0-10_14)*%
%TF.CreationDate,2024-01-23T16:21:58+01:00*%
%TF.ProjectId,mains-psu,6d61696e-732d-4707-9375-2e6b69636164,rev?*%
%TF.SameCoordinates,Original*%
%TF.FileFunction,Soldermask,Bot*%
%TF.FilePolarity,Negative*%
%FSLAX46Y46*%
G04 Gerber Fmt 4.6, Leading zero omitted, Abs format (unit mm)*
G04 Created by KiCad (PCBNEW (5.1.9-0-10_14)) date 2024-01-23 16:21:58*
%MOMM*%
%LPD*%
G01*
G04 APERTURE LIST*
%ADD10C,1.600000*%
%ADD11R,1.600000X1.600000*%
%ADD12C,2.000000*%
%ADD13C,1.524000*%
%ADD14O,1.700000X1.700000*%
%ADD15R,1.700000X1.700000*%
G04 APERTURE END LIST*
%TO.C,J2*%
G36*
G01*
X-2100000Y-9512500D02*
X-2100000Y-10187500D01*
G75*
G02*
X-2437500Y-10525000I-337500J0D01*
G01*
X-4162500Y-10525000D01*
G75*
G02*
X-4500000Y-10187500I0J337500D01*
G01*
X-4500000Y-9512500D01*
G75*
G02*
X-4162500Y-9175000I337500J0D01*
G01*
X-2437500Y-9175000D01*
G75*
G02*
X-2100000Y-9512500I0J-337500D01*
G01*
G37*
G36*
G01*
X-2100000Y-17612500D02*
X-2100000Y-18287500D01*
G75*
G02*
X-2437500Y-18625000I-337500J0D01*
G01*
X-4162500Y-18625000D01*
G75*
G02*
X-4500000Y-18287500I0J337500D01*
G01*
X-4500000Y-17612500D01*
G75*
G02*
X-4162500Y-17275000I337500J0D01*
G01*
X-2437500Y-17275000D01*
G75*
G02*
X-2100000Y-17612500I0J-337500D01*
G01*
G37*
%TD*%
%TO.C,J1*%
G36*
G01*
X900000Y-18287500D02*
X900000Y-17612500D01*
G75*
G02*
X1237500Y-17275000I337500J0D01*
G01*
X2962500Y-17275000D01*
G75*
G02*
X3300000Y-17612500I0J-337500D01*
G01*
X3300000Y-18287500D01*
G75*
G02*
X2962500Y-18625000I-337500J0D01*
G01*
X1237500Y-18625000D01*
G75*
G02*
X900000Y-18287500I0J337500D01*
G01*
G37*
G36*
G01*
X900000Y-10187500D02*
X900000Y-9512500D01*
G75*
G02*
X1237500Y-9175000I337500J0D01*
G01*
X2962500Y-9175000D01*
G75*
G02*
X3300000Y-9512500I0J-337500D01*
G01*
X3300000Y-10187500D01*
G75*
G02*
X2962500Y-10525000I-337500J0D01*
G01*
X1237500Y-10525000D01*
G75*
G02*
X900000Y-10187500I0J337500D01*
G01*
G37*
%TD*%
D10*
%TO.C,C2*%
X16300000Y9000000D03*
D11*
X14300000Y9000000D03*
%TD*%
D12*
%TO.C,U1*%
X7500000Y-3700000D03*
X-7500000Y-3700000D03*
X-2500000Y11300000D03*
X2500000Y11300000D03*
%TD*%
D13*
%TO.C,RV1*%
X-10048350Y-11951650D03*
X-15351650Y-6648350D03*
%TD*%
%TO.C,F1*%
X7503949Y-14896051D03*
X11096051Y-11303949D03*
%TD*%
D14*
%TO.C,J3*%
X1270000Y18400000D03*
D15*
X-1270000Y18400000D03*
%TD*%
D10*
%TO.C,C1*%
X-16300000Y9000000D03*
D11*
X-14300000Y9000000D03*
%TD*%
M02*
