%TF.GenerationSoftware,KiCad,Pcbnew,(5.1.9-0-10_14)*%
%TF.CreationDate,2024-01-23T16:21:58+01:00*%
%TF.ProjectId,mains-psu,6d61696e-732d-4707-9375-2e6b69636164,rev?*%
%TF.SameCoordinates,Original*%
%TF.FileFunction,Legend,Top*%
%TF.FilePolarity,Positive*%
%FSLAX46Y46*%
G04 Gerber Fmt 4.6, Leading zero omitted, Abs format (unit mm)*
G04 Created by KiCad (PCBNEW (5.1.9-0-10_14)) date 2024-01-23 16:21:58*
%MOMM*%
%LPD*%
G01*
G04 APERTURE LIST*
%ADD10C,0.075000*%
%ADD11C,0.120000*%
%ADD12C,0.150000*%
%ADD13C,0.300000*%
G04 APERTURE END LIST*
D10*
X-9819047Y-16524404D02*
X-9819047Y-15724404D01*
X-9819047Y-16105357D02*
X-9590476Y-16105357D01*
X-9590476Y-16524404D02*
X-9590476Y-15724404D01*
X-9400000Y-16524404D02*
X-9400000Y-15724404D01*
X-9000000Y-15762500D02*
X-9038095Y-15724404D01*
X-9095238Y-15724404D01*
X-9152380Y-15762500D01*
X-9190476Y-15838690D01*
X-9209523Y-15914880D01*
X-9228571Y-16067261D01*
X-9228571Y-16181547D01*
X-9209523Y-16333928D01*
X-9190476Y-16410119D01*
X-9152380Y-16486309D01*
X-9095238Y-16524404D01*
X-9057142Y-16524404D01*
X-9000000Y-16486309D01*
X-8980952Y-16448214D01*
X-8980952Y-16181547D01*
X-9057142Y-16181547D01*
X-8809523Y-16524404D02*
X-8809523Y-15724404D01*
X-8809523Y-16105357D02*
X-8580952Y-16105357D01*
X-8580952Y-16524404D02*
X-8580952Y-15724404D01*
X-8142857Y-15724404D02*
X-8009523Y-16524404D01*
X-7876190Y-15724404D01*
X-7666666Y-15724404D02*
X-7590476Y-15724404D01*
X-7552380Y-15762500D01*
X-7514285Y-15838690D01*
X-7495238Y-15991071D01*
X-7495238Y-16257738D01*
X-7514285Y-16410119D01*
X-7552380Y-16486309D01*
X-7590476Y-16524404D01*
X-7666666Y-16524404D01*
X-7704761Y-16486309D01*
X-7742857Y-16410119D01*
X-7761904Y-16257738D01*
X-7761904Y-15991071D01*
X-7742857Y-15838690D01*
X-7704761Y-15762500D01*
X-7666666Y-15724404D01*
X-7133333Y-16524404D02*
X-7323809Y-16524404D01*
X-7323809Y-15724404D01*
X-7057142Y-15724404D02*
X-6828571Y-15724404D01*
X-6942857Y-16524404D02*
X-6942857Y-15724404D01*
X-6714285Y-16295833D02*
X-6523809Y-16295833D01*
X-6752380Y-16524404D02*
X-6619047Y-15724404D01*
X-6485714Y-16524404D01*
X-6142857Y-15762500D02*
X-6180952Y-15724404D01*
X-6238095Y-15724404D01*
X-6295238Y-15762500D01*
X-6333333Y-15838690D01*
X-6352380Y-15914880D01*
X-6371428Y-16067261D01*
X-6371428Y-16181547D01*
X-6352380Y-16333928D01*
X-6333333Y-16410119D01*
X-6295238Y-16486309D01*
X-6238095Y-16524404D01*
X-6200000Y-16524404D01*
X-6142857Y-16486309D01*
X-6123809Y-16448214D01*
X-6123809Y-16181547D01*
X-6200000Y-16181547D01*
X-5952380Y-16105357D02*
X-5819047Y-16105357D01*
X-5761904Y-16524404D02*
X-5952380Y-16524404D01*
X-5952380Y-15724404D01*
X-5761904Y-15724404D01*
X-8838095Y-17075595D02*
X-8819047Y-17037500D01*
X-8780952Y-16999404D01*
X-8685714Y-16999404D01*
X-8647619Y-17037500D01*
X-8628571Y-17075595D01*
X-8609523Y-17151785D01*
X-8609523Y-17227976D01*
X-8628571Y-17342261D01*
X-8857142Y-17799404D01*
X-8609523Y-17799404D01*
X-8457142Y-17075595D02*
X-8438095Y-17037500D01*
X-8400000Y-16999404D01*
X-8304761Y-16999404D01*
X-8266666Y-17037500D01*
X-8247619Y-17075595D01*
X-8228571Y-17151785D01*
X-8228571Y-17227976D01*
X-8247619Y-17342261D01*
X-8476190Y-17799404D01*
X-8228571Y-17799404D01*
X-7980952Y-16999404D02*
X-7942857Y-16999404D01*
X-7904761Y-17037500D01*
X-7885714Y-17075595D01*
X-7866666Y-17151785D01*
X-7847619Y-17304166D01*
X-7847619Y-17494642D01*
X-7866666Y-17647023D01*
X-7885714Y-17723214D01*
X-7904761Y-17761309D01*
X-7942857Y-17799404D01*
X-7980952Y-17799404D01*
X-8019047Y-17761309D01*
X-8038095Y-17723214D01*
X-8057142Y-17647023D01*
X-8076190Y-17494642D01*
X-8076190Y-17304166D01*
X-8057142Y-17151785D01*
X-8038095Y-17075595D01*
X-8019047Y-17037500D01*
X-7980952Y-16999404D01*
X-7733333Y-16999404D02*
X-7600000Y-17799404D01*
X-7466666Y-16999404D01*
X-7352380Y-17570833D02*
X-7161904Y-17570833D01*
X-7390476Y-17799404D02*
X-7257142Y-16999404D01*
X-7123809Y-17799404D01*
X-6761904Y-17723214D02*
X-6780952Y-17761309D01*
X-6838095Y-17799404D01*
X-6876190Y-17799404D01*
X-6933333Y-17761309D01*
X-6971428Y-17685119D01*
X-6990476Y-17608928D01*
X-7009523Y-17456547D01*
X-7009523Y-17342261D01*
X-6990476Y-17189880D01*
X-6971428Y-17113690D01*
X-6933333Y-17037500D01*
X-6876190Y-16999404D01*
X-6838095Y-16999404D01*
X-6780952Y-17037500D01*
X-6761904Y-17075595D01*
D11*
X-8100000Y-14600000D02*
X-7600000Y-14200000D01*
X-7500000Y-14600000D02*
X-8100000Y-15000000D01*
X-8100000Y-14600000D02*
X-7500000Y-14600000D01*
X-6800000Y-15400000D02*
X-7800000Y-13400000D01*
X-8800000Y-15400000D02*
X-6800000Y-15400000D01*
X-7800000Y-13400000D02*
X-8800000Y-15400000D01*
D12*
X3938095Y18900000D02*
X3842857Y18947619D01*
X3700000Y18947619D01*
X3557142Y18900000D01*
X3461904Y18804761D01*
X3414285Y18709523D01*
X3366666Y18519047D01*
X3366666Y18376190D01*
X3414285Y18185714D01*
X3461904Y18090476D01*
X3557142Y17995238D01*
X3700000Y17947619D01*
X3795238Y17947619D01*
X3938095Y17995238D01*
X3985714Y18042857D01*
X3985714Y18376190D01*
X3795238Y18376190D01*
X4414285Y17947619D02*
X4414285Y18947619D01*
X4985714Y17947619D01*
X4985714Y18947619D01*
X5461904Y17947619D02*
X5461904Y18947619D01*
X5700000Y18947619D01*
X5842857Y18900000D01*
X5938095Y18804761D01*
X5985714Y18709523D01*
X6033333Y18519047D01*
X6033333Y18376190D01*
X5985714Y18185714D01*
X5938095Y18090476D01*
X5842857Y17995238D01*
X5700000Y17947619D01*
X5461904Y17947619D01*
X-5738095Y18897619D02*
X-5119047Y18897619D01*
X-5452380Y18516666D01*
X-5309523Y18516666D01*
X-5214285Y18469047D01*
X-5166666Y18421428D01*
X-5119047Y18326190D01*
X-5119047Y18088095D01*
X-5166666Y17992857D01*
X-5214285Y17945238D01*
X-5309523Y17897619D01*
X-5595238Y17897619D01*
X-5690476Y17945238D01*
X-5738095Y17992857D01*
X-4833333Y18897619D02*
X-4500000Y17897619D01*
X-4166666Y18897619D01*
X-3928571Y18897619D02*
X-3309523Y18897619D01*
X-3642857Y18516666D01*
X-3500000Y18516666D01*
X-3404761Y18469047D01*
X-3357142Y18421428D01*
X-3309523Y18326190D01*
X-3309523Y18088095D01*
X-3357142Y17992857D01*
X-3404761Y17945238D01*
X-3500000Y17897619D01*
X-3785714Y17897619D01*
X-3880952Y17945238D01*
X-3928571Y17992857D01*
D13*
X-3871428Y-19357142D02*
X-3871428Y-16357142D01*
X-2728571Y-19357142D01*
X-2728571Y-16357142D01*
X2719047Y-19357142D02*
X1766666Y-19357142D01*
X1766666Y-16357142D01*
D11*
%TO.C,C2*%
X17920000Y9000000D02*
G75*
G03*
X17920000Y9000000I-2620000J0D01*
G01*
X15300000Y7960000D02*
X15300000Y6420000D01*
X15300000Y11580000D02*
X15300000Y10040000D01*
X15340000Y7960000D02*
X15340000Y6420000D01*
X15340000Y11580000D02*
X15340000Y10040000D01*
X15380000Y11579000D02*
X15380000Y10040000D01*
X15380000Y7960000D02*
X15380000Y6421000D01*
X15420000Y11578000D02*
X15420000Y10040000D01*
X15420000Y7960000D02*
X15420000Y6422000D01*
X15460000Y11576000D02*
X15460000Y10040000D01*
X15460000Y7960000D02*
X15460000Y6424000D01*
X15500000Y11573000D02*
X15500000Y10040000D01*
X15500000Y7960000D02*
X15500000Y6427000D01*
X15540000Y11569000D02*
X15540000Y10040000D01*
X15540000Y7960000D02*
X15540000Y6431000D01*
X15580000Y11565000D02*
X15580000Y10040000D01*
X15580000Y7960000D02*
X15580000Y6435000D01*
X15620000Y11561000D02*
X15620000Y10040000D01*
X15620000Y7960000D02*
X15620000Y6439000D01*
X15660000Y11556000D02*
X15660000Y10040000D01*
X15660000Y7960000D02*
X15660000Y6444000D01*
X15700000Y11550000D02*
X15700000Y10040000D01*
X15700000Y7960000D02*
X15700000Y6450000D01*
X15740000Y11543000D02*
X15740000Y10040000D01*
X15740000Y7960000D02*
X15740000Y6457000D01*
X15780000Y11536000D02*
X15780000Y10040000D01*
X15780000Y7960000D02*
X15780000Y6464000D01*
X15820000Y11528000D02*
X15820000Y10040000D01*
X15820000Y7960000D02*
X15820000Y6472000D01*
X15860000Y11520000D02*
X15860000Y10040000D01*
X15860000Y7960000D02*
X15860000Y6480000D01*
X15900000Y11511000D02*
X15900000Y10040000D01*
X15900000Y7960000D02*
X15900000Y6489000D01*
X15940000Y11501000D02*
X15940000Y10040000D01*
X15940000Y7960000D02*
X15940000Y6499000D01*
X15980000Y11491000D02*
X15980000Y10040000D01*
X15980000Y7960000D02*
X15980000Y6509000D01*
X16021000Y11480000D02*
X16021000Y10040000D01*
X16021000Y7960000D02*
X16021000Y6520000D01*
X16061000Y11468000D02*
X16061000Y10040000D01*
X16061000Y7960000D02*
X16061000Y6532000D01*
X16101000Y11455000D02*
X16101000Y10040000D01*
X16101000Y7960000D02*
X16101000Y6545000D01*
X16141000Y11442000D02*
X16141000Y10040000D01*
X16141000Y7960000D02*
X16141000Y6558000D01*
X16181000Y11428000D02*
X16181000Y10040000D01*
X16181000Y7960000D02*
X16181000Y6572000D01*
X16221000Y11414000D02*
X16221000Y10040000D01*
X16221000Y7960000D02*
X16221000Y6586000D01*
X16261000Y11398000D02*
X16261000Y10040000D01*
X16261000Y7960000D02*
X16261000Y6602000D01*
X16301000Y11382000D02*
X16301000Y10040000D01*
X16301000Y7960000D02*
X16301000Y6618000D01*
X16341000Y11365000D02*
X16341000Y10040000D01*
X16341000Y7960000D02*
X16341000Y6635000D01*
X16381000Y11348000D02*
X16381000Y10040000D01*
X16381000Y7960000D02*
X16381000Y6652000D01*
X16421000Y11329000D02*
X16421000Y10040000D01*
X16421000Y7960000D02*
X16421000Y6671000D01*
X16461000Y11310000D02*
X16461000Y10040000D01*
X16461000Y7960000D02*
X16461000Y6690000D01*
X16501000Y11290000D02*
X16501000Y10040000D01*
X16501000Y7960000D02*
X16501000Y6710000D01*
X16541000Y11268000D02*
X16541000Y10040000D01*
X16541000Y7960000D02*
X16541000Y6732000D01*
X16581000Y11247000D02*
X16581000Y10040000D01*
X16581000Y7960000D02*
X16581000Y6753000D01*
X16621000Y11224000D02*
X16621000Y10040000D01*
X16621000Y7960000D02*
X16621000Y6776000D01*
X16661000Y11200000D02*
X16661000Y10040000D01*
X16661000Y7960000D02*
X16661000Y6800000D01*
X16701000Y11175000D02*
X16701000Y10040000D01*
X16701000Y7960000D02*
X16701000Y6825000D01*
X16741000Y11149000D02*
X16741000Y10040000D01*
X16741000Y7960000D02*
X16741000Y6851000D01*
X16781000Y11122000D02*
X16781000Y10040000D01*
X16781000Y7960000D02*
X16781000Y6878000D01*
X16821000Y11095000D02*
X16821000Y10040000D01*
X16821000Y7960000D02*
X16821000Y6905000D01*
X16861000Y11065000D02*
X16861000Y10040000D01*
X16861000Y7960000D02*
X16861000Y6935000D01*
X16901000Y11035000D02*
X16901000Y10040000D01*
X16901000Y7960000D02*
X16901000Y6965000D01*
X16941000Y11004000D02*
X16941000Y10040000D01*
X16941000Y7960000D02*
X16941000Y6996000D01*
X16981000Y10971000D02*
X16981000Y10040000D01*
X16981000Y7960000D02*
X16981000Y7029000D01*
X17021000Y10937000D02*
X17021000Y10040000D01*
X17021000Y7960000D02*
X17021000Y7063000D01*
X17061000Y10901000D02*
X17061000Y10040000D01*
X17061000Y7960000D02*
X17061000Y7099000D01*
X17101000Y10864000D02*
X17101000Y10040000D01*
X17101000Y7960000D02*
X17101000Y7136000D01*
X17141000Y10826000D02*
X17141000Y10040000D01*
X17141000Y7960000D02*
X17141000Y7174000D01*
X17181000Y10785000D02*
X17181000Y10040000D01*
X17181000Y7960000D02*
X17181000Y7215000D01*
X17221000Y10743000D02*
X17221000Y10040000D01*
X17221000Y7960000D02*
X17221000Y7257000D01*
X17261000Y10699000D02*
X17261000Y10040000D01*
X17261000Y7960000D02*
X17261000Y7301000D01*
X17301000Y10653000D02*
X17301000Y10040000D01*
X17301000Y7960000D02*
X17301000Y7347000D01*
X17341000Y10605000D02*
X17341000Y7395000D01*
X17381000Y10554000D02*
X17381000Y7446000D01*
X17421000Y10500000D02*
X17421000Y7500000D01*
X17461000Y10443000D02*
X17461000Y7557000D01*
X17501000Y10383000D02*
X17501000Y7617000D01*
X17541000Y10319000D02*
X17541000Y7681000D01*
X17581000Y10251000D02*
X17581000Y7749000D01*
X17621000Y10178000D02*
X17621000Y7822000D01*
X17661000Y10098000D02*
X17661000Y7902000D01*
X17701000Y10011000D02*
X17701000Y7989000D01*
X17741000Y9915000D02*
X17741000Y8085000D01*
X17781000Y9805000D02*
X17781000Y8195000D01*
X17821000Y9677000D02*
X17821000Y8323000D01*
X17861000Y9518000D02*
X17861000Y8482000D01*
X17901000Y9284000D02*
X17901000Y8716000D01*
X12495225Y10475000D02*
X12995225Y10475000D01*
X12745225Y10725000D02*
X12745225Y10225000D01*
%TO.C,D1*%
X17200000Y-9800000D02*
X17200000Y-4100000D01*
X17200000Y-4100000D02*
X14200000Y-4100000D01*
X14200000Y-4100000D02*
X14200000Y-9800000D01*
%TO.C,U1*%
X12500000Y-8700000D02*
X-7500000Y-8700000D01*
X-7500000Y-8700000D02*
X-12500000Y-3700000D01*
X-12500000Y-3700000D02*
X-12500000Y16300000D01*
X-12500000Y16300000D02*
X12500000Y16300000D01*
X12500000Y16300000D02*
X12500000Y-8700000D01*
%TO.C,RV1*%
X-15033452Y-3148171D02*
X-18851829Y-6966548D01*
X-18851829Y-6966548D02*
X-10366548Y-15451829D01*
X-10366548Y-15451829D02*
X-6548171Y-11633452D01*
X-6548171Y-11633452D02*
X-15033452Y-3148171D01*
%TO.C,F1*%
X13475000Y-13100000D02*
G75*
G03*
X13475000Y-13100000I-4175000J0D01*
G01*
%TO.C,J3*%
X-2600000Y17070000D02*
X-2600000Y18400000D01*
X-1270000Y17070000D02*
X-2600000Y17070000D01*
X0Y17070000D02*
X0Y19730000D01*
X0Y19730000D02*
X2600000Y19730000D01*
X0Y17070000D02*
X2600000Y17070000D01*
X2600000Y17070000D02*
X2600000Y19730000D01*
%TO.C,C1*%
X-12745225Y7275000D02*
X-12745225Y7775000D01*
X-12495225Y7525000D02*
X-12995225Y7525000D01*
X-17901000Y8716000D02*
X-17901000Y9284000D01*
X-17861000Y8482000D02*
X-17861000Y9518000D01*
X-17821000Y8323000D02*
X-17821000Y9677000D01*
X-17781000Y8195000D02*
X-17781000Y9805000D01*
X-17741000Y8085000D02*
X-17741000Y9915000D01*
X-17701000Y7989000D02*
X-17701000Y10011000D01*
X-17661000Y7902000D02*
X-17661000Y10098000D01*
X-17621000Y7822000D02*
X-17621000Y10178000D01*
X-17581000Y7749000D02*
X-17581000Y10251000D01*
X-17541000Y7681000D02*
X-17541000Y10319000D01*
X-17501000Y7617000D02*
X-17501000Y10383000D01*
X-17461000Y7557000D02*
X-17461000Y10443000D01*
X-17421000Y7500000D02*
X-17421000Y10500000D01*
X-17381000Y7446000D02*
X-17381000Y10554000D01*
X-17341000Y7395000D02*
X-17341000Y10605000D01*
X-17301000Y10040000D02*
X-17301000Y10653000D01*
X-17301000Y7347000D02*
X-17301000Y7960000D01*
X-17261000Y10040000D02*
X-17261000Y10699000D01*
X-17261000Y7301000D02*
X-17261000Y7960000D01*
X-17221000Y10040000D02*
X-17221000Y10743000D01*
X-17221000Y7257000D02*
X-17221000Y7960000D01*
X-17181000Y10040000D02*
X-17181000Y10785000D01*
X-17181000Y7215000D02*
X-17181000Y7960000D01*
X-17141000Y10040000D02*
X-17141000Y10826000D01*
X-17141000Y7174000D02*
X-17141000Y7960000D01*
X-17101000Y10040000D02*
X-17101000Y10864000D01*
X-17101000Y7136000D02*
X-17101000Y7960000D01*
X-17061000Y10040000D02*
X-17061000Y10901000D01*
X-17061000Y7099000D02*
X-17061000Y7960000D01*
X-17021000Y10040000D02*
X-17021000Y10937000D01*
X-17021000Y7063000D02*
X-17021000Y7960000D01*
X-16981000Y10040000D02*
X-16981000Y10971000D01*
X-16981000Y7029000D02*
X-16981000Y7960000D01*
X-16941000Y10040000D02*
X-16941000Y11004000D01*
X-16941000Y6996000D02*
X-16941000Y7960000D01*
X-16901000Y10040000D02*
X-16901000Y11035000D01*
X-16901000Y6965000D02*
X-16901000Y7960000D01*
X-16861000Y10040000D02*
X-16861000Y11065000D01*
X-16861000Y6935000D02*
X-16861000Y7960000D01*
X-16821000Y10040000D02*
X-16821000Y11095000D01*
X-16821000Y6905000D02*
X-16821000Y7960000D01*
X-16781000Y10040000D02*
X-16781000Y11122000D01*
X-16781000Y6878000D02*
X-16781000Y7960000D01*
X-16741000Y10040000D02*
X-16741000Y11149000D01*
X-16741000Y6851000D02*
X-16741000Y7960000D01*
X-16701000Y10040000D02*
X-16701000Y11175000D01*
X-16701000Y6825000D02*
X-16701000Y7960000D01*
X-16661000Y10040000D02*
X-16661000Y11200000D01*
X-16661000Y6800000D02*
X-16661000Y7960000D01*
X-16621000Y10040000D02*
X-16621000Y11224000D01*
X-16621000Y6776000D02*
X-16621000Y7960000D01*
X-16581000Y10040000D02*
X-16581000Y11247000D01*
X-16581000Y6753000D02*
X-16581000Y7960000D01*
X-16541000Y10040000D02*
X-16541000Y11268000D01*
X-16541000Y6732000D02*
X-16541000Y7960000D01*
X-16501000Y10040000D02*
X-16501000Y11290000D01*
X-16501000Y6710000D02*
X-16501000Y7960000D01*
X-16461000Y10040000D02*
X-16461000Y11310000D01*
X-16461000Y6690000D02*
X-16461000Y7960000D01*
X-16421000Y10040000D02*
X-16421000Y11329000D01*
X-16421000Y6671000D02*
X-16421000Y7960000D01*
X-16381000Y10040000D02*
X-16381000Y11348000D01*
X-16381000Y6652000D02*
X-16381000Y7960000D01*
X-16341000Y10040000D02*
X-16341000Y11365000D01*
X-16341000Y6635000D02*
X-16341000Y7960000D01*
X-16301000Y10040000D02*
X-16301000Y11382000D01*
X-16301000Y6618000D02*
X-16301000Y7960000D01*
X-16261000Y10040000D02*
X-16261000Y11398000D01*
X-16261000Y6602000D02*
X-16261000Y7960000D01*
X-16221000Y10040000D02*
X-16221000Y11414000D01*
X-16221000Y6586000D02*
X-16221000Y7960000D01*
X-16181000Y10040000D02*
X-16181000Y11428000D01*
X-16181000Y6572000D02*
X-16181000Y7960000D01*
X-16141000Y10040000D02*
X-16141000Y11442000D01*
X-16141000Y6558000D02*
X-16141000Y7960000D01*
X-16101000Y10040000D02*
X-16101000Y11455000D01*
X-16101000Y6545000D02*
X-16101000Y7960000D01*
X-16061000Y10040000D02*
X-16061000Y11468000D01*
X-16061000Y6532000D02*
X-16061000Y7960000D01*
X-16021000Y10040000D02*
X-16021000Y11480000D01*
X-16021000Y6520000D02*
X-16021000Y7960000D01*
X-15980000Y10040000D02*
X-15980000Y11491000D01*
X-15980000Y6509000D02*
X-15980000Y7960000D01*
X-15940000Y10040000D02*
X-15940000Y11501000D01*
X-15940000Y6499000D02*
X-15940000Y7960000D01*
X-15900000Y10040000D02*
X-15900000Y11511000D01*
X-15900000Y6489000D02*
X-15900000Y7960000D01*
X-15860000Y10040000D02*
X-15860000Y11520000D01*
X-15860000Y6480000D02*
X-15860000Y7960000D01*
X-15820000Y10040000D02*
X-15820000Y11528000D01*
X-15820000Y6472000D02*
X-15820000Y7960000D01*
X-15780000Y10040000D02*
X-15780000Y11536000D01*
X-15780000Y6464000D02*
X-15780000Y7960000D01*
X-15740000Y10040000D02*
X-15740000Y11543000D01*
X-15740000Y6457000D02*
X-15740000Y7960000D01*
X-15700000Y10040000D02*
X-15700000Y11550000D01*
X-15700000Y6450000D02*
X-15700000Y7960000D01*
X-15660000Y10040000D02*
X-15660000Y11556000D01*
X-15660000Y6444000D02*
X-15660000Y7960000D01*
X-15620000Y10040000D02*
X-15620000Y11561000D01*
X-15620000Y6439000D02*
X-15620000Y7960000D01*
X-15580000Y10040000D02*
X-15580000Y11565000D01*
X-15580000Y6435000D02*
X-15580000Y7960000D01*
X-15540000Y10040000D02*
X-15540000Y11569000D01*
X-15540000Y6431000D02*
X-15540000Y7960000D01*
X-15500000Y10040000D02*
X-15500000Y11573000D01*
X-15500000Y6427000D02*
X-15500000Y7960000D01*
X-15460000Y10040000D02*
X-15460000Y11576000D01*
X-15460000Y6424000D02*
X-15460000Y7960000D01*
X-15420000Y10040000D02*
X-15420000Y11578000D01*
X-15420000Y6422000D02*
X-15420000Y7960000D01*
X-15380000Y10040000D02*
X-15380000Y11579000D01*
X-15380000Y6421000D02*
X-15380000Y7960000D01*
X-15340000Y6420000D02*
X-15340000Y7960000D01*
X-15340000Y10040000D02*
X-15340000Y11580000D01*
X-15300000Y6420000D02*
X-15300000Y7960000D01*
X-15300000Y10040000D02*
X-15300000Y11580000D01*
X-12680000Y9000000D02*
G75*
G03*
X-12680000Y9000000I-2620000J0D01*
G01*
%TO.C,C2*%
D12*
X15133333Y5042857D02*
X15085714Y4995238D01*
X14942857Y4947619D01*
X14847619Y4947619D01*
X14704761Y4995238D01*
X14609523Y5090476D01*
X14561904Y5185714D01*
X14514285Y5376190D01*
X14514285Y5519047D01*
X14561904Y5709523D01*
X14609523Y5804761D01*
X14704761Y5900000D01*
X14847619Y5947619D01*
X14942857Y5947619D01*
X15085714Y5900000D01*
X15133333Y5852380D01*
X15514285Y5852380D02*
X15561904Y5900000D01*
X15657142Y5947619D01*
X15895238Y5947619D01*
X15990476Y5900000D01*
X16038095Y5852380D01*
X16085714Y5757142D01*
X16085714Y5661904D01*
X16038095Y5519047D01*
X15466666Y4947619D01*
X16085714Y4947619D01*
X13752380Y3447619D02*
X13180952Y3447619D01*
X13466666Y3447619D02*
X13466666Y4447619D01*
X13371428Y4304761D01*
X13276190Y4209523D01*
X13180952Y4161904D01*
X14657142Y4447619D02*
X14180952Y4447619D01*
X14133333Y3971428D01*
X14180952Y4019047D01*
X14276190Y4066666D01*
X14514285Y4066666D01*
X14609523Y4019047D01*
X14657142Y3971428D01*
X14704761Y3876190D01*
X14704761Y3638095D01*
X14657142Y3542857D01*
X14609523Y3495238D01*
X14514285Y3447619D01*
X14276190Y3447619D01*
X14180952Y3495238D01*
X14133333Y3542857D01*
X15323809Y4447619D02*
X15419047Y4447619D01*
X15514285Y4400000D01*
X15561904Y4352380D01*
X15609523Y4257142D01*
X15657142Y4066666D01*
X15657142Y3828571D01*
X15609523Y3638095D01*
X15561904Y3542857D01*
X15514285Y3495238D01*
X15419047Y3447619D01*
X15323809Y3447619D01*
X15228571Y3495238D01*
X15180952Y3542857D01*
X15133333Y3638095D01*
X15085714Y3828571D01*
X15085714Y4066666D01*
X15133333Y4257142D01*
X15180952Y4352380D01*
X15228571Y4400000D01*
X15323809Y4447619D01*
X16514285Y4114285D02*
X16514285Y3447619D01*
X16085714Y4114285D02*
X16085714Y3590476D01*
X16133333Y3495238D01*
X16228571Y3447619D01*
X16371428Y3447619D01*
X16466666Y3495238D01*
X16514285Y3542857D01*
X17323809Y3971428D02*
X16990476Y3971428D01*
X16990476Y3447619D02*
X16990476Y4447619D01*
X17466666Y4447619D01*
%TO.C,D1*%
X18752380Y-5338095D02*
X17752380Y-5338095D01*
X17752380Y-5100000D01*
X17800000Y-4957142D01*
X17895238Y-4861904D01*
X17990476Y-4814285D01*
X18180952Y-4766666D01*
X18323809Y-4766666D01*
X18514285Y-4814285D01*
X18609523Y-4861904D01*
X18704761Y-4957142D01*
X18752380Y-5100000D01*
X18752380Y-5338095D01*
X18752380Y-3814285D02*
X18752380Y-4385714D01*
X18752380Y-4100000D02*
X17752380Y-4100000D01*
X17895238Y-4195238D01*
X17990476Y-4290476D01*
X18038095Y-4385714D01*
%TO.C,U1*%
X-761904Y6847619D02*
X-761904Y6038095D01*
X-714285Y5942857D01*
X-666666Y5895238D01*
X-571428Y5847619D01*
X-380952Y5847619D01*
X-285714Y5895238D01*
X-238095Y5942857D01*
X-190476Y6038095D01*
X-190476Y6847619D01*
X809523Y5847619D02*
X238095Y5847619D01*
X523809Y5847619D02*
X523809Y6847619D01*
X428571Y6704761D01*
X333333Y6609523D01*
X238095Y6561904D01*
%TO.C,RV1*%
X-14748926Y-10507132D02*
X-14647911Y-9934712D01*
X-15152987Y-10103071D02*
X-14445880Y-9395964D01*
X-14176506Y-9665338D01*
X-14142835Y-9766354D01*
X-14142835Y-9833697D01*
X-14176506Y-9934712D01*
X-14277522Y-10035728D01*
X-14378537Y-10069399D01*
X-14445880Y-10069399D01*
X-14546896Y-10035728D01*
X-14816270Y-9766354D01*
X-13839789Y-10002056D02*
X-14311193Y-10944865D01*
X-13368384Y-10473460D01*
X-13469399Y-11786659D02*
X-13873460Y-11382598D01*
X-13671430Y-11584628D02*
X-12964323Y-10877522D01*
X-13132682Y-10911193D01*
X-13267369Y-10911193D01*
X-13368384Y-10877522D01*
X-13987944Y-6109601D02*
X-13920600Y-6244288D01*
X-13752242Y-6412647D01*
X-13651226Y-6446318D01*
X-13583883Y-6446318D01*
X-13482868Y-6412647D01*
X-13415524Y-6345303D01*
X-13381852Y-6244288D01*
X-13381852Y-6176944D01*
X-13415524Y-6075929D01*
X-13516539Y-5907570D01*
X-13550211Y-5806555D01*
X-13550211Y-5739212D01*
X-13516539Y-5638196D01*
X-13449196Y-5570853D01*
X-13348181Y-5537181D01*
X-13280837Y-5537181D01*
X-13179822Y-5570853D01*
X-13011463Y-5739212D01*
X-12944120Y-5873899D01*
X-12944120Y-7220769D02*
X-13348181Y-6816708D01*
X-13146150Y-7018738D02*
X-12439043Y-6311631D01*
X-12607402Y-6345303D01*
X-12742089Y-6345303D01*
X-12843104Y-6311631D01*
X-11866624Y-7355456D02*
X-12338028Y-7826860D01*
X-11765608Y-6917723D02*
X-12439043Y-7254440D01*
X-12001311Y-7692173D01*
X-11967639Y-8197250D02*
X-11260532Y-7490143D01*
X-11563578Y-8601311D02*
X-11462563Y-7894204D01*
X-10856471Y-7894204D02*
X-11664593Y-7894204D01*
X-10620769Y-8129906D02*
X-10183036Y-8567639D01*
X-10688112Y-8601311D01*
X-10587097Y-8702326D01*
X-10553425Y-8803341D01*
X-10553425Y-8870685D01*
X-10587097Y-8971700D01*
X-10755456Y-9140059D01*
X-10856471Y-9173730D01*
X-10923814Y-9173730D01*
X-11024830Y-9140059D01*
X-11226860Y-8938028D01*
X-11260532Y-8837013D01*
X-11260532Y-8769669D01*
X-9981005Y-8904356D02*
X-9913662Y-8904356D01*
X-9812647Y-8938028D01*
X-9644288Y-9106387D01*
X-9610616Y-9207402D01*
X-9610616Y-9274746D01*
X-9644288Y-9375761D01*
X-9711631Y-9443104D01*
X-9846318Y-9510448D01*
X-10654440Y-9510448D01*
X-10216708Y-9948181D01*
X-9071868Y-9678807D02*
X-9004525Y-9746150D01*
X-8970853Y-9847165D01*
X-8970853Y-9914509D01*
X-9004525Y-10015524D01*
X-9105540Y-10183883D01*
X-9273899Y-10352242D01*
X-9442257Y-10453257D01*
X-9543273Y-10486929D01*
X-9610616Y-10486929D01*
X-9711631Y-10453257D01*
X-9778975Y-10385913D01*
X-9812647Y-10284898D01*
X-9812647Y-10217555D01*
X-9778975Y-10116539D01*
X-9677960Y-9948181D01*
X-9509601Y-9779822D01*
X-9341242Y-9678807D01*
X-9240227Y-9645135D01*
X-9172883Y-9645135D01*
X-9071868Y-9678807D01*
%TO.C,F1*%
X8514805Y-13313790D02*
X8279103Y-13078087D01*
X7908713Y-13448477D02*
X8615820Y-12741370D01*
X8952538Y-13078087D01*
X8885194Y-14424957D02*
X8481133Y-14020896D01*
X8683164Y-14222927D02*
X9390270Y-13515820D01*
X9221912Y-13549492D01*
X9087225Y-13549492D01*
X8986209Y-13515820D01*
X7811336Y-10951099D02*
X7407275Y-10547038D01*
X7609305Y-10749068D02*
X8316412Y-10041962D01*
X8148053Y-10075633D01*
X8013366Y-10075633D01*
X7912351Y-10041962D01*
X8956175Y-10681725D02*
X9023519Y-10749068D01*
X9057190Y-10850084D01*
X9057190Y-10917427D01*
X9023519Y-11018442D01*
X8922503Y-11186801D01*
X8754145Y-11355160D01*
X8585786Y-11456175D01*
X8484771Y-11489847D01*
X8417427Y-11489847D01*
X8316412Y-11456175D01*
X8249068Y-11388832D01*
X8215397Y-11287816D01*
X8215397Y-11220473D01*
X8249068Y-11119458D01*
X8350084Y-10951099D01*
X8518442Y-10782740D01*
X8686801Y-10681725D01*
X8787816Y-10648053D01*
X8855160Y-10648053D01*
X8956175Y-10681725D01*
X8787816Y-11927580D02*
X9259221Y-11456175D01*
X9191877Y-11523519D02*
X9259221Y-11523519D01*
X9360236Y-11557190D01*
X9461251Y-11658206D01*
X9494923Y-11759221D01*
X9461251Y-11860236D01*
X9090862Y-12230625D01*
X9461251Y-11860236D02*
X9562267Y-11826564D01*
X9663282Y-11860236D01*
X9764297Y-11961251D01*
X9797969Y-12062267D01*
X9764297Y-12163282D01*
X9393908Y-12533671D01*
X9898984Y-12634687D02*
X10235702Y-12971404D01*
X9629610Y-12769374D02*
X10572419Y-12297969D01*
X10101015Y-13240778D01*
X10875465Y-13947885D02*
X10942809Y-14082572D01*
X11111167Y-14250931D01*
X11212183Y-14284602D01*
X11279526Y-14284602D01*
X11380541Y-14250931D01*
X11447885Y-14183587D01*
X11481557Y-14082572D01*
X11481557Y-14015228D01*
X11447885Y-13914213D01*
X11346870Y-13745854D01*
X11313198Y-13644839D01*
X11313198Y-13577496D01*
X11346870Y-13476480D01*
X11414213Y-13409137D01*
X11515228Y-13375465D01*
X11582572Y-13375465D01*
X11683587Y-13409137D01*
X11851946Y-13577496D01*
X11919289Y-13712183D01*
X12154992Y-14553976D02*
X12222335Y-14688663D01*
X12222335Y-14756007D01*
X12188663Y-14857022D01*
X12087648Y-14958037D01*
X11986633Y-14991709D01*
X11919289Y-14991709D01*
X11818274Y-14958037D01*
X11548900Y-14688663D01*
X12256007Y-13981557D01*
X12491709Y-14217259D01*
X12525381Y-14318274D01*
X12525381Y-14385618D01*
X12491709Y-14486633D01*
X12424366Y-14553976D01*
X12323350Y-14587648D01*
X12256007Y-14587648D01*
X12154992Y-14553976D01*
X11919289Y-14318274D01*
%TO.C,J3*%
X-333333Y15997619D02*
X-333333Y15283333D01*
X-380952Y15140476D01*
X-476190Y15045238D01*
X-619047Y14997619D01*
X-714285Y14997619D01*
X47619Y15997619D02*
X666666Y15997619D01*
X333333Y15616666D01*
X476190Y15616666D01*
X571428Y15569047D01*
X619047Y15521428D01*
X666666Y15426190D01*
X666666Y15188095D01*
X619047Y15092857D01*
X571428Y15045238D01*
X476190Y14997619D01*
X190476Y14997619D01*
X95238Y15045238D01*
X47619Y15092857D01*
%TO.C,C1*%
X-15466666Y4942857D02*
X-15514285Y4895238D01*
X-15657142Y4847619D01*
X-15752380Y4847619D01*
X-15895238Y4895238D01*
X-15990476Y4990476D01*
X-16038095Y5085714D01*
X-16085714Y5276190D01*
X-16085714Y5419047D01*
X-16038095Y5609523D01*
X-15990476Y5704761D01*
X-15895238Y5800000D01*
X-15752380Y5847619D01*
X-15657142Y5847619D01*
X-15514285Y5800000D01*
X-15466666Y5752380D01*
X-14514285Y4847619D02*
X-15085714Y4847619D01*
X-14800000Y4847619D02*
X-14800000Y5847619D01*
X-14895238Y5704761D01*
X-14990476Y5609523D01*
X-15085714Y5561904D01*
X-15895238Y3447619D02*
X-16466666Y3447619D01*
X-16180952Y3447619D02*
X-16180952Y4447619D01*
X-16276190Y4304761D01*
X-16371428Y4209523D01*
X-16466666Y4161904D01*
X-15038095Y4114285D02*
X-15038095Y3447619D01*
X-15466666Y4114285D02*
X-15466666Y3590476D01*
X-15419047Y3495238D01*
X-15323809Y3447619D01*
X-15180952Y3447619D01*
X-15085714Y3495238D01*
X-15038095Y3542857D01*
X-14228571Y3971428D02*
X-14561904Y3971428D01*
X-14561904Y3447619D02*
X-14561904Y4447619D01*
X-14085714Y4447619D01*
%TD*%
M02*
