%TF.GenerationSoftware,KiCad,Pcbnew,(5.1.9-0-10_14)*%
%TF.CreationDate,2024-01-23T11:46:41+01:00*%
%TF.ProjectId,berker-sensor-acdc,6265726b-6572-42d7-9365-6e736f722d61,rev?*%
%TF.SameCoordinates,Original*%
%TF.FileFunction,Soldermask,Bot*%
%TF.FilePolarity,Negative*%
%FSLAX46Y46*%
G04 Gerber Fmt 4.6, Leading zero omitted, Abs format (unit mm)*
G04 Created by KiCad (PCBNEW (5.1.9-0-10_14)) date 2024-01-23 11:46:41*
%MOMM*%
%LPD*%
G01*
G04 APERTURE LIST*
%ADD10C,2.454000*%
%ADD11C,1.524000*%
%ADD12O,1.700000X1.700000*%
%ADD13R,1.700000X1.700000*%
%ADD14C,1.600000*%
%ADD15R,1.600000X1.600000*%
G04 APERTURE END LIST*
%TO.C,J2*%
G36*
G01*
X-12405738Y-10000450D02*
X-11852811Y-10387614D01*
G75*
G02*
X-11769929Y-10857660I-193582J-276464D01*
G01*
X-12759348Y-12270698D01*
G75*
G02*
X-13229394Y-12353580I-276464J193582D01*
G01*
X-13782321Y-11966416D01*
G75*
G02*
X-13865203Y-11496370I193582J276464D01*
G01*
X-12875784Y-10083332D01*
G75*
G02*
X-12405738Y-10000450I276464J-193582D01*
G01*
G37*
G36*
G01*
X-5770606Y-14646420D02*
X-5217679Y-15033584D01*
G75*
G02*
X-5134797Y-15503630I-193582J-276464D01*
G01*
X-6124216Y-16916668D01*
G75*
G02*
X-6594262Y-16999550I-276464J193582D01*
G01*
X-7147189Y-16612386D01*
G75*
G02*
X-7230071Y-16142340I193582J276464D01*
G01*
X-6240652Y-14729302D01*
G75*
G02*
X-5770606Y-14646420I276464J-193582D01*
G01*
G37*
%TD*%
%TO.C,J1*%
G36*
G01*
X13782321Y-11966416D02*
X13229394Y-12353580D01*
G75*
G02*
X12759348Y-12270698I-193582J276464D01*
G01*
X11769929Y-10857660D01*
G75*
G02*
X11852811Y-10387614I276464J193582D01*
G01*
X12405738Y-10000450D01*
G75*
G02*
X12875784Y-10083332I193582J-276464D01*
G01*
X13865203Y-11496370D01*
G75*
G02*
X13782321Y-11966416I-276464J-193582D01*
G01*
G37*
G36*
G01*
X7147189Y-16612386D02*
X6594262Y-16999550D01*
G75*
G02*
X6124216Y-16916668I-193582J276464D01*
G01*
X5134797Y-15503630D01*
G75*
G02*
X5217679Y-15033584I276464J193582D01*
G01*
X5770606Y-14646420D01*
G75*
G02*
X6240652Y-14729302I193582J-276464D01*
G01*
X7230071Y-16142340D01*
G75*
G02*
X7147189Y-16612386I-276464J-193582D01*
G01*
G37*
%TD*%
D10*
%TO.C,U1*%
X-9500000Y-3750000D03*
X-9500000Y13750000D03*
X9500000Y-3750000D03*
G36*
G01*
X9625000Y12523000D02*
X7375000Y12523000D01*
G75*
G02*
X7273000Y12625000I0J102000D01*
G01*
X7273000Y14875000D01*
G75*
G02*
X7375000Y14977000I102000J0D01*
G01*
X9625000Y14977000D01*
G75*
G02*
X9727000Y14875000I0J-102000D01*
G01*
X9727000Y12625000D01*
G75*
G02*
X9625000Y12523000I-102000J0D01*
G01*
G37*
%TD*%
D11*
%TO.C,F1*%
X0Y-16540000D03*
X0Y-11460000D03*
%TD*%
D12*
%TO.C,J3*%
X1270000Y18400000D03*
D13*
X-1270000Y18400000D03*
%TD*%
D11*
%TO.C,C1*%
X14800000Y9900000D03*
X14800000Y-5100000D03*
%TD*%
D14*
%TO.C,C2*%
X-14950000Y10170000D03*
D15*
X-14950000Y8170000D03*
%TD*%
M02*
