%TF.GenerationSoftware,KiCad,Pcbnew,(5.1.9-0-10_14)*%
%TF.CreationDate,2024-01-23T11:46:41+01:00*%
%TF.ProjectId,berker-sensor-acdc,6265726b-6572-42d7-9365-6e736f722d61,rev?*%
%TF.SameCoordinates,Original*%
%TF.FileFunction,Copper,L1,Top*%
%TF.FilePolarity,Positive*%
%FSLAX46Y46*%
G04 Gerber Fmt 4.6, Leading zero omitted, Abs format (unit mm)*
G04 Created by KiCad (PCBNEW (5.1.9-0-10_14)) date 2024-01-23 11:46:41*
%MOMM*%
%LPD*%
G01*
G04 APERTURE LIST*
%TA.AperFunction,ComponentPad*%
%ADD10C,2.250000*%
%TD*%
%TA.AperFunction,ComponentPad*%
%ADD11R,2.250000X2.250000*%
%TD*%
%TA.AperFunction,ComponentPad*%
%ADD12C,1.524000*%
%TD*%
%TA.AperFunction,ComponentPad*%
%ADD13O,1.700000X1.700000*%
%TD*%
%TA.AperFunction,ComponentPad*%
%ADD14R,1.700000X1.700000*%
%TD*%
%TA.AperFunction,ComponentPad*%
%ADD15C,1.600000*%
%TD*%
%TA.AperFunction,ComponentPad*%
%ADD16R,1.600000X1.600000*%
%TD*%
%TA.AperFunction,Conductor*%
%ADD17C,1.000000*%
%TD*%
%TA.AperFunction,Conductor*%
%ADD18C,0.254000*%
%TD*%
%TA.AperFunction,Conductor*%
%ADD19C,0.100000*%
%TD*%
G04 APERTURE END LIST*
D10*
%TO.P,U1,3*%
%TO.N,NEUT*%
X-9500000Y-3750000D03*
%TO.P,U1,2*%
%TO.N,+3V3*%
X-9500000Y13750000D03*
%TO.P,U1,4*%
%TO.N,Net-(C1-Pad1)*%
X9500000Y-3750000D03*
D11*
%TO.P,U1,1*%
%TO.N,GND*%
X8500000Y13750000D03*
%TD*%
D12*
%TO.P,F1,2*%
%TO.N,LINE*%
X0Y-16540000D03*
%TO.P,F1,1*%
%TO.N,Net-(C1-Pad1)*%
X0Y-11460000D03*
%TD*%
D13*
%TO.P,J3,2*%
%TO.N,GND*%
X1270000Y18400000D03*
D14*
%TO.P,J3,1*%
%TO.N,+3V3*%
X-1270000Y18400000D03*
%TD*%
D12*
%TO.P,C1,2*%
%TO.N,NEUT*%
X14800000Y9900000D03*
%TO.P,C1,1*%
%TO.N,Net-(C1-Pad1)*%
X14800000Y-5100000D03*
%TD*%
D15*
%TO.P,C2,2*%
%TO.N,GND*%
X-14950000Y10170000D03*
D16*
%TO.P,C2,1*%
%TO.N,+3V3*%
X-14950000Y8170000D03*
%TD*%
D17*
%TO.N,NEUT*%
X14800000Y9900000D02*
X14800000Y9800000D01*
X1250000Y-3750000D02*
X-9500000Y-3750000D01*
X14800000Y9800000D02*
X1250000Y-3750000D01*
%TO.N,Net-(C1-Pad1)*%
X9500000Y-3750000D02*
X9450000Y-3750000D01*
X1740000Y-11460000D02*
X0Y-11460000D01*
X9450000Y-3750000D02*
X1740000Y-11460000D01*
X10850000Y-5100000D02*
X9500000Y-3750000D01*
X14800000Y-5100000D02*
X10850000Y-5100000D01*
%TD*%
D18*
%TO.N,GND*%
X2190890Y19724796D02*
X3925596Y19453978D01*
X5629579Y19030907D01*
X7289503Y18458892D01*
X8892377Y17742412D01*
X10425656Y16887074D01*
X11877340Y15899571D01*
X13236067Y14787633D01*
X14491205Y13559961D01*
X15164812Y12773033D01*
X15084542Y12789000D01*
X14515458Y12789000D01*
X13957310Y12677978D01*
X13431545Y12460199D01*
X12958370Y12144033D01*
X12555967Y11741630D01*
X12239801Y11268455D01*
X12022022Y10742690D01*
X12020649Y10735788D01*
X161862Y-1123000D01*
X-7578138Y-1123000D01*
X-7959600Y-868115D01*
X-8551427Y-622973D01*
X-9179706Y-498000D01*
X-9820294Y-498000D01*
X-10448573Y-622973D01*
X-11040400Y-868115D01*
X-11573029Y-1224007D01*
X-12025993Y-1676971D01*
X-12381885Y-2209600D01*
X-12627027Y-2801427D01*
X-12752000Y-3429706D01*
X-12752000Y-4070294D01*
X-12627027Y-4698573D01*
X-12381885Y-5290400D01*
X-12025993Y-5823029D01*
X-11573029Y-6275993D01*
X-11040400Y-6631885D01*
X-10448573Y-6877027D01*
X-9820294Y-7002000D01*
X-9179706Y-7002000D01*
X-8551427Y-6877027D01*
X-7959600Y-6631885D01*
X-7578138Y-6377000D01*
X1120955Y-6377000D01*
X1250000Y-6389710D01*
X1379045Y-6377000D01*
X1379048Y-6377000D01*
X1764982Y-6338989D01*
X2260173Y-6188774D01*
X2716544Y-5944839D01*
X3116557Y-5616557D01*
X3198825Y-5516313D01*
X6844809Y-1870330D01*
X6618115Y-2209600D01*
X6372973Y-2801427D01*
X6295884Y-3188977D01*
X809451Y-8675410D01*
X284542Y-8571000D01*
X-284542Y-8571000D01*
X-842690Y-8682022D01*
X-1368455Y-8899801D01*
X-1841630Y-9215967D01*
X-2244033Y-9618370D01*
X-2560199Y-10091545D01*
X-2777978Y-10617310D01*
X-2889000Y-11175458D01*
X-2889000Y-11744542D01*
X-2777978Y-12302690D01*
X-2560199Y-12828455D01*
X-2244033Y-13301630D01*
X-1841630Y-13704033D01*
X-1398685Y-14000000D01*
X-1841630Y-14295967D01*
X-2244033Y-14698370D01*
X-2560199Y-15171545D01*
X-2777978Y-15697310D01*
X-2889000Y-16255458D01*
X-2889000Y-16824542D01*
X-2777978Y-17382690D01*
X-2560199Y-17908455D01*
X-2244033Y-18381630D01*
X-1841630Y-18784033D01*
X-1368455Y-19100199D01*
X-842690Y-19317978D01*
X-284542Y-19429000D01*
X284542Y-19429000D01*
X842690Y-19317978D01*
X1368455Y-19100199D01*
X1841630Y-18784033D01*
X2244033Y-18381630D01*
X2560199Y-17908455D01*
X2777978Y-17382690D01*
X2889000Y-16824542D01*
X2889000Y-16255458D01*
X2777978Y-15697310D01*
X2560199Y-15171545D01*
X2244033Y-14698370D01*
X1841630Y-14295967D01*
X1528889Y-14087000D01*
X1610955Y-14087000D01*
X1740000Y-14099710D01*
X1869045Y-14087000D01*
X1869048Y-14087000D01*
X2254982Y-14048989D01*
X2750173Y-13898774D01*
X3206544Y-13654839D01*
X3606557Y-13326557D01*
X3688825Y-13226313D01*
X3875568Y-13039570D01*
X6160448Y-13039570D01*
X6161987Y-13102518D01*
X6162647Y-13165525D01*
X6163762Y-13175165D01*
X6187546Y-13368876D01*
X6201288Y-13430356D01*
X6214169Y-13492012D01*
X6217135Y-13501252D01*
X6278092Y-13686654D01*
X6303525Y-13744318D01*
X6328126Y-13802273D01*
X6332830Y-13810760D01*
X6428638Y-13980791D01*
X6428645Y-13980801D01*
X6445242Y-14010286D01*
X7975698Y-16196005D01*
X7995143Y-16218671D01*
X7998616Y-16223706D01*
X8004931Y-16231074D01*
X8132971Y-16378367D01*
X8178723Y-16421632D01*
X8223898Y-16465563D01*
X8231524Y-16471564D01*
X8385736Y-16591183D01*
X8439049Y-16624756D01*
X8491867Y-16659056D01*
X8500506Y-16663458D01*
X8500514Y-16663463D01*
X8500523Y-16663466D01*
X8675021Y-16750849D01*
X8733828Y-16773423D01*
X8792313Y-16796815D01*
X8801650Y-16799458D01*
X8989809Y-16851286D01*
X9051913Y-16862014D01*
X9113801Y-16873595D01*
X9123467Y-16874373D01*
X9123470Y-16874374D01*
X9123474Y-16874374D01*
X9318116Y-16888667D01*
X9381064Y-16887128D01*
X9444071Y-16886468D01*
X9453711Y-16885353D01*
X9647422Y-16861569D01*
X9708902Y-16847827D01*
X9770558Y-16834946D01*
X9779798Y-16831980D01*
X9965200Y-16771023D01*
X10022864Y-16745590D01*
X10080819Y-16720989D01*
X10089301Y-16716288D01*
X10089305Y-16716286D01*
X10089308Y-16716284D01*
X10259337Y-16620477D01*
X10259347Y-16620470D01*
X10288832Y-16603873D01*
X12146890Y-15302848D01*
X12169557Y-15283402D01*
X12174591Y-15279930D01*
X12181959Y-15273615D01*
X12329252Y-15145575D01*
X12372517Y-15099823D01*
X12416448Y-15054648D01*
X12422449Y-15047022D01*
X12542068Y-14892810D01*
X12575641Y-14839497D01*
X12609941Y-14786679D01*
X12614343Y-14778040D01*
X12614348Y-14778032D01*
X12614351Y-14778023D01*
X12701734Y-14603525D01*
X12724308Y-14544718D01*
X12747700Y-14486233D01*
X12750343Y-14476896D01*
X12802171Y-14288737D01*
X12812899Y-14226633D01*
X12824480Y-14164745D01*
X12825259Y-14155072D01*
X12839552Y-13960430D01*
X12838013Y-13897482D01*
X12837353Y-13834476D01*
X12836238Y-13824836D01*
X12812454Y-13631124D01*
X12798712Y-13569644D01*
X12785831Y-13507989D01*
X12782865Y-13498749D01*
X12721908Y-13313346D01*
X12696470Y-13255670D01*
X12671874Y-13197727D01*
X12667170Y-13189240D01*
X12571362Y-13019209D01*
X12571358Y-13019203D01*
X12554758Y-12989713D01*
X11024301Y-10803995D01*
X11004860Y-10781333D01*
X11001384Y-10776294D01*
X10995069Y-10768925D01*
X10867029Y-10621633D01*
X10821257Y-10578349D01*
X10776102Y-10534438D01*
X10768476Y-10528436D01*
X10614264Y-10408817D01*
X10560946Y-10375240D01*
X10508132Y-10340943D01*
X10499486Y-10336537D01*
X10324978Y-10249151D01*
X10266192Y-10226585D01*
X10207688Y-10203185D01*
X10198350Y-10200542D01*
X10198349Y-10200542D01*
X10198347Y-10200541D01*
X10198345Y-10200541D01*
X10010192Y-10148714D01*
X9948075Y-10137984D01*
X9886199Y-10126405D01*
X9876535Y-10125627D01*
X9876531Y-10125626D01*
X9876526Y-10125626D01*
X9681884Y-10111333D01*
X9618936Y-10112872D01*
X9555930Y-10113532D01*
X9546290Y-10114647D01*
X9352578Y-10138431D01*
X9291098Y-10152173D01*
X9229443Y-10165054D01*
X9220209Y-10168018D01*
X9220205Y-10168019D01*
X9220202Y-10168020D01*
X9220203Y-10168020D01*
X9034800Y-10228977D01*
X8977124Y-10254415D01*
X8919181Y-10279011D01*
X8910699Y-10283712D01*
X8910695Y-10283714D01*
X8910694Y-10283715D01*
X8740663Y-10379523D01*
X8740659Y-10379526D01*
X8711167Y-10396127D01*
X6853110Y-11697153D01*
X6830448Y-11716594D01*
X6825409Y-11720070D01*
X6818040Y-11726385D01*
X6670748Y-11854425D01*
X6627464Y-11900197D01*
X6583553Y-11945352D01*
X6577551Y-11952978D01*
X6457932Y-12107190D01*
X6424355Y-12160508D01*
X6390058Y-12213322D01*
X6385652Y-12221968D01*
X6298266Y-12396476D01*
X6275700Y-12455262D01*
X6252300Y-12513766D01*
X6249657Y-12523104D01*
X6197829Y-12711262D01*
X6187102Y-12773365D01*
X6175520Y-12835255D01*
X6174741Y-12844928D01*
X6160448Y-13039570D01*
X3875568Y-13039570D01*
X9537801Y-7377338D01*
X9839827Y-7538774D01*
X10335018Y-7688989D01*
X10720952Y-7727000D01*
X10720954Y-7727000D01*
X10849999Y-7739710D01*
X10979044Y-7727000D01*
X13592817Y-7727000D01*
X13957310Y-7877978D01*
X14515458Y-7989000D01*
X15084542Y-7989000D01*
X15642690Y-7877978D01*
X16168455Y-7660199D01*
X16641630Y-7344033D01*
X17044033Y-6941630D01*
X17360199Y-6468455D01*
X17577978Y-5942690D01*
X17689000Y-5384542D01*
X17689000Y-4815458D01*
X17577978Y-4257310D01*
X17360199Y-3731545D01*
X17044033Y-3258370D01*
X16641630Y-2855967D01*
X16168455Y-2539801D01*
X15642690Y-2322022D01*
X15084542Y-2211000D01*
X14515458Y-2211000D01*
X13957310Y-2322022D01*
X13592817Y-2473000D01*
X12490989Y-2473000D01*
X12381885Y-2209600D01*
X12025993Y-1676971D01*
X11573029Y-1224007D01*
X11040400Y-868115D01*
X10448573Y-622973D01*
X9820294Y-498000D01*
X9179706Y-498000D01*
X8551427Y-622973D01*
X7959600Y-868115D01*
X7620330Y-1094809D01*
X8928816Y213677D01*
X14830497Y213677D01*
X14830497Y-213677D01*
X14913870Y-632821D01*
X15077412Y-1027645D01*
X15314837Y-1382977D01*
X15617023Y-1685163D01*
X15972355Y-1922588D01*
X16367179Y-2086130D01*
X16786323Y-2169503D01*
X17213677Y-2169503D01*
X17632821Y-2086130D01*
X18027645Y-1922588D01*
X18382977Y-1685163D01*
X18685163Y-1382977D01*
X18922588Y-1027645D01*
X19086130Y-632821D01*
X19169503Y-213677D01*
X19169503Y213677D01*
X19086130Y632821D01*
X18922588Y1027645D01*
X18685163Y1382977D01*
X18382977Y1685163D01*
X18027645Y1922588D01*
X17632821Y2086130D01*
X17213677Y2169503D01*
X16786323Y2169503D01*
X16367179Y2086130D01*
X15972355Y1922588D01*
X15617023Y1685163D01*
X15314837Y1382977D01*
X15077412Y1027645D01*
X14913870Y632821D01*
X14830497Y213677D01*
X8928816Y213677D01*
X15974673Y7259534D01*
X16168455Y7339801D01*
X16641630Y7655967D01*
X17044033Y8058370D01*
X17360199Y8531545D01*
X17577978Y9057310D01*
X17598725Y9161613D01*
X18293116Y7696068D01*
X18901711Y6049205D01*
X19362375Y4354998D01*
X19671502Y2626707D01*
X19826672Y877859D01*
X19826672Y-877859D01*
X19671502Y-2626707D01*
X19362375Y-4354998D01*
X18901711Y-6049205D01*
X18293116Y-7696068D01*
X17541353Y-9282700D01*
X16652304Y-10796682D01*
X15632929Y-12226165D01*
X14491205Y-13559961D01*
X13236067Y-14787633D01*
X11877340Y-15899571D01*
X10425656Y-16887074D01*
X8892377Y-17742412D01*
X7289503Y-18458892D01*
X5629579Y-19030907D01*
X3925596Y-19453978D01*
X2190890Y-19724796D01*
X439037Y-19841240D01*
X-1316252Y-19802400D01*
X-3061239Y-19608579D01*
X-4782268Y-19261295D01*
X-6465870Y-18763264D01*
X-8098867Y-18118386D01*
X-9668480Y-17331707D01*
X-11162423Y-16409384D01*
X-12569006Y-15358635D01*
X-13877219Y-14187684D01*
X-14087865Y-13962571D01*
X-12840037Y-13962571D01*
X-12839327Y-13972238D01*
X-12839327Y-13972248D01*
X-12839325Y-13972257D01*
X-12823674Y-14166786D01*
X-12812517Y-14228795D01*
X-12802231Y-14290928D01*
X-12799657Y-14300273D01*
X-12799655Y-14300283D01*
X-12799651Y-14300292D01*
X-12746514Y-14488076D01*
X-12723544Y-14546688D01*
X-12701369Y-14605684D01*
X-12697024Y-14614361D01*
X-12608421Y-14788255D01*
X-12574490Y-14841313D01*
X-12541288Y-14894861D01*
X-12535346Y-14902521D01*
X-12535343Y-14902526D01*
X-12535340Y-14902529D01*
X-12414649Y-15055901D01*
X-12371045Y-15101371D01*
X-12328090Y-15147434D01*
X-12320766Y-15153801D01*
X-12172582Y-15280810D01*
X-12172562Y-15280824D01*
X-12146890Y-15302847D01*
X-10288833Y-16603873D01*
X-10262809Y-16618522D01*
X-10257825Y-16622064D01*
X-10249370Y-16626828D01*
X-10078675Y-16721447D01*
X-10020875Y-16746459D01*
X-9963406Y-16772286D01*
X-9954187Y-16775317D01*
X-9768364Y-16834978D01*
X-9706815Y-16848285D01*
X-9645421Y-16862459D01*
X-9635789Y-16863642D01*
X-9441918Y-16886074D01*
X-9378932Y-16887174D01*
X-9315975Y-16889152D01*
X-9306308Y-16888442D01*
X-9306298Y-16888442D01*
X-9306289Y-16888440D01*
X-9111760Y-16872789D01*
X-9049751Y-16861632D01*
X-8987618Y-16851346D01*
X-8978273Y-16848772D01*
X-8978263Y-16848770D01*
X-8978254Y-16848766D01*
X-8790470Y-16795629D01*
X-8731858Y-16772659D01*
X-8672862Y-16750484D01*
X-8664185Y-16746139D01*
X-8490291Y-16657536D01*
X-8437233Y-16623605D01*
X-8383685Y-16590403D01*
X-8376025Y-16584461D01*
X-8376020Y-16584458D01*
X-8376016Y-16584454D01*
X-8222645Y-16463764D01*
X-8177175Y-16420160D01*
X-8131112Y-16377205D01*
X-8124745Y-16369881D01*
X-7997736Y-16221697D01*
X-7997722Y-16221677D01*
X-7975699Y-16196005D01*
X-6445242Y-14010287D01*
X-6430594Y-13984265D01*
X-6427051Y-13979279D01*
X-6422287Y-13970824D01*
X-6327668Y-13800129D01*
X-6302656Y-13742329D01*
X-6276829Y-13684860D01*
X-6273798Y-13675641D01*
X-6214137Y-13489818D01*
X-6200830Y-13428269D01*
X-6186656Y-13366875D01*
X-6185473Y-13357243D01*
X-6163041Y-13163372D01*
X-6161941Y-13100387D01*
X-6159963Y-13037430D01*
X-6160673Y-13027762D01*
X-6160673Y-13027752D01*
X-6160675Y-13027743D01*
X-6176326Y-12833214D01*
X-6187478Y-12771231D01*
X-6197769Y-12709073D01*
X-6200343Y-12699727D01*
X-6200345Y-12699717D01*
X-6200349Y-12699708D01*
X-6253486Y-12511925D01*
X-6276447Y-12453336D01*
X-6298631Y-12394316D01*
X-6302976Y-12385639D01*
X-6391579Y-12211744D01*
X-6425516Y-12158678D01*
X-6458712Y-12105139D01*
X-6464660Y-12097471D01*
X-6585352Y-11944099D01*
X-6628936Y-11898649D01*
X-6671910Y-11852566D01*
X-6679234Y-11846199D01*
X-6827418Y-11719190D01*
X-6827432Y-11719180D01*
X-6853110Y-11697152D01*
X-8711168Y-10396127D01*
X-8737185Y-10381482D01*
X-8742175Y-10377936D01*
X-8750630Y-10373172D01*
X-8921326Y-10278553D01*
X-8979125Y-10253541D01*
X-9036593Y-10227714D01*
X-9045804Y-10224686D01*
X-9045810Y-10224683D01*
X-9045816Y-10224682D01*
X-9231636Y-10165022D01*
X-9293185Y-10151715D01*
X-9354579Y-10137541D01*
X-9364211Y-10136358D01*
X-9558083Y-10113926D01*
X-9621066Y-10112826D01*
X-9684024Y-10110848D01*
X-9693692Y-10111558D01*
X-9693702Y-10111558D01*
X-9693711Y-10111560D01*
X-9888240Y-10127211D01*
X-9950223Y-10138363D01*
X-10012381Y-10148654D01*
X-10021727Y-10151228D01*
X-10021737Y-10151230D01*
X-10021746Y-10151234D01*
X-10209529Y-10204371D01*
X-10268118Y-10227332D01*
X-10327138Y-10249516D01*
X-10335815Y-10253861D01*
X-10509710Y-10342464D01*
X-10562776Y-10376401D01*
X-10616315Y-10409597D01*
X-10623978Y-10415541D01*
X-10623981Y-10415543D01*
X-10623983Y-10415545D01*
X-10777355Y-10536237D01*
X-10822805Y-10579821D01*
X-10868888Y-10622795D01*
X-10875255Y-10630119D01*
X-11002264Y-10778303D01*
X-11002275Y-10778319D01*
X-11024302Y-10803995D01*
X-12554758Y-12989714D01*
X-12569403Y-13015731D01*
X-12572949Y-13020721D01*
X-12577713Y-13029176D01*
X-12672332Y-13199872D01*
X-12697344Y-13257671D01*
X-12723171Y-13315139D01*
X-12726199Y-13324350D01*
X-12726202Y-13324356D01*
X-12726202Y-13324358D01*
X-12785863Y-13510182D01*
X-12799170Y-13571731D01*
X-12813344Y-13633125D01*
X-12814527Y-13642757D01*
X-12836959Y-13836629D01*
X-12838059Y-13899613D01*
X-12840037Y-13962571D01*
X-14087865Y-13962571D01*
X-15076824Y-12905695D01*
X-16158432Y-11522701D01*
X-17113579Y-10049527D01*
X-17934788Y-8497701D01*
X-18615634Y-6879370D01*
X-19150787Y-5207198D01*
X-19536060Y-3494273D01*
X-19768436Y-1754000D01*
X-19846097Y0D01*
X-19836637Y213677D01*
X-19169503Y213677D01*
X-19169503Y-213677D01*
X-19086130Y-632821D01*
X-18922588Y-1027645D01*
X-18685163Y-1382977D01*
X-18382977Y-1685163D01*
X-18027645Y-1922588D01*
X-17632821Y-2086130D01*
X-17213677Y-2169503D01*
X-16786323Y-2169503D01*
X-16367179Y-2086130D01*
X-15972355Y-1922588D01*
X-15617023Y-1685163D01*
X-15314837Y-1382977D01*
X-15077412Y-1027645D01*
X-14913870Y-632821D01*
X-14830497Y-213677D01*
X-14830497Y213677D01*
X-14913870Y632821D01*
X-15077412Y1027645D01*
X-15314837Y1382977D01*
X-15617023Y1685163D01*
X-15972355Y1922588D01*
X-16367179Y2086130D01*
X-16786323Y2169503D01*
X-17213677Y2169503D01*
X-17632821Y2086130D01*
X-18027645Y1922588D01*
X-18382977Y1685163D01*
X-18685163Y1382977D01*
X-18922588Y1027645D01*
X-19086130Y632821D01*
X-19169503Y213677D01*
X-19836637Y213677D01*
X-19768436Y1754000D01*
X-19536060Y3494273D01*
X-19150787Y5207198D01*
X-18615634Y6879370D01*
X-17934788Y8497701D01*
X-17113579Y10049527D01*
X-17081187Y10099488D01*
X-16390217Y10099488D01*
X-16348787Y9819870D01*
X-16253603Y9553708D01*
X-16188384Y9431691D01*
X-16201185Y9421185D01*
X-16280537Y9324494D01*
X-16339502Y9214180D01*
X-16375812Y9094482D01*
X-16388072Y8970000D01*
X-16388072Y7370000D01*
X-16375812Y7245518D01*
X-16339502Y7125820D01*
X-16280537Y7015506D01*
X-16201185Y6918815D01*
X-16104494Y6839463D01*
X-15994180Y6780498D01*
X-15874482Y6744188D01*
X-15750000Y6731928D01*
X-14150000Y6731928D01*
X-14025518Y6744188D01*
X-13905820Y6780498D01*
X-13795506Y6839463D01*
X-13698815Y6918815D01*
X-13619463Y7015506D01*
X-13560498Y7125820D01*
X-13524188Y7245518D01*
X-13511928Y7370000D01*
X-13511928Y8970000D01*
X-13524188Y9094482D01*
X-13560498Y9214180D01*
X-13619463Y9324494D01*
X-13698815Y9421185D01*
X-13711758Y9431807D01*
X-13592429Y9683996D01*
X-13523700Y9958184D01*
X-13509783Y10240512D01*
X-13551213Y10520130D01*
X-13646397Y10786292D01*
X-13713329Y10911514D01*
X-13957298Y10983097D01*
X-14770395Y10170000D01*
X-14756253Y10155858D01*
X-14935858Y9976253D01*
X-14950000Y9990395D01*
X-14964143Y9976253D01*
X-15143748Y10155858D01*
X-15129605Y10170000D01*
X-15942702Y10983097D01*
X-16186671Y10911514D01*
X-16307571Y10656004D01*
X-16376300Y10381816D01*
X-16390217Y10099488D01*
X-17081187Y10099488D01*
X-16391842Y11162702D01*
X-15763097Y11162702D01*
X-14950000Y10349605D01*
X-14136903Y11162702D01*
X-14208486Y11406671D01*
X-14463996Y11527571D01*
X-14738184Y11596300D01*
X-15020512Y11610217D01*
X-15300130Y11568787D01*
X-15566292Y11473603D01*
X-15691514Y11406671D01*
X-15763097Y11162702D01*
X-16391842Y11162702D01*
X-16158432Y11522701D01*
X-15076824Y12905695D01*
X-14124571Y13923345D01*
X-11260000Y13923345D01*
X-11260000Y13576655D01*
X-11192364Y13236627D01*
X-11059692Y12916327D01*
X-10867081Y12628065D01*
X-10621935Y12382919D01*
X-10333673Y12190308D01*
X-10013373Y12057636D01*
X-9673345Y11990000D01*
X-9326655Y11990000D01*
X-8986627Y12057636D01*
X-8666327Y12190308D01*
X-8378065Y12382919D01*
X-8135984Y12625000D01*
X6736928Y12625000D01*
X6749188Y12500518D01*
X6785498Y12380820D01*
X6844463Y12270506D01*
X6923815Y12173815D01*
X7020506Y12094463D01*
X7130820Y12035498D01*
X7250518Y11999188D01*
X7375000Y11986928D01*
X8214250Y11990000D01*
X8373000Y12148750D01*
X8373000Y13623000D01*
X8627000Y13623000D01*
X8627000Y12148750D01*
X8785750Y11990000D01*
X9625000Y11986928D01*
X9749482Y11999188D01*
X9869180Y12035498D01*
X9979494Y12094463D01*
X10076185Y12173815D01*
X10155537Y12270506D01*
X10214502Y12380820D01*
X10250812Y12500518D01*
X10263072Y12625000D01*
X10260000Y13464250D01*
X10101250Y13623000D01*
X8627000Y13623000D01*
X8373000Y13623000D01*
X6898750Y13623000D01*
X6740000Y13464250D01*
X6736928Y12625000D01*
X-8135984Y12625000D01*
X-8132919Y12628065D01*
X-7940308Y12916327D01*
X-7807636Y13236627D01*
X-7740000Y13576655D01*
X-7740000Y13923345D01*
X-7807636Y14263373D01*
X-7940308Y14583673D01*
X-8132919Y14871935D01*
X-8135984Y14875000D01*
X6736928Y14875000D01*
X6740000Y14035750D01*
X6898750Y13877000D01*
X8373000Y13877000D01*
X8373000Y15351250D01*
X8627000Y15351250D01*
X8627000Y13877000D01*
X10101250Y13877000D01*
X10260000Y14035750D01*
X10263072Y14875000D01*
X10250812Y14999482D01*
X10214502Y15119180D01*
X10155537Y15229494D01*
X10076185Y15326185D01*
X9979494Y15405537D01*
X9869180Y15464502D01*
X9749482Y15500812D01*
X9625000Y15513072D01*
X8785750Y15510000D01*
X8627000Y15351250D01*
X8373000Y15351250D01*
X8214250Y15510000D01*
X7375000Y15513072D01*
X7250518Y15500812D01*
X7130820Y15464502D01*
X7020506Y15405537D01*
X6923815Y15326185D01*
X6844463Y15229494D01*
X6785498Y15119180D01*
X6749188Y14999482D01*
X6736928Y14875000D01*
X-8135984Y14875000D01*
X-8378065Y15117081D01*
X-8666327Y15309692D01*
X-8986627Y15442364D01*
X-9326655Y15510000D01*
X-9673345Y15510000D01*
X-10013373Y15442364D01*
X-10333673Y15309692D01*
X-10621935Y15117081D01*
X-10867081Y14871935D01*
X-11059692Y14583673D01*
X-11192364Y14263373D01*
X-11260000Y13923345D01*
X-14124571Y13923345D01*
X-13877219Y14187684D01*
X-12569006Y15358635D01*
X-11162423Y16409384D01*
X-9668480Y17331707D01*
X-8098867Y18118386D01*
X-6465870Y18763264D01*
X-4782268Y19261295D01*
X-3061239Y19608579D01*
X-2605656Y19659182D01*
X-2650537Y19604494D01*
X-2709502Y19494180D01*
X-2745812Y19374482D01*
X-2758072Y19250000D01*
X-2758072Y17550000D01*
X-2745812Y17425518D01*
X-2709502Y17305820D01*
X-2650537Y17195506D01*
X-2571185Y17098815D01*
X-2474494Y17019463D01*
X-2364180Y16960498D01*
X-2244482Y16924188D01*
X-2120000Y16911928D01*
X-420000Y16911928D01*
X-295518Y16924188D01*
X-175820Y16960498D01*
X-65506Y17019463D01*
X31185Y17098815D01*
X110537Y17195506D01*
X169502Y17305820D01*
X193966Y17386466D01*
X269731Y17302412D01*
X503080Y17128359D01*
X765901Y17003175D01*
X913110Y16958524D01*
X1143000Y17079845D01*
X1143000Y18273000D01*
X1397000Y18273000D01*
X1397000Y17079845D01*
X1626890Y16958524D01*
X1774099Y17003175D01*
X2036920Y17128359D01*
X2270269Y17302412D01*
X2465178Y17518645D01*
X2614157Y17768748D01*
X2711481Y18043109D01*
X2590814Y18273000D01*
X1397000Y18273000D01*
X1143000Y18273000D01*
X1123000Y18273000D01*
X1123000Y18527000D01*
X1143000Y18527000D01*
X1143000Y18547000D01*
X1397000Y18547000D01*
X1397000Y18527000D01*
X2590814Y18527000D01*
X2711481Y18756891D01*
X2614157Y19031252D01*
X2465178Y19281355D01*
X2270269Y19497588D01*
X2036920Y19671641D01*
X1882252Y19745311D01*
X2190890Y19724796D01*
%TA.AperFunction,Conductor*%
D19*
G36*
X2190890Y19724796D02*
G01*
X3925596Y19453978D01*
X5629579Y19030907D01*
X7289503Y18458892D01*
X8892377Y17742412D01*
X10425656Y16887074D01*
X11877340Y15899571D01*
X13236067Y14787633D01*
X14491205Y13559961D01*
X15164812Y12773033D01*
X15084542Y12789000D01*
X14515458Y12789000D01*
X13957310Y12677978D01*
X13431545Y12460199D01*
X12958370Y12144033D01*
X12555967Y11741630D01*
X12239801Y11268455D01*
X12022022Y10742690D01*
X12020649Y10735788D01*
X161862Y-1123000D01*
X-7578138Y-1123000D01*
X-7959600Y-868115D01*
X-8551427Y-622973D01*
X-9179706Y-498000D01*
X-9820294Y-498000D01*
X-10448573Y-622973D01*
X-11040400Y-868115D01*
X-11573029Y-1224007D01*
X-12025993Y-1676971D01*
X-12381885Y-2209600D01*
X-12627027Y-2801427D01*
X-12752000Y-3429706D01*
X-12752000Y-4070294D01*
X-12627027Y-4698573D01*
X-12381885Y-5290400D01*
X-12025993Y-5823029D01*
X-11573029Y-6275993D01*
X-11040400Y-6631885D01*
X-10448573Y-6877027D01*
X-9820294Y-7002000D01*
X-9179706Y-7002000D01*
X-8551427Y-6877027D01*
X-7959600Y-6631885D01*
X-7578138Y-6377000D01*
X1120955Y-6377000D01*
X1250000Y-6389710D01*
X1379045Y-6377000D01*
X1379048Y-6377000D01*
X1764982Y-6338989D01*
X2260173Y-6188774D01*
X2716544Y-5944839D01*
X3116557Y-5616557D01*
X3198825Y-5516313D01*
X6844809Y-1870330D01*
X6618115Y-2209600D01*
X6372973Y-2801427D01*
X6295884Y-3188977D01*
X809451Y-8675410D01*
X284542Y-8571000D01*
X-284542Y-8571000D01*
X-842690Y-8682022D01*
X-1368455Y-8899801D01*
X-1841630Y-9215967D01*
X-2244033Y-9618370D01*
X-2560199Y-10091545D01*
X-2777978Y-10617310D01*
X-2889000Y-11175458D01*
X-2889000Y-11744542D01*
X-2777978Y-12302690D01*
X-2560199Y-12828455D01*
X-2244033Y-13301630D01*
X-1841630Y-13704033D01*
X-1398685Y-14000000D01*
X-1841630Y-14295967D01*
X-2244033Y-14698370D01*
X-2560199Y-15171545D01*
X-2777978Y-15697310D01*
X-2889000Y-16255458D01*
X-2889000Y-16824542D01*
X-2777978Y-17382690D01*
X-2560199Y-17908455D01*
X-2244033Y-18381630D01*
X-1841630Y-18784033D01*
X-1368455Y-19100199D01*
X-842690Y-19317978D01*
X-284542Y-19429000D01*
X284542Y-19429000D01*
X842690Y-19317978D01*
X1368455Y-19100199D01*
X1841630Y-18784033D01*
X2244033Y-18381630D01*
X2560199Y-17908455D01*
X2777978Y-17382690D01*
X2889000Y-16824542D01*
X2889000Y-16255458D01*
X2777978Y-15697310D01*
X2560199Y-15171545D01*
X2244033Y-14698370D01*
X1841630Y-14295967D01*
X1528889Y-14087000D01*
X1610955Y-14087000D01*
X1740000Y-14099710D01*
X1869045Y-14087000D01*
X1869048Y-14087000D01*
X2254982Y-14048989D01*
X2750173Y-13898774D01*
X3206544Y-13654839D01*
X3606557Y-13326557D01*
X3688825Y-13226313D01*
X3875568Y-13039570D01*
X6160448Y-13039570D01*
X6161987Y-13102518D01*
X6162647Y-13165525D01*
X6163762Y-13175165D01*
X6187546Y-13368876D01*
X6201288Y-13430356D01*
X6214169Y-13492012D01*
X6217135Y-13501252D01*
X6278092Y-13686654D01*
X6303525Y-13744318D01*
X6328126Y-13802273D01*
X6332830Y-13810760D01*
X6428638Y-13980791D01*
X6428645Y-13980801D01*
X6445242Y-14010286D01*
X7975698Y-16196005D01*
X7995143Y-16218671D01*
X7998616Y-16223706D01*
X8004931Y-16231074D01*
X8132971Y-16378367D01*
X8178723Y-16421632D01*
X8223898Y-16465563D01*
X8231524Y-16471564D01*
X8385736Y-16591183D01*
X8439049Y-16624756D01*
X8491867Y-16659056D01*
X8500506Y-16663458D01*
X8500514Y-16663463D01*
X8500523Y-16663466D01*
X8675021Y-16750849D01*
X8733828Y-16773423D01*
X8792313Y-16796815D01*
X8801650Y-16799458D01*
X8989809Y-16851286D01*
X9051913Y-16862014D01*
X9113801Y-16873595D01*
X9123467Y-16874373D01*
X9123470Y-16874374D01*
X9123474Y-16874374D01*
X9318116Y-16888667D01*
X9381064Y-16887128D01*
X9444071Y-16886468D01*
X9453711Y-16885353D01*
X9647422Y-16861569D01*
X9708902Y-16847827D01*
X9770558Y-16834946D01*
X9779798Y-16831980D01*
X9965200Y-16771023D01*
X10022864Y-16745590D01*
X10080819Y-16720989D01*
X10089301Y-16716288D01*
X10089305Y-16716286D01*
X10089308Y-16716284D01*
X10259337Y-16620477D01*
X10259347Y-16620470D01*
X10288832Y-16603873D01*
X12146890Y-15302848D01*
X12169557Y-15283402D01*
X12174591Y-15279930D01*
X12181959Y-15273615D01*
X12329252Y-15145575D01*
X12372517Y-15099823D01*
X12416448Y-15054648D01*
X12422449Y-15047022D01*
X12542068Y-14892810D01*
X12575641Y-14839497D01*
X12609941Y-14786679D01*
X12614343Y-14778040D01*
X12614348Y-14778032D01*
X12614351Y-14778023D01*
X12701734Y-14603525D01*
X12724308Y-14544718D01*
X12747700Y-14486233D01*
X12750343Y-14476896D01*
X12802171Y-14288737D01*
X12812899Y-14226633D01*
X12824480Y-14164745D01*
X12825259Y-14155072D01*
X12839552Y-13960430D01*
X12838013Y-13897482D01*
X12837353Y-13834476D01*
X12836238Y-13824836D01*
X12812454Y-13631124D01*
X12798712Y-13569644D01*
X12785831Y-13507989D01*
X12782865Y-13498749D01*
X12721908Y-13313346D01*
X12696470Y-13255670D01*
X12671874Y-13197727D01*
X12667170Y-13189240D01*
X12571362Y-13019209D01*
X12571358Y-13019203D01*
X12554758Y-12989713D01*
X11024301Y-10803995D01*
X11004860Y-10781333D01*
X11001384Y-10776294D01*
X10995069Y-10768925D01*
X10867029Y-10621633D01*
X10821257Y-10578349D01*
X10776102Y-10534438D01*
X10768476Y-10528436D01*
X10614264Y-10408817D01*
X10560946Y-10375240D01*
X10508132Y-10340943D01*
X10499486Y-10336537D01*
X10324978Y-10249151D01*
X10266192Y-10226585D01*
X10207688Y-10203185D01*
X10198350Y-10200542D01*
X10198349Y-10200542D01*
X10198347Y-10200541D01*
X10198345Y-10200541D01*
X10010192Y-10148714D01*
X9948075Y-10137984D01*
X9886199Y-10126405D01*
X9876535Y-10125627D01*
X9876531Y-10125626D01*
X9876526Y-10125626D01*
X9681884Y-10111333D01*
X9618936Y-10112872D01*
X9555930Y-10113532D01*
X9546290Y-10114647D01*
X9352578Y-10138431D01*
X9291098Y-10152173D01*
X9229443Y-10165054D01*
X9220209Y-10168018D01*
X9220205Y-10168019D01*
X9220202Y-10168020D01*
X9220203Y-10168020D01*
X9034800Y-10228977D01*
X8977124Y-10254415D01*
X8919181Y-10279011D01*
X8910699Y-10283712D01*
X8910695Y-10283714D01*
X8910694Y-10283715D01*
X8740663Y-10379523D01*
X8740659Y-10379526D01*
X8711167Y-10396127D01*
X6853110Y-11697153D01*
X6830448Y-11716594D01*
X6825409Y-11720070D01*
X6818040Y-11726385D01*
X6670748Y-11854425D01*
X6627464Y-11900197D01*
X6583553Y-11945352D01*
X6577551Y-11952978D01*
X6457932Y-12107190D01*
X6424355Y-12160508D01*
X6390058Y-12213322D01*
X6385652Y-12221968D01*
X6298266Y-12396476D01*
X6275700Y-12455262D01*
X6252300Y-12513766D01*
X6249657Y-12523104D01*
X6197829Y-12711262D01*
X6187102Y-12773365D01*
X6175520Y-12835255D01*
X6174741Y-12844928D01*
X6160448Y-13039570D01*
X3875568Y-13039570D01*
X9537801Y-7377338D01*
X9839827Y-7538774D01*
X10335018Y-7688989D01*
X10720952Y-7727000D01*
X10720954Y-7727000D01*
X10849999Y-7739710D01*
X10979044Y-7727000D01*
X13592817Y-7727000D01*
X13957310Y-7877978D01*
X14515458Y-7989000D01*
X15084542Y-7989000D01*
X15642690Y-7877978D01*
X16168455Y-7660199D01*
X16641630Y-7344033D01*
X17044033Y-6941630D01*
X17360199Y-6468455D01*
X17577978Y-5942690D01*
X17689000Y-5384542D01*
X17689000Y-4815458D01*
X17577978Y-4257310D01*
X17360199Y-3731545D01*
X17044033Y-3258370D01*
X16641630Y-2855967D01*
X16168455Y-2539801D01*
X15642690Y-2322022D01*
X15084542Y-2211000D01*
X14515458Y-2211000D01*
X13957310Y-2322022D01*
X13592817Y-2473000D01*
X12490989Y-2473000D01*
X12381885Y-2209600D01*
X12025993Y-1676971D01*
X11573029Y-1224007D01*
X11040400Y-868115D01*
X10448573Y-622973D01*
X9820294Y-498000D01*
X9179706Y-498000D01*
X8551427Y-622973D01*
X7959600Y-868115D01*
X7620330Y-1094809D01*
X8928816Y213677D01*
X14830497Y213677D01*
X14830497Y-213677D01*
X14913870Y-632821D01*
X15077412Y-1027645D01*
X15314837Y-1382977D01*
X15617023Y-1685163D01*
X15972355Y-1922588D01*
X16367179Y-2086130D01*
X16786323Y-2169503D01*
X17213677Y-2169503D01*
X17632821Y-2086130D01*
X18027645Y-1922588D01*
X18382977Y-1685163D01*
X18685163Y-1382977D01*
X18922588Y-1027645D01*
X19086130Y-632821D01*
X19169503Y-213677D01*
X19169503Y213677D01*
X19086130Y632821D01*
X18922588Y1027645D01*
X18685163Y1382977D01*
X18382977Y1685163D01*
X18027645Y1922588D01*
X17632821Y2086130D01*
X17213677Y2169503D01*
X16786323Y2169503D01*
X16367179Y2086130D01*
X15972355Y1922588D01*
X15617023Y1685163D01*
X15314837Y1382977D01*
X15077412Y1027645D01*
X14913870Y632821D01*
X14830497Y213677D01*
X8928816Y213677D01*
X15974673Y7259534D01*
X16168455Y7339801D01*
X16641630Y7655967D01*
X17044033Y8058370D01*
X17360199Y8531545D01*
X17577978Y9057310D01*
X17598725Y9161613D01*
X18293116Y7696068D01*
X18901711Y6049205D01*
X19362375Y4354998D01*
X19671502Y2626707D01*
X19826672Y877859D01*
X19826672Y-877859D01*
X19671502Y-2626707D01*
X19362375Y-4354998D01*
X18901711Y-6049205D01*
X18293116Y-7696068D01*
X17541353Y-9282700D01*
X16652304Y-10796682D01*
X15632929Y-12226165D01*
X14491205Y-13559961D01*
X13236067Y-14787633D01*
X11877340Y-15899571D01*
X10425656Y-16887074D01*
X8892377Y-17742412D01*
X7289503Y-18458892D01*
X5629579Y-19030907D01*
X3925596Y-19453978D01*
X2190890Y-19724796D01*
X439037Y-19841240D01*
X-1316252Y-19802400D01*
X-3061239Y-19608579D01*
X-4782268Y-19261295D01*
X-6465870Y-18763264D01*
X-8098867Y-18118386D01*
X-9668480Y-17331707D01*
X-11162423Y-16409384D01*
X-12569006Y-15358635D01*
X-13877219Y-14187684D01*
X-14087865Y-13962571D01*
X-12840037Y-13962571D01*
X-12839327Y-13972238D01*
X-12839327Y-13972248D01*
X-12839325Y-13972257D01*
X-12823674Y-14166786D01*
X-12812517Y-14228795D01*
X-12802231Y-14290928D01*
X-12799657Y-14300273D01*
X-12799655Y-14300283D01*
X-12799651Y-14300292D01*
X-12746514Y-14488076D01*
X-12723544Y-14546688D01*
X-12701369Y-14605684D01*
X-12697024Y-14614361D01*
X-12608421Y-14788255D01*
X-12574490Y-14841313D01*
X-12541288Y-14894861D01*
X-12535346Y-14902521D01*
X-12535343Y-14902526D01*
X-12535340Y-14902529D01*
X-12414649Y-15055901D01*
X-12371045Y-15101371D01*
X-12328090Y-15147434D01*
X-12320766Y-15153801D01*
X-12172582Y-15280810D01*
X-12172562Y-15280824D01*
X-12146890Y-15302847D01*
X-10288833Y-16603873D01*
X-10262809Y-16618522D01*
X-10257825Y-16622064D01*
X-10249370Y-16626828D01*
X-10078675Y-16721447D01*
X-10020875Y-16746459D01*
X-9963406Y-16772286D01*
X-9954187Y-16775317D01*
X-9768364Y-16834978D01*
X-9706815Y-16848285D01*
X-9645421Y-16862459D01*
X-9635789Y-16863642D01*
X-9441918Y-16886074D01*
X-9378932Y-16887174D01*
X-9315975Y-16889152D01*
X-9306308Y-16888442D01*
X-9306298Y-16888442D01*
X-9306289Y-16888440D01*
X-9111760Y-16872789D01*
X-9049751Y-16861632D01*
X-8987618Y-16851346D01*
X-8978273Y-16848772D01*
X-8978263Y-16848770D01*
X-8978254Y-16848766D01*
X-8790470Y-16795629D01*
X-8731858Y-16772659D01*
X-8672862Y-16750484D01*
X-8664185Y-16746139D01*
X-8490291Y-16657536D01*
X-8437233Y-16623605D01*
X-8383685Y-16590403D01*
X-8376025Y-16584461D01*
X-8376020Y-16584458D01*
X-8376016Y-16584454D01*
X-8222645Y-16463764D01*
X-8177175Y-16420160D01*
X-8131112Y-16377205D01*
X-8124745Y-16369881D01*
X-7997736Y-16221697D01*
X-7997722Y-16221677D01*
X-7975699Y-16196005D01*
X-6445242Y-14010287D01*
X-6430594Y-13984265D01*
X-6427051Y-13979279D01*
X-6422287Y-13970824D01*
X-6327668Y-13800129D01*
X-6302656Y-13742329D01*
X-6276829Y-13684860D01*
X-6273798Y-13675641D01*
X-6214137Y-13489818D01*
X-6200830Y-13428269D01*
X-6186656Y-13366875D01*
X-6185473Y-13357243D01*
X-6163041Y-13163372D01*
X-6161941Y-13100387D01*
X-6159963Y-13037430D01*
X-6160673Y-13027762D01*
X-6160673Y-13027752D01*
X-6160675Y-13027743D01*
X-6176326Y-12833214D01*
X-6187478Y-12771231D01*
X-6197769Y-12709073D01*
X-6200343Y-12699727D01*
X-6200345Y-12699717D01*
X-6200349Y-12699708D01*
X-6253486Y-12511925D01*
X-6276447Y-12453336D01*
X-6298631Y-12394316D01*
X-6302976Y-12385639D01*
X-6391579Y-12211744D01*
X-6425516Y-12158678D01*
X-6458712Y-12105139D01*
X-6464660Y-12097471D01*
X-6585352Y-11944099D01*
X-6628936Y-11898649D01*
X-6671910Y-11852566D01*
X-6679234Y-11846199D01*
X-6827418Y-11719190D01*
X-6827432Y-11719180D01*
X-6853110Y-11697152D01*
X-8711168Y-10396127D01*
X-8737185Y-10381482D01*
X-8742175Y-10377936D01*
X-8750630Y-10373172D01*
X-8921326Y-10278553D01*
X-8979125Y-10253541D01*
X-9036593Y-10227714D01*
X-9045804Y-10224686D01*
X-9045810Y-10224683D01*
X-9045816Y-10224682D01*
X-9231636Y-10165022D01*
X-9293185Y-10151715D01*
X-9354579Y-10137541D01*
X-9364211Y-10136358D01*
X-9558083Y-10113926D01*
X-9621066Y-10112826D01*
X-9684024Y-10110848D01*
X-9693692Y-10111558D01*
X-9693702Y-10111558D01*
X-9693711Y-10111560D01*
X-9888240Y-10127211D01*
X-9950223Y-10138363D01*
X-10012381Y-10148654D01*
X-10021727Y-10151228D01*
X-10021737Y-10151230D01*
X-10021746Y-10151234D01*
X-10209529Y-10204371D01*
X-10268118Y-10227332D01*
X-10327138Y-10249516D01*
X-10335815Y-10253861D01*
X-10509710Y-10342464D01*
X-10562776Y-10376401D01*
X-10616315Y-10409597D01*
X-10623978Y-10415541D01*
X-10623981Y-10415543D01*
X-10623983Y-10415545D01*
X-10777355Y-10536237D01*
X-10822805Y-10579821D01*
X-10868888Y-10622795D01*
X-10875255Y-10630119D01*
X-11002264Y-10778303D01*
X-11002275Y-10778319D01*
X-11024302Y-10803995D01*
X-12554758Y-12989714D01*
X-12569403Y-13015731D01*
X-12572949Y-13020721D01*
X-12577713Y-13029176D01*
X-12672332Y-13199872D01*
X-12697344Y-13257671D01*
X-12723171Y-13315139D01*
X-12726199Y-13324350D01*
X-12726202Y-13324356D01*
X-12726202Y-13324358D01*
X-12785863Y-13510182D01*
X-12799170Y-13571731D01*
X-12813344Y-13633125D01*
X-12814527Y-13642757D01*
X-12836959Y-13836629D01*
X-12838059Y-13899613D01*
X-12840037Y-13962571D01*
X-14087865Y-13962571D01*
X-15076824Y-12905695D01*
X-16158432Y-11522701D01*
X-17113579Y-10049527D01*
X-17934788Y-8497701D01*
X-18615634Y-6879370D01*
X-19150787Y-5207198D01*
X-19536060Y-3494273D01*
X-19768436Y-1754000D01*
X-19846097Y0D01*
X-19836637Y213677D01*
X-19169503Y213677D01*
X-19169503Y-213677D01*
X-19086130Y-632821D01*
X-18922588Y-1027645D01*
X-18685163Y-1382977D01*
X-18382977Y-1685163D01*
X-18027645Y-1922588D01*
X-17632821Y-2086130D01*
X-17213677Y-2169503D01*
X-16786323Y-2169503D01*
X-16367179Y-2086130D01*
X-15972355Y-1922588D01*
X-15617023Y-1685163D01*
X-15314837Y-1382977D01*
X-15077412Y-1027645D01*
X-14913870Y-632821D01*
X-14830497Y-213677D01*
X-14830497Y213677D01*
X-14913870Y632821D01*
X-15077412Y1027645D01*
X-15314837Y1382977D01*
X-15617023Y1685163D01*
X-15972355Y1922588D01*
X-16367179Y2086130D01*
X-16786323Y2169503D01*
X-17213677Y2169503D01*
X-17632821Y2086130D01*
X-18027645Y1922588D01*
X-18382977Y1685163D01*
X-18685163Y1382977D01*
X-18922588Y1027645D01*
X-19086130Y632821D01*
X-19169503Y213677D01*
X-19836637Y213677D01*
X-19768436Y1754000D01*
X-19536060Y3494273D01*
X-19150787Y5207198D01*
X-18615634Y6879370D01*
X-17934788Y8497701D01*
X-17113579Y10049527D01*
X-17081187Y10099488D01*
X-16390217Y10099488D01*
X-16348787Y9819870D01*
X-16253603Y9553708D01*
X-16188384Y9431691D01*
X-16201185Y9421185D01*
X-16280537Y9324494D01*
X-16339502Y9214180D01*
X-16375812Y9094482D01*
X-16388072Y8970000D01*
X-16388072Y7370000D01*
X-16375812Y7245518D01*
X-16339502Y7125820D01*
X-16280537Y7015506D01*
X-16201185Y6918815D01*
X-16104494Y6839463D01*
X-15994180Y6780498D01*
X-15874482Y6744188D01*
X-15750000Y6731928D01*
X-14150000Y6731928D01*
X-14025518Y6744188D01*
X-13905820Y6780498D01*
X-13795506Y6839463D01*
X-13698815Y6918815D01*
X-13619463Y7015506D01*
X-13560498Y7125820D01*
X-13524188Y7245518D01*
X-13511928Y7370000D01*
X-13511928Y8970000D01*
X-13524188Y9094482D01*
X-13560498Y9214180D01*
X-13619463Y9324494D01*
X-13698815Y9421185D01*
X-13711758Y9431807D01*
X-13592429Y9683996D01*
X-13523700Y9958184D01*
X-13509783Y10240512D01*
X-13551213Y10520130D01*
X-13646397Y10786292D01*
X-13713329Y10911514D01*
X-13957298Y10983097D01*
X-14770395Y10170000D01*
X-14756253Y10155858D01*
X-14935858Y9976253D01*
X-14950000Y9990395D01*
X-14964143Y9976253D01*
X-15143748Y10155858D01*
X-15129605Y10170000D01*
X-15942702Y10983097D01*
X-16186671Y10911514D01*
X-16307571Y10656004D01*
X-16376300Y10381816D01*
X-16390217Y10099488D01*
X-17081187Y10099488D01*
X-16391842Y11162702D01*
X-15763097Y11162702D01*
X-14950000Y10349605D01*
X-14136903Y11162702D01*
X-14208486Y11406671D01*
X-14463996Y11527571D01*
X-14738184Y11596300D01*
X-15020512Y11610217D01*
X-15300130Y11568787D01*
X-15566292Y11473603D01*
X-15691514Y11406671D01*
X-15763097Y11162702D01*
X-16391842Y11162702D01*
X-16158432Y11522701D01*
X-15076824Y12905695D01*
X-14124571Y13923345D01*
X-11260000Y13923345D01*
X-11260000Y13576655D01*
X-11192364Y13236627D01*
X-11059692Y12916327D01*
X-10867081Y12628065D01*
X-10621935Y12382919D01*
X-10333673Y12190308D01*
X-10013373Y12057636D01*
X-9673345Y11990000D01*
X-9326655Y11990000D01*
X-8986627Y12057636D01*
X-8666327Y12190308D01*
X-8378065Y12382919D01*
X-8135984Y12625000D01*
X6736928Y12625000D01*
X6749188Y12500518D01*
X6785498Y12380820D01*
X6844463Y12270506D01*
X6923815Y12173815D01*
X7020506Y12094463D01*
X7130820Y12035498D01*
X7250518Y11999188D01*
X7375000Y11986928D01*
X8214250Y11990000D01*
X8373000Y12148750D01*
X8373000Y13623000D01*
X8627000Y13623000D01*
X8627000Y12148750D01*
X8785750Y11990000D01*
X9625000Y11986928D01*
X9749482Y11999188D01*
X9869180Y12035498D01*
X9979494Y12094463D01*
X10076185Y12173815D01*
X10155537Y12270506D01*
X10214502Y12380820D01*
X10250812Y12500518D01*
X10263072Y12625000D01*
X10260000Y13464250D01*
X10101250Y13623000D01*
X8627000Y13623000D01*
X8373000Y13623000D01*
X6898750Y13623000D01*
X6740000Y13464250D01*
X6736928Y12625000D01*
X-8135984Y12625000D01*
X-8132919Y12628065D01*
X-7940308Y12916327D01*
X-7807636Y13236627D01*
X-7740000Y13576655D01*
X-7740000Y13923345D01*
X-7807636Y14263373D01*
X-7940308Y14583673D01*
X-8132919Y14871935D01*
X-8135984Y14875000D01*
X6736928Y14875000D01*
X6740000Y14035750D01*
X6898750Y13877000D01*
X8373000Y13877000D01*
X8373000Y15351250D01*
X8627000Y15351250D01*
X8627000Y13877000D01*
X10101250Y13877000D01*
X10260000Y14035750D01*
X10263072Y14875000D01*
X10250812Y14999482D01*
X10214502Y15119180D01*
X10155537Y15229494D01*
X10076185Y15326185D01*
X9979494Y15405537D01*
X9869180Y15464502D01*
X9749482Y15500812D01*
X9625000Y15513072D01*
X8785750Y15510000D01*
X8627000Y15351250D01*
X8373000Y15351250D01*
X8214250Y15510000D01*
X7375000Y15513072D01*
X7250518Y15500812D01*
X7130820Y15464502D01*
X7020506Y15405537D01*
X6923815Y15326185D01*
X6844463Y15229494D01*
X6785498Y15119180D01*
X6749188Y14999482D01*
X6736928Y14875000D01*
X-8135984Y14875000D01*
X-8378065Y15117081D01*
X-8666327Y15309692D01*
X-8986627Y15442364D01*
X-9326655Y15510000D01*
X-9673345Y15510000D01*
X-10013373Y15442364D01*
X-10333673Y15309692D01*
X-10621935Y15117081D01*
X-10867081Y14871935D01*
X-11059692Y14583673D01*
X-11192364Y14263373D01*
X-11260000Y13923345D01*
X-14124571Y13923345D01*
X-13877219Y14187684D01*
X-12569006Y15358635D01*
X-11162423Y16409384D01*
X-9668480Y17331707D01*
X-8098867Y18118386D01*
X-6465870Y18763264D01*
X-4782268Y19261295D01*
X-3061239Y19608579D01*
X-2605656Y19659182D01*
X-2650537Y19604494D01*
X-2709502Y19494180D01*
X-2745812Y19374482D01*
X-2758072Y19250000D01*
X-2758072Y17550000D01*
X-2745812Y17425518D01*
X-2709502Y17305820D01*
X-2650537Y17195506D01*
X-2571185Y17098815D01*
X-2474494Y17019463D01*
X-2364180Y16960498D01*
X-2244482Y16924188D01*
X-2120000Y16911928D01*
X-420000Y16911928D01*
X-295518Y16924188D01*
X-175820Y16960498D01*
X-65506Y17019463D01*
X31185Y17098815D01*
X110537Y17195506D01*
X169502Y17305820D01*
X193966Y17386466D01*
X269731Y17302412D01*
X503080Y17128359D01*
X765901Y17003175D01*
X913110Y16958524D01*
X1143000Y17079845D01*
X1143000Y18273000D01*
X1397000Y18273000D01*
X1397000Y17079845D01*
X1626890Y16958524D01*
X1774099Y17003175D01*
X2036920Y17128359D01*
X2270269Y17302412D01*
X2465178Y17518645D01*
X2614157Y17768748D01*
X2711481Y18043109D01*
X2590814Y18273000D01*
X1397000Y18273000D01*
X1143000Y18273000D01*
X1123000Y18273000D01*
X1123000Y18527000D01*
X1143000Y18527000D01*
X1143000Y18547000D01*
X1397000Y18547000D01*
X1397000Y18527000D01*
X2590814Y18527000D01*
X2711481Y18756891D01*
X2614157Y19031252D01*
X2465178Y19281355D01*
X2270269Y19497588D01*
X2036920Y19671641D01*
X1882252Y19745311D01*
X2190890Y19724796D01*
G37*
%TD.AperFunction*%
%TD*%
M02*
