%TF.GenerationSoftware,KiCad,Pcbnew,(5.1.9-0-10_14)*%
%TF.CreationDate,2024-01-23T11:46:41+01:00*%
%TF.ProjectId,berker-sensor-acdc,6265726b-6572-42d7-9365-6e736f722d61,rev?*%
%TF.SameCoordinates,Original*%
%TF.FileFunction,Copper,L2,Bot*%
%TF.FilePolarity,Positive*%
%FSLAX46Y46*%
G04 Gerber Fmt 4.6, Leading zero omitted, Abs format (unit mm)*
G04 Created by KiCad (PCBNEW (5.1.9-0-10_14)) date 2024-01-23 11:46:41*
%MOMM*%
%LPD*%
G01*
G04 APERTURE LIST*
%TA.AperFunction,ComponentPad*%
%ADD10C,2.250000*%
%TD*%
%TA.AperFunction,ComponentPad*%
%ADD11R,2.250000X2.250000*%
%TD*%
%TA.AperFunction,ComponentPad*%
%ADD12C,1.524000*%
%TD*%
%TA.AperFunction,ComponentPad*%
%ADD13O,1.700000X1.700000*%
%TD*%
%TA.AperFunction,ComponentPad*%
%ADD14R,1.700000X1.700000*%
%TD*%
%TA.AperFunction,ComponentPad*%
%ADD15C,1.600000*%
%TD*%
%TA.AperFunction,ComponentPad*%
%ADD16R,1.600000X1.600000*%
%TD*%
%TA.AperFunction,Conductor*%
%ADD17C,1.000000*%
%TD*%
%TA.AperFunction,Conductor*%
%ADD18C,0.254000*%
%TD*%
%TA.AperFunction,Conductor*%
%ADD19C,0.100000*%
%TD*%
G04 APERTURE END LIST*
%TO.P,J2,1*%
%TO.N,NEUT*%
%TA.AperFunction,SMDPad,CuDef*%
G36*
G01*
X-12405738Y-10000450D02*
X-11852811Y-10387614D01*
G75*
G02*
X-11769929Y-10857660I-193582J-276464D01*
G01*
X-12759348Y-12270698D01*
G75*
G02*
X-13229394Y-12353580I-276464J193582D01*
G01*
X-13782321Y-11966416D01*
G75*
G02*
X-13865203Y-11496370I193582J276464D01*
G01*
X-12875784Y-10083332D01*
G75*
G02*
X-12405738Y-10000450I276464J-193582D01*
G01*
G37*
%TD.AperFunction*%
%TA.AperFunction,SMDPad,CuDef*%
G36*
G01*
X-5770606Y-14646420D02*
X-5217679Y-15033584D01*
G75*
G02*
X-5134797Y-15503630I-193582J-276464D01*
G01*
X-6124216Y-16916668D01*
G75*
G02*
X-6594262Y-16999550I-276464J193582D01*
G01*
X-7147189Y-16612386D01*
G75*
G02*
X-7230071Y-16142340I193582J276464D01*
G01*
X-6240652Y-14729302D01*
G75*
G02*
X-5770606Y-14646420I276464J-193582D01*
G01*
G37*
%TD.AperFunction*%
%TD*%
%TO.P,J1,1*%
%TO.N,LINE*%
%TA.AperFunction,SMDPad,CuDef*%
G36*
G01*
X13782321Y-11966416D02*
X13229394Y-12353580D01*
G75*
G02*
X12759348Y-12270698I-193582J276464D01*
G01*
X11769929Y-10857660D01*
G75*
G02*
X11852811Y-10387614I276464J193582D01*
G01*
X12405738Y-10000450D01*
G75*
G02*
X12875784Y-10083332I193582J-276464D01*
G01*
X13865203Y-11496370D01*
G75*
G02*
X13782321Y-11966416I-276464J-193582D01*
G01*
G37*
%TD.AperFunction*%
%TA.AperFunction,SMDPad,CuDef*%
G36*
G01*
X7147189Y-16612386D02*
X6594262Y-16999550D01*
G75*
G02*
X6124216Y-16916668I-193582J276464D01*
G01*
X5134797Y-15503630D01*
G75*
G02*
X5217679Y-15033584I276464J193582D01*
G01*
X5770606Y-14646420D01*
G75*
G02*
X6240652Y-14729302I193582J-276464D01*
G01*
X7230071Y-16142340D01*
G75*
G02*
X7147189Y-16612386I-276464J-193582D01*
G01*
G37*
%TD.AperFunction*%
%TD*%
D10*
%TO.P,U1,3*%
%TO.N,NEUT*%
X-9500000Y-3750000D03*
%TO.P,U1,2*%
%TO.N,+3V3*%
X-9500000Y13750000D03*
%TO.P,U1,4*%
%TO.N,Net-(C1-Pad1)*%
X9500000Y-3750000D03*
D11*
%TO.P,U1,1*%
%TO.N,GND*%
X8500000Y13750000D03*
%TD*%
D12*
%TO.P,F1,2*%
%TO.N,LINE*%
X0Y-16540000D03*
%TO.P,F1,1*%
%TO.N,Net-(C1-Pad1)*%
X0Y-11460000D03*
%TD*%
D13*
%TO.P,J3,2*%
%TO.N,GND*%
X1270000Y18400000D03*
D14*
%TO.P,J3,1*%
%TO.N,+3V3*%
X-1270000Y18400000D03*
%TD*%
D12*
%TO.P,C1,2*%
%TO.N,NEUT*%
X14800000Y9900000D03*
%TO.P,C1,1*%
%TO.N,Net-(C1-Pad1)*%
X14800000Y-5100000D03*
%TD*%
D15*
%TO.P,C2,2*%
%TO.N,GND*%
X-14950000Y10170000D03*
D16*
%TO.P,C2,1*%
%TO.N,+3V3*%
X-14950000Y8170000D03*
%TD*%
D17*
%TO.N,NEUT*%
X-12817566Y-11177015D02*
X-12817566Y-11132434D01*
X-6182434Y-15822985D02*
X-6162985Y-15822985D01*
X-3600000Y-12000000D02*
X-6182434Y-15822985D01*
X-10300000Y-7400000D02*
X-3600000Y-12000000D01*
X-12817566Y-11177015D02*
X-10300000Y-7400000D01*
X-9500000Y-6600000D02*
X-10300000Y-7400000D01*
X-9500000Y-3750000D02*
X-9500000Y-6600000D01*
%TO.N,LINE*%
X10240000Y-7410000D02*
X3440000Y-12130000D01*
X12817566Y-11177015D02*
X10240000Y-7410000D01*
X4305078Y-13294922D02*
X6182434Y-15822985D01*
X0Y-16540000D02*
X4305078Y-13294922D01*
X3440000Y-12130000D02*
X4305078Y-13294922D01*
%TO.N,+3V3*%
X-1270000Y18400000D02*
X-1270000Y16630000D01*
X-4150000Y13750000D02*
X-9500000Y13750000D01*
X-1270000Y16630000D02*
X-4150000Y13750000D01*
X-14950000Y8170000D02*
X-11090000Y8170000D01*
X-9500000Y9760000D02*
X-9500000Y13750000D01*
X-11090000Y8170000D02*
X-9500000Y9760000D01*
%TD*%
D18*
%TO.N,GND*%
X2190890Y19724796D02*
X3925596Y19453978D01*
X5629579Y19030907D01*
X7289503Y18458892D01*
X8892377Y17742412D01*
X10425656Y16887074D01*
X11877340Y15899571D01*
X13236067Y14787633D01*
X14491205Y13559961D01*
X15164812Y12773033D01*
X15084542Y12789000D01*
X14515458Y12789000D01*
X13957310Y12677978D01*
X13431545Y12460199D01*
X12958370Y12144033D01*
X12555967Y11741630D01*
X12239801Y11268455D01*
X12022022Y10742690D01*
X11911000Y10184542D01*
X11911000Y9615458D01*
X12022022Y9057310D01*
X12239801Y8531545D01*
X12555967Y8058370D01*
X12958370Y7655967D01*
X13431545Y7339801D01*
X13957310Y7122022D01*
X14515458Y7011000D01*
X15084542Y7011000D01*
X15642690Y7122022D01*
X16168455Y7339801D01*
X16641630Y7655967D01*
X17044033Y8058370D01*
X17360199Y8531545D01*
X17577978Y9057310D01*
X17598725Y9161613D01*
X18293116Y7696068D01*
X18901711Y6049205D01*
X19362375Y4354998D01*
X19671502Y2626707D01*
X19826672Y877859D01*
X19826672Y-877859D01*
X19671502Y-2626707D01*
X19362375Y-4354998D01*
X18901711Y-6049205D01*
X18293116Y-7696068D01*
X17541353Y-9282700D01*
X16652304Y-10796682D01*
X16061620Y-11625006D01*
X16004868Y-11154310D01*
X15853944Y-10693239D01*
X15615970Y-10270471D01*
X14626551Y-8857433D01*
X14310670Y-8489213D01*
X13988614Y-8236463D01*
X13658684Y-7754283D01*
X13957310Y-7877978D01*
X14515458Y-7989000D01*
X15084542Y-7989000D01*
X15642690Y-7877978D01*
X16168455Y-7660199D01*
X16641630Y-7344033D01*
X17044033Y-6941630D01*
X17360199Y-6468455D01*
X17577978Y-5942690D01*
X17689000Y-5384542D01*
X17689000Y-4815458D01*
X17577978Y-4257310D01*
X17360199Y-3731545D01*
X17044033Y-3258370D01*
X16641630Y-2855967D01*
X16168455Y-2539801D01*
X15642690Y-2322022D01*
X15084542Y-2211000D01*
X14515458Y-2211000D01*
X13957310Y-2322022D01*
X13431545Y-2539801D01*
X12958370Y-2855967D01*
X12691049Y-3123288D01*
X12627027Y-2801427D01*
X12381885Y-2209600D01*
X12025993Y-1676971D01*
X11573029Y-1224007D01*
X11040400Y-868115D01*
X10448573Y-622973D01*
X9820294Y-498000D01*
X9179706Y-498000D01*
X8551427Y-622973D01*
X7959600Y-868115D01*
X7426971Y-1224007D01*
X6974007Y-1676971D01*
X6618115Y-2209600D01*
X6372973Y-2801427D01*
X6248000Y-3429706D01*
X6248000Y-4070294D01*
X6372973Y-4698573D01*
X6618115Y-5290400D01*
X6974007Y-5823029D01*
X7361305Y-6210327D01*
X2309740Y-9716708D01*
X2244033Y-9618370D01*
X1841630Y-9215967D01*
X1368455Y-8899801D01*
X842690Y-8682022D01*
X284542Y-8571000D01*
X-284542Y-8571000D01*
X-842690Y-8682022D01*
X-1368455Y-8899801D01*
X-1841630Y-9215967D01*
X-2244033Y-9618370D01*
X-2301764Y-9704770D01*
X-6862927Y-6573225D01*
X-6873000Y-6470955D01*
X-6873000Y-5671862D01*
X-6618115Y-5290400D01*
X-6372973Y-4698573D01*
X-6248000Y-4070294D01*
X-6248000Y-3429706D01*
X-6372973Y-2801427D01*
X-6618115Y-2209600D01*
X-6974007Y-1676971D01*
X-7426971Y-1224007D01*
X-7959600Y-868115D01*
X-8551427Y-622973D01*
X-9179706Y-498000D01*
X-9820294Y-498000D01*
X-10448573Y-622973D01*
X-11040400Y-868115D01*
X-11573029Y-1224007D01*
X-12025993Y-1676971D01*
X-12381885Y-2209600D01*
X-12627027Y-2801427D01*
X-12752000Y-3429706D01*
X-12752000Y-4070294D01*
X-12627027Y-4698573D01*
X-12381885Y-5290400D01*
X-12195874Y-5568785D01*
X-12321180Y-5721822D01*
X-12476178Y-5905907D01*
X-12484239Y-5920541D01*
X-12494838Y-5933456D01*
X-12556661Y-6049118D01*
X-14043173Y-8279281D01*
X-14310671Y-8489215D01*
X-14626551Y-8857433D01*
X-15615970Y-10270471D01*
X-15853943Y-10693237D01*
X-16004867Y-11154308D01*
X-16062941Y-11635964D01*
X-16062192Y-11645758D01*
X-16158432Y-11522701D01*
X-17113579Y-10049527D01*
X-17934788Y-8497701D01*
X-18615634Y-6879370D01*
X-19150787Y-5207198D01*
X-19536060Y-3494273D01*
X-19768436Y-1754000D01*
X-19846097Y0D01*
X-19836637Y213677D01*
X-19169503Y213677D01*
X-19169503Y-213677D01*
X-19086130Y-632821D01*
X-18922588Y-1027645D01*
X-18685163Y-1382977D01*
X-18382977Y-1685163D01*
X-18027645Y-1922588D01*
X-17632821Y-2086130D01*
X-17213677Y-2169503D01*
X-16786323Y-2169503D01*
X-16367179Y-2086130D01*
X-15972355Y-1922588D01*
X-15617023Y-1685163D01*
X-15314837Y-1382977D01*
X-15077412Y-1027645D01*
X-14913870Y-632821D01*
X-14830497Y-213677D01*
X-14830497Y213677D01*
X14830497Y213677D01*
X14830497Y-213677D01*
X14913870Y-632821D01*
X15077412Y-1027645D01*
X15314837Y-1382977D01*
X15617023Y-1685163D01*
X15972355Y-1922588D01*
X16367179Y-2086130D01*
X16786323Y-2169503D01*
X17213677Y-2169503D01*
X17632821Y-2086130D01*
X18027645Y-1922588D01*
X18382977Y-1685163D01*
X18685163Y-1382977D01*
X18922588Y-1027645D01*
X19086130Y-632821D01*
X19169503Y-213677D01*
X19169503Y213677D01*
X19086130Y632821D01*
X18922588Y1027645D01*
X18685163Y1382977D01*
X18382977Y1685163D01*
X18027645Y1922588D01*
X17632821Y2086130D01*
X17213677Y2169503D01*
X16786323Y2169503D01*
X16367179Y2086130D01*
X15972355Y1922588D01*
X15617023Y1685163D01*
X15314837Y1382977D01*
X15077412Y1027645D01*
X14913870Y632821D01*
X14830497Y213677D01*
X-14830497Y213677D01*
X-14913870Y632821D01*
X-15077412Y1027645D01*
X-15314837Y1382977D01*
X-15617023Y1685163D01*
X-15972355Y1922588D01*
X-16367179Y2086130D01*
X-16786323Y2169503D01*
X-17213677Y2169503D01*
X-17632821Y2086130D01*
X-18027645Y1922588D01*
X-18382977Y1685163D01*
X-18685163Y1382977D01*
X-18922588Y1027645D01*
X-19086130Y632821D01*
X-19169503Y213677D01*
X-19836637Y213677D01*
X-19768436Y1754000D01*
X-19536060Y3494273D01*
X-19150787Y5207198D01*
X-18615634Y6879370D01*
X-17934788Y8497701D01*
X-17113579Y10049527D01*
X-16391841Y11162702D01*
X-15763097Y11162702D01*
X-14950000Y10349605D01*
X-14136903Y11162702D01*
X-14208486Y11406671D01*
X-14463996Y11527571D01*
X-14738184Y11596300D01*
X-15020512Y11610217D01*
X-15300130Y11568787D01*
X-15566292Y11473603D01*
X-15691514Y11406671D01*
X-15763097Y11162702D01*
X-16391841Y11162702D01*
X-16158432Y11522701D01*
X-15076824Y12905695D01*
X-13877219Y14187684D01*
X-12569006Y15358635D01*
X-11162423Y16409384D01*
X-9668480Y17331707D01*
X-8098867Y18118386D01*
X-6465870Y18763264D01*
X-4782268Y19261295D01*
X-3061239Y19608579D01*
X-2605656Y19659182D01*
X-2650537Y19604494D01*
X-2709502Y19494180D01*
X-2745812Y19374482D01*
X-2758072Y19250000D01*
X-2758072Y17550000D01*
X-2745812Y17425518D01*
X-2709502Y17305820D01*
X-2650537Y17195506D01*
X-2571185Y17098815D01*
X-2480632Y17024500D01*
X-4620131Y14885000D01*
X-8145984Y14885000D01*
X-8378065Y15117081D01*
X-8666327Y15309692D01*
X-8986627Y15442364D01*
X-9326655Y15510000D01*
X-9673345Y15510000D01*
X-10013373Y15442364D01*
X-10333673Y15309692D01*
X-10621935Y15117081D01*
X-10867081Y14871935D01*
X-11059692Y14583673D01*
X-11192364Y14263373D01*
X-11260000Y13923345D01*
X-11260000Y13576655D01*
X-11192364Y13236627D01*
X-11059692Y12916327D01*
X-10867081Y12628065D01*
X-10634999Y12395983D01*
X-10635000Y10230133D01*
X-11560131Y9305000D01*
X-13609043Y9305000D01*
X-13619463Y9324494D01*
X-13698815Y9421185D01*
X-13711758Y9431807D01*
X-13592429Y9683996D01*
X-13523700Y9958184D01*
X-13509783Y10240512D01*
X-13551213Y10520130D01*
X-13646397Y10786292D01*
X-13713329Y10911514D01*
X-13957298Y10983097D01*
X-14770395Y10170000D01*
X-14756253Y10155858D01*
X-14935858Y9976253D01*
X-14950000Y9990395D01*
X-14964143Y9976253D01*
X-15143748Y10155858D01*
X-15129605Y10170000D01*
X-15942702Y10983097D01*
X-16186671Y10911514D01*
X-16307571Y10656004D01*
X-16376300Y10381816D01*
X-16390217Y10099488D01*
X-16348787Y9819870D01*
X-16253603Y9553708D01*
X-16188384Y9431691D01*
X-16201185Y9421185D01*
X-16280537Y9324494D01*
X-16339502Y9214180D01*
X-16375812Y9094482D01*
X-16388072Y8970000D01*
X-16388072Y7370000D01*
X-16375812Y7245518D01*
X-16339502Y7125820D01*
X-16280537Y7015506D01*
X-16201185Y6918815D01*
X-16104494Y6839463D01*
X-15994180Y6780498D01*
X-15874482Y6744188D01*
X-15750000Y6731928D01*
X-14150000Y6731928D01*
X-14025518Y6744188D01*
X-13905820Y6780498D01*
X-13795506Y6839463D01*
X-13698815Y6918815D01*
X-13619463Y7015506D01*
X-13609043Y7035000D01*
X-11145751Y7035000D01*
X-11090000Y7029509D01*
X-11034249Y7035000D01*
X-11034248Y7035000D01*
X-10867501Y7051423D01*
X-10653553Y7116324D01*
X-10456377Y7221716D01*
X-10283551Y7363551D01*
X-10248005Y7406864D01*
X-8736854Y8918013D01*
X-8693551Y8953551D01*
X-8551716Y9126377D01*
X-8446324Y9323553D01*
X-8381423Y9537501D01*
X-8365000Y9704248D01*
X-8365000Y9704249D01*
X-8359509Y9760000D01*
X-8365000Y9815752D01*
X-8365000Y12395984D01*
X-8145984Y12615000D01*
X-4205751Y12615000D01*
X-4150000Y12609509D01*
X-4094249Y12615000D01*
X-4094248Y12615000D01*
X-3992716Y12625000D01*
X6736928Y12625000D01*
X6749188Y12500518D01*
X6785498Y12380820D01*
X6844463Y12270506D01*
X6923815Y12173815D01*
X7020506Y12094463D01*
X7130820Y12035498D01*
X7250518Y11999188D01*
X7375000Y11986928D01*
X8214250Y11990000D01*
X8373000Y12148750D01*
X8373000Y13623000D01*
X8627000Y13623000D01*
X8627000Y12148750D01*
X8785750Y11990000D01*
X9625000Y11986928D01*
X9749482Y11999188D01*
X9869180Y12035498D01*
X9979494Y12094463D01*
X10076185Y12173815D01*
X10155537Y12270506D01*
X10214502Y12380820D01*
X10250812Y12500518D01*
X10263072Y12625000D01*
X10260000Y13464250D01*
X10101250Y13623000D01*
X8627000Y13623000D01*
X8373000Y13623000D01*
X6898750Y13623000D01*
X6740000Y13464250D01*
X6736928Y12625000D01*
X-3992716Y12625000D01*
X-3927501Y12631423D01*
X-3713553Y12696324D01*
X-3516377Y12801716D01*
X-3343551Y12943551D01*
X-3308004Y12986865D01*
X-1419869Y14875000D01*
X6736928Y14875000D01*
X6740000Y14035750D01*
X6898750Y13877000D01*
X8373000Y13877000D01*
X8373000Y15351250D01*
X8627000Y15351250D01*
X8627000Y13877000D01*
X10101250Y13877000D01*
X10260000Y14035750D01*
X10263072Y14875000D01*
X10250812Y14999482D01*
X10214502Y15119180D01*
X10155537Y15229494D01*
X10076185Y15326185D01*
X9979494Y15405537D01*
X9869180Y15464502D01*
X9749482Y15500812D01*
X9625000Y15513072D01*
X8785750Y15510000D01*
X8627000Y15351250D01*
X8373000Y15351250D01*
X8214250Y15510000D01*
X7375000Y15513072D01*
X7250518Y15500812D01*
X7130820Y15464502D01*
X7020506Y15405537D01*
X6923815Y15326185D01*
X6844463Y15229494D01*
X6785498Y15119180D01*
X6749188Y14999482D01*
X6736928Y14875000D01*
X-1419869Y14875000D01*
X-506859Y15788009D01*
X-463551Y15823551D01*
X-321716Y15996377D01*
X-216324Y16193553D01*
X-151423Y16407501D01*
X-135000Y16574248D01*
X-129509Y16629999D01*
X-135000Y16685751D01*
X-135000Y16982317D01*
X-65506Y17019463D01*
X31185Y17098815D01*
X110537Y17195506D01*
X169502Y17305820D01*
X193966Y17386466D01*
X269731Y17302412D01*
X503080Y17128359D01*
X765901Y17003175D01*
X913110Y16958524D01*
X1143000Y17079845D01*
X1143000Y18273000D01*
X1397000Y18273000D01*
X1397000Y17079845D01*
X1626890Y16958524D01*
X1774099Y17003175D01*
X2036920Y17128359D01*
X2270269Y17302412D01*
X2465178Y17518645D01*
X2614157Y17768748D01*
X2711481Y18043109D01*
X2590814Y18273000D01*
X1397000Y18273000D01*
X1143000Y18273000D01*
X1123000Y18273000D01*
X1123000Y18527000D01*
X1143000Y18527000D01*
X1143000Y18547000D01*
X1397000Y18547000D01*
X1397000Y18527000D01*
X2590814Y18527000D01*
X2711481Y18756891D01*
X2614157Y19031252D01*
X2465178Y19281355D01*
X2270269Y19497588D01*
X2036920Y19671641D01*
X1882252Y19745311D01*
X2190890Y19724796D01*
%TA.AperFunction,Conductor*%
D19*
G36*
X2190890Y19724796D02*
G01*
X3925596Y19453978D01*
X5629579Y19030907D01*
X7289503Y18458892D01*
X8892377Y17742412D01*
X10425656Y16887074D01*
X11877340Y15899571D01*
X13236067Y14787633D01*
X14491205Y13559961D01*
X15164812Y12773033D01*
X15084542Y12789000D01*
X14515458Y12789000D01*
X13957310Y12677978D01*
X13431545Y12460199D01*
X12958370Y12144033D01*
X12555967Y11741630D01*
X12239801Y11268455D01*
X12022022Y10742690D01*
X11911000Y10184542D01*
X11911000Y9615458D01*
X12022022Y9057310D01*
X12239801Y8531545D01*
X12555967Y8058370D01*
X12958370Y7655967D01*
X13431545Y7339801D01*
X13957310Y7122022D01*
X14515458Y7011000D01*
X15084542Y7011000D01*
X15642690Y7122022D01*
X16168455Y7339801D01*
X16641630Y7655967D01*
X17044033Y8058370D01*
X17360199Y8531545D01*
X17577978Y9057310D01*
X17598725Y9161613D01*
X18293116Y7696068D01*
X18901711Y6049205D01*
X19362375Y4354998D01*
X19671502Y2626707D01*
X19826672Y877859D01*
X19826672Y-877859D01*
X19671502Y-2626707D01*
X19362375Y-4354998D01*
X18901711Y-6049205D01*
X18293116Y-7696068D01*
X17541353Y-9282700D01*
X16652304Y-10796682D01*
X16061620Y-11625006D01*
X16004868Y-11154310D01*
X15853944Y-10693239D01*
X15615970Y-10270471D01*
X14626551Y-8857433D01*
X14310670Y-8489213D01*
X13988614Y-8236463D01*
X13658684Y-7754283D01*
X13957310Y-7877978D01*
X14515458Y-7989000D01*
X15084542Y-7989000D01*
X15642690Y-7877978D01*
X16168455Y-7660199D01*
X16641630Y-7344033D01*
X17044033Y-6941630D01*
X17360199Y-6468455D01*
X17577978Y-5942690D01*
X17689000Y-5384542D01*
X17689000Y-4815458D01*
X17577978Y-4257310D01*
X17360199Y-3731545D01*
X17044033Y-3258370D01*
X16641630Y-2855967D01*
X16168455Y-2539801D01*
X15642690Y-2322022D01*
X15084542Y-2211000D01*
X14515458Y-2211000D01*
X13957310Y-2322022D01*
X13431545Y-2539801D01*
X12958370Y-2855967D01*
X12691049Y-3123288D01*
X12627027Y-2801427D01*
X12381885Y-2209600D01*
X12025993Y-1676971D01*
X11573029Y-1224007D01*
X11040400Y-868115D01*
X10448573Y-622973D01*
X9820294Y-498000D01*
X9179706Y-498000D01*
X8551427Y-622973D01*
X7959600Y-868115D01*
X7426971Y-1224007D01*
X6974007Y-1676971D01*
X6618115Y-2209600D01*
X6372973Y-2801427D01*
X6248000Y-3429706D01*
X6248000Y-4070294D01*
X6372973Y-4698573D01*
X6618115Y-5290400D01*
X6974007Y-5823029D01*
X7361305Y-6210327D01*
X2309740Y-9716708D01*
X2244033Y-9618370D01*
X1841630Y-9215967D01*
X1368455Y-8899801D01*
X842690Y-8682022D01*
X284542Y-8571000D01*
X-284542Y-8571000D01*
X-842690Y-8682022D01*
X-1368455Y-8899801D01*
X-1841630Y-9215967D01*
X-2244033Y-9618370D01*
X-2301764Y-9704770D01*
X-6862927Y-6573225D01*
X-6873000Y-6470955D01*
X-6873000Y-5671862D01*
X-6618115Y-5290400D01*
X-6372973Y-4698573D01*
X-6248000Y-4070294D01*
X-6248000Y-3429706D01*
X-6372973Y-2801427D01*
X-6618115Y-2209600D01*
X-6974007Y-1676971D01*
X-7426971Y-1224007D01*
X-7959600Y-868115D01*
X-8551427Y-622973D01*
X-9179706Y-498000D01*
X-9820294Y-498000D01*
X-10448573Y-622973D01*
X-11040400Y-868115D01*
X-11573029Y-1224007D01*
X-12025993Y-1676971D01*
X-12381885Y-2209600D01*
X-12627027Y-2801427D01*
X-12752000Y-3429706D01*
X-12752000Y-4070294D01*
X-12627027Y-4698573D01*
X-12381885Y-5290400D01*
X-12195874Y-5568785D01*
X-12321180Y-5721822D01*
X-12476178Y-5905907D01*
X-12484239Y-5920541D01*
X-12494838Y-5933456D01*
X-12556661Y-6049118D01*
X-14043173Y-8279281D01*
X-14310671Y-8489215D01*
X-14626551Y-8857433D01*
X-15615970Y-10270471D01*
X-15853943Y-10693237D01*
X-16004867Y-11154308D01*
X-16062941Y-11635964D01*
X-16062192Y-11645758D01*
X-16158432Y-11522701D01*
X-17113579Y-10049527D01*
X-17934788Y-8497701D01*
X-18615634Y-6879370D01*
X-19150787Y-5207198D01*
X-19536060Y-3494273D01*
X-19768436Y-1754000D01*
X-19846097Y0D01*
X-19836637Y213677D01*
X-19169503Y213677D01*
X-19169503Y-213677D01*
X-19086130Y-632821D01*
X-18922588Y-1027645D01*
X-18685163Y-1382977D01*
X-18382977Y-1685163D01*
X-18027645Y-1922588D01*
X-17632821Y-2086130D01*
X-17213677Y-2169503D01*
X-16786323Y-2169503D01*
X-16367179Y-2086130D01*
X-15972355Y-1922588D01*
X-15617023Y-1685163D01*
X-15314837Y-1382977D01*
X-15077412Y-1027645D01*
X-14913870Y-632821D01*
X-14830497Y-213677D01*
X-14830497Y213677D01*
X14830497Y213677D01*
X14830497Y-213677D01*
X14913870Y-632821D01*
X15077412Y-1027645D01*
X15314837Y-1382977D01*
X15617023Y-1685163D01*
X15972355Y-1922588D01*
X16367179Y-2086130D01*
X16786323Y-2169503D01*
X17213677Y-2169503D01*
X17632821Y-2086130D01*
X18027645Y-1922588D01*
X18382977Y-1685163D01*
X18685163Y-1382977D01*
X18922588Y-1027645D01*
X19086130Y-632821D01*
X19169503Y-213677D01*
X19169503Y213677D01*
X19086130Y632821D01*
X18922588Y1027645D01*
X18685163Y1382977D01*
X18382977Y1685163D01*
X18027645Y1922588D01*
X17632821Y2086130D01*
X17213677Y2169503D01*
X16786323Y2169503D01*
X16367179Y2086130D01*
X15972355Y1922588D01*
X15617023Y1685163D01*
X15314837Y1382977D01*
X15077412Y1027645D01*
X14913870Y632821D01*
X14830497Y213677D01*
X-14830497Y213677D01*
X-14913870Y632821D01*
X-15077412Y1027645D01*
X-15314837Y1382977D01*
X-15617023Y1685163D01*
X-15972355Y1922588D01*
X-16367179Y2086130D01*
X-16786323Y2169503D01*
X-17213677Y2169503D01*
X-17632821Y2086130D01*
X-18027645Y1922588D01*
X-18382977Y1685163D01*
X-18685163Y1382977D01*
X-18922588Y1027645D01*
X-19086130Y632821D01*
X-19169503Y213677D01*
X-19836637Y213677D01*
X-19768436Y1754000D01*
X-19536060Y3494273D01*
X-19150787Y5207198D01*
X-18615634Y6879370D01*
X-17934788Y8497701D01*
X-17113579Y10049527D01*
X-16391841Y11162702D01*
X-15763097Y11162702D01*
X-14950000Y10349605D01*
X-14136903Y11162702D01*
X-14208486Y11406671D01*
X-14463996Y11527571D01*
X-14738184Y11596300D01*
X-15020512Y11610217D01*
X-15300130Y11568787D01*
X-15566292Y11473603D01*
X-15691514Y11406671D01*
X-15763097Y11162702D01*
X-16391841Y11162702D01*
X-16158432Y11522701D01*
X-15076824Y12905695D01*
X-13877219Y14187684D01*
X-12569006Y15358635D01*
X-11162423Y16409384D01*
X-9668480Y17331707D01*
X-8098867Y18118386D01*
X-6465870Y18763264D01*
X-4782268Y19261295D01*
X-3061239Y19608579D01*
X-2605656Y19659182D01*
X-2650537Y19604494D01*
X-2709502Y19494180D01*
X-2745812Y19374482D01*
X-2758072Y19250000D01*
X-2758072Y17550000D01*
X-2745812Y17425518D01*
X-2709502Y17305820D01*
X-2650537Y17195506D01*
X-2571185Y17098815D01*
X-2480632Y17024500D01*
X-4620131Y14885000D01*
X-8145984Y14885000D01*
X-8378065Y15117081D01*
X-8666327Y15309692D01*
X-8986627Y15442364D01*
X-9326655Y15510000D01*
X-9673345Y15510000D01*
X-10013373Y15442364D01*
X-10333673Y15309692D01*
X-10621935Y15117081D01*
X-10867081Y14871935D01*
X-11059692Y14583673D01*
X-11192364Y14263373D01*
X-11260000Y13923345D01*
X-11260000Y13576655D01*
X-11192364Y13236627D01*
X-11059692Y12916327D01*
X-10867081Y12628065D01*
X-10634999Y12395983D01*
X-10635000Y10230133D01*
X-11560131Y9305000D01*
X-13609043Y9305000D01*
X-13619463Y9324494D01*
X-13698815Y9421185D01*
X-13711758Y9431807D01*
X-13592429Y9683996D01*
X-13523700Y9958184D01*
X-13509783Y10240512D01*
X-13551213Y10520130D01*
X-13646397Y10786292D01*
X-13713329Y10911514D01*
X-13957298Y10983097D01*
X-14770395Y10170000D01*
X-14756253Y10155858D01*
X-14935858Y9976253D01*
X-14950000Y9990395D01*
X-14964143Y9976253D01*
X-15143748Y10155858D01*
X-15129605Y10170000D01*
X-15942702Y10983097D01*
X-16186671Y10911514D01*
X-16307571Y10656004D01*
X-16376300Y10381816D01*
X-16390217Y10099488D01*
X-16348787Y9819870D01*
X-16253603Y9553708D01*
X-16188384Y9431691D01*
X-16201185Y9421185D01*
X-16280537Y9324494D01*
X-16339502Y9214180D01*
X-16375812Y9094482D01*
X-16388072Y8970000D01*
X-16388072Y7370000D01*
X-16375812Y7245518D01*
X-16339502Y7125820D01*
X-16280537Y7015506D01*
X-16201185Y6918815D01*
X-16104494Y6839463D01*
X-15994180Y6780498D01*
X-15874482Y6744188D01*
X-15750000Y6731928D01*
X-14150000Y6731928D01*
X-14025518Y6744188D01*
X-13905820Y6780498D01*
X-13795506Y6839463D01*
X-13698815Y6918815D01*
X-13619463Y7015506D01*
X-13609043Y7035000D01*
X-11145751Y7035000D01*
X-11090000Y7029509D01*
X-11034249Y7035000D01*
X-11034248Y7035000D01*
X-10867501Y7051423D01*
X-10653553Y7116324D01*
X-10456377Y7221716D01*
X-10283551Y7363551D01*
X-10248005Y7406864D01*
X-8736854Y8918013D01*
X-8693551Y8953551D01*
X-8551716Y9126377D01*
X-8446324Y9323553D01*
X-8381423Y9537501D01*
X-8365000Y9704248D01*
X-8365000Y9704249D01*
X-8359509Y9760000D01*
X-8365000Y9815752D01*
X-8365000Y12395984D01*
X-8145984Y12615000D01*
X-4205751Y12615000D01*
X-4150000Y12609509D01*
X-4094249Y12615000D01*
X-4094248Y12615000D01*
X-3992716Y12625000D01*
X6736928Y12625000D01*
X6749188Y12500518D01*
X6785498Y12380820D01*
X6844463Y12270506D01*
X6923815Y12173815D01*
X7020506Y12094463D01*
X7130820Y12035498D01*
X7250518Y11999188D01*
X7375000Y11986928D01*
X8214250Y11990000D01*
X8373000Y12148750D01*
X8373000Y13623000D01*
X8627000Y13623000D01*
X8627000Y12148750D01*
X8785750Y11990000D01*
X9625000Y11986928D01*
X9749482Y11999188D01*
X9869180Y12035498D01*
X9979494Y12094463D01*
X10076185Y12173815D01*
X10155537Y12270506D01*
X10214502Y12380820D01*
X10250812Y12500518D01*
X10263072Y12625000D01*
X10260000Y13464250D01*
X10101250Y13623000D01*
X8627000Y13623000D01*
X8373000Y13623000D01*
X6898750Y13623000D01*
X6740000Y13464250D01*
X6736928Y12625000D01*
X-3992716Y12625000D01*
X-3927501Y12631423D01*
X-3713553Y12696324D01*
X-3516377Y12801716D01*
X-3343551Y12943551D01*
X-3308004Y12986865D01*
X-1419869Y14875000D01*
X6736928Y14875000D01*
X6740000Y14035750D01*
X6898750Y13877000D01*
X8373000Y13877000D01*
X8373000Y15351250D01*
X8627000Y15351250D01*
X8627000Y13877000D01*
X10101250Y13877000D01*
X10260000Y14035750D01*
X10263072Y14875000D01*
X10250812Y14999482D01*
X10214502Y15119180D01*
X10155537Y15229494D01*
X10076185Y15326185D01*
X9979494Y15405537D01*
X9869180Y15464502D01*
X9749482Y15500812D01*
X9625000Y15513072D01*
X8785750Y15510000D01*
X8627000Y15351250D01*
X8373000Y15351250D01*
X8214250Y15510000D01*
X7375000Y15513072D01*
X7250518Y15500812D01*
X7130820Y15464502D01*
X7020506Y15405537D01*
X6923815Y15326185D01*
X6844463Y15229494D01*
X6785498Y15119180D01*
X6749188Y14999482D01*
X6736928Y14875000D01*
X-1419869Y14875000D01*
X-506859Y15788009D01*
X-463551Y15823551D01*
X-321716Y15996377D01*
X-216324Y16193553D01*
X-151423Y16407501D01*
X-135000Y16574248D01*
X-129509Y16629999D01*
X-135000Y16685751D01*
X-135000Y16982317D01*
X-65506Y17019463D01*
X31185Y17098815D01*
X110537Y17195506D01*
X169502Y17305820D01*
X193966Y17386466D01*
X269731Y17302412D01*
X503080Y17128359D01*
X765901Y17003175D01*
X913110Y16958524D01*
X1143000Y17079845D01*
X1143000Y18273000D01*
X1397000Y18273000D01*
X1397000Y17079845D01*
X1626890Y16958524D01*
X1774099Y17003175D01*
X2036920Y17128359D01*
X2270269Y17302412D01*
X2465178Y17518645D01*
X2614157Y17768748D01*
X2711481Y18043109D01*
X2590814Y18273000D01*
X1397000Y18273000D01*
X1143000Y18273000D01*
X1123000Y18273000D01*
X1123000Y18527000D01*
X1143000Y18527000D01*
X1143000Y18547000D01*
X1397000Y18547000D01*
X1397000Y18527000D01*
X2590814Y18527000D01*
X2711481Y18756891D01*
X2614157Y19031252D01*
X2465178Y19281355D01*
X2270269Y19497588D01*
X2036920Y19671641D01*
X1882252Y19745311D01*
X2190890Y19724796D01*
G37*
%TD.AperFunction*%
%TD*%
M02*
