%TF.GenerationSoftware,KiCad,Pcbnew,(5.1.9-0-10_14)*%
%TF.CreationDate,2024-01-23T11:46:41+01:00*%
%TF.ProjectId,berker-sensor-acdc,6265726b-6572-42d7-9365-6e736f722d61,rev?*%
%TF.SameCoordinates,Original*%
%TF.FileFunction,Legend,Top*%
%TF.FilePolarity,Positive*%
%FSLAX46Y46*%
G04 Gerber Fmt 4.6, Leading zero omitted, Abs format (unit mm)*
G04 Created by KiCad (PCBNEW (5.1.9-0-10_14)) date 2024-01-23 11:46:41*
%MOMM*%
%LPD*%
G01*
G04 APERTURE LIST*
%ADD10C,0.075000*%
%ADD11C,0.120000*%
%ADD12C,0.150000*%
%ADD13C,0.300000*%
%ADD14C,0.127000*%
G04 APERTURE END LIST*
D10*
X-17519047Y-6924404D02*
X-17519047Y-6124404D01*
X-17519047Y-6505357D02*
X-17290476Y-6505357D01*
X-17290476Y-6924404D02*
X-17290476Y-6124404D01*
X-17100000Y-6924404D02*
X-17100000Y-6124404D01*
X-16699999Y-6162500D02*
X-16738095Y-6124404D01*
X-16795238Y-6124404D01*
X-16852380Y-6162500D01*
X-16890476Y-6238690D01*
X-16909523Y-6314880D01*
X-16928571Y-6467261D01*
X-16928571Y-6581547D01*
X-16909523Y-6733928D01*
X-16890476Y-6810119D01*
X-16852380Y-6886309D01*
X-16795238Y-6924404D01*
X-16757142Y-6924404D01*
X-16699999Y-6886309D01*
X-16680952Y-6848214D01*
X-16680952Y-6581547D01*
X-16757142Y-6581547D01*
X-16509523Y-6924404D02*
X-16509523Y-6124404D01*
X-16509523Y-6505357D02*
X-16280952Y-6505357D01*
X-16280952Y-6924404D02*
X-16280952Y-6124404D01*
X-15842857Y-6124404D02*
X-15709523Y-6924404D01*
X-15576190Y-6124404D01*
X-15366666Y-6124404D02*
X-15290476Y-6124404D01*
X-15252380Y-6162500D01*
X-15214285Y-6238690D01*
X-15195238Y-6391071D01*
X-15195238Y-6657738D01*
X-15214285Y-6810119D01*
X-15252380Y-6886309D01*
X-15290476Y-6924404D01*
X-15366666Y-6924404D01*
X-15404761Y-6886309D01*
X-15442857Y-6810119D01*
X-15461904Y-6657738D01*
X-15461904Y-6391071D01*
X-15442857Y-6238690D01*
X-15404761Y-6162500D01*
X-15366666Y-6124404D01*
X-14833333Y-6924404D02*
X-15023809Y-6924404D01*
X-15023809Y-6124404D01*
X-14757142Y-6124404D02*
X-14528571Y-6124404D01*
X-14642857Y-6924404D02*
X-14642857Y-6124404D01*
X-14414285Y-6695833D02*
X-14223809Y-6695833D01*
X-14452380Y-6924404D02*
X-14319047Y-6124404D01*
X-14185714Y-6924404D01*
X-13842857Y-6162500D02*
X-13880952Y-6124404D01*
X-13938095Y-6124404D01*
X-13995238Y-6162500D01*
X-14033333Y-6238690D01*
X-14052380Y-6314880D01*
X-14071428Y-6467261D01*
X-14071428Y-6581547D01*
X-14052380Y-6733928D01*
X-14033333Y-6810119D01*
X-13995238Y-6886309D01*
X-13938095Y-6924404D01*
X-13900000Y-6924404D01*
X-13842857Y-6886309D01*
X-13823809Y-6848214D01*
X-13823809Y-6581547D01*
X-13900000Y-6581547D01*
X-13652380Y-6505357D02*
X-13519047Y-6505357D01*
X-13461904Y-6924404D02*
X-13652380Y-6924404D01*
X-13652380Y-6124404D01*
X-13461904Y-6124404D01*
X-16538095Y-7475595D02*
X-16519047Y-7437500D01*
X-16480952Y-7399404D01*
X-16385714Y-7399404D01*
X-16347619Y-7437500D01*
X-16328571Y-7475595D01*
X-16309523Y-7551785D01*
X-16309523Y-7627976D01*
X-16328571Y-7742261D01*
X-16557142Y-8199404D01*
X-16309523Y-8199404D01*
X-16157142Y-7475595D02*
X-16138095Y-7437500D01*
X-16100000Y-7399404D01*
X-16004761Y-7399404D01*
X-15966666Y-7437500D01*
X-15947619Y-7475595D01*
X-15928571Y-7551785D01*
X-15928571Y-7627976D01*
X-15947619Y-7742261D01*
X-16176190Y-8199404D01*
X-15928571Y-8199404D01*
X-15680952Y-7399404D02*
X-15642857Y-7399404D01*
X-15604761Y-7437500D01*
X-15585714Y-7475595D01*
X-15566666Y-7551785D01*
X-15547619Y-7704166D01*
X-15547619Y-7894642D01*
X-15566666Y-8047023D01*
X-15585714Y-8123214D01*
X-15604761Y-8161309D01*
X-15642857Y-8199404D01*
X-15680952Y-8199404D01*
X-15719047Y-8161309D01*
X-15738095Y-8123214D01*
X-15757142Y-8047023D01*
X-15776190Y-7894642D01*
X-15776190Y-7704166D01*
X-15757142Y-7551785D01*
X-15738095Y-7475595D01*
X-15719047Y-7437500D01*
X-15680952Y-7399404D01*
X-15433333Y-7399404D02*
X-15300000Y-8199404D01*
X-15166666Y-7399404D01*
X-15052380Y-7970833D02*
X-14861904Y-7970833D01*
X-15090476Y-8199404D02*
X-14957142Y-7399404D01*
X-14823809Y-8199404D01*
X-14461904Y-8123214D02*
X-14480952Y-8161309D01*
X-14538095Y-8199404D01*
X-14576190Y-8199404D01*
X-14633333Y-8161309D01*
X-14671428Y-8085119D01*
X-14690476Y-8008928D01*
X-14709523Y-7856547D01*
X-14709523Y-7742261D01*
X-14690476Y-7589880D01*
X-14671428Y-7513690D01*
X-14633333Y-7437500D01*
X-14576190Y-7399404D01*
X-14538095Y-7399404D01*
X-14480952Y-7437500D01*
X-14461904Y-7475595D01*
D11*
X-15800000Y-4700000D02*
X-15300000Y-4300000D01*
X-15200000Y-4700000D02*
X-15800000Y-5100000D01*
X-15800000Y-4700000D02*
X-15200000Y-4700000D01*
X-14500000Y-5500000D02*
X-15500000Y-3500000D01*
X-16500000Y-5500000D02*
X-14500000Y-5500000D01*
X-15500000Y-3500000D02*
X-16500000Y-5500000D01*
D12*
X3938095Y18900000D02*
X3842857Y18947619D01*
X3700000Y18947619D01*
X3557142Y18900000D01*
X3461904Y18804761D01*
X3414285Y18709523D01*
X3366666Y18519047D01*
X3366666Y18376190D01*
X3414285Y18185714D01*
X3461904Y18090476D01*
X3557142Y17995238D01*
X3700000Y17947619D01*
X3795238Y17947619D01*
X3938095Y17995238D01*
X3985714Y18042857D01*
X3985714Y18376190D01*
X3795238Y18376190D01*
X4414285Y17947619D02*
X4414285Y18947619D01*
X4985714Y17947619D01*
X4985714Y18947619D01*
X5461904Y17947619D02*
X5461904Y18947619D01*
X5700000Y18947619D01*
X5842857Y18900000D01*
X5938095Y18804761D01*
X5985714Y18709523D01*
X6033333Y18519047D01*
X6033333Y18376190D01*
X5985714Y18185714D01*
X5938095Y18090476D01*
X5842857Y17995238D01*
X5700000Y17947619D01*
X5461904Y17947619D01*
X-5738095Y18897619D02*
X-5119047Y18897619D01*
X-5452380Y18516666D01*
X-5309523Y18516666D01*
X-5214285Y18469047D01*
X-5166666Y18421428D01*
X-5119047Y18326190D01*
X-5119047Y18088095D01*
X-5166666Y17992857D01*
X-5214285Y17945238D01*
X-5309523Y17897619D01*
X-5595238Y17897619D01*
X-5690476Y17945238D01*
X-5738095Y17992857D01*
X-4833333Y18897619D02*
X-4500000Y17897619D01*
X-4166666Y18897619D01*
X-3928571Y18897619D02*
X-3309523Y18897619D01*
X-3642857Y18516666D01*
X-3500000Y18516666D01*
X-3404761Y18469047D01*
X-3357142Y18421428D01*
X-3309523Y18326190D01*
X-3309523Y18088095D01*
X-3357142Y17992857D01*
X-3404761Y17945238D01*
X-3500000Y17897619D01*
X-3785714Y17897619D01*
X-3880952Y17945238D01*
X-3928571Y17992857D01*
D13*
X-5571428Y-12357142D02*
X-5571428Y-9357142D01*
X-4428571Y-12357142D01*
X-4428571Y-9357142D01*
X5619047Y-12357142D02*
X4666666Y-12357142D01*
X4666666Y-9357142D01*
D11*
%TO.C,J2*%
X-12161819Y-8584238D02*
X-15029701Y-12679998D01*
X-15029701Y-12679998D02*
X-6838181Y-18415762D01*
X-6838181Y-18415762D02*
X-3970299Y-14320002D01*
X-3970299Y-14320002D02*
X-12161819Y-8584238D01*
%TO.C,J1*%
X15029701Y-12679998D02*
X12161819Y-8584238D01*
X12161819Y-8584238D02*
X3970299Y-14320002D01*
X3970299Y-14320002D02*
X6838181Y-18415762D01*
X6838181Y-18415762D02*
X15029701Y-12679998D01*
%TO.C,U1*%
X12000000Y14500000D02*
X10000000Y16500000D01*
X-10000000Y-6500000D02*
X-12000000Y-6500000D01*
D14*
X-12000000Y16500000D02*
X-12000000Y-6500000D01*
X10000000Y16500000D02*
X-12000000Y16500000D01*
X12000000Y-6500000D02*
X12000000Y14500000D01*
X-10000000Y-6500000D02*
X12000000Y-6500000D01*
D11*
%TO.C,F1*%
X4175000Y-14000000D02*
G75*
G03*
X4175000Y-14000000I-4175000J0D01*
G01*
%TO.C,J3*%
X-2600000Y17070000D02*
X-2600000Y18400000D01*
X-1270000Y17070000D02*
X-2600000Y17070000D01*
X0Y17070000D02*
X0Y19730000D01*
X0Y19730000D02*
X2600000Y19730000D01*
X0Y17070000D02*
X2600000Y17070000D01*
X2600000Y17070000D02*
X2600000Y19730000D01*
%TO.C,C1*%
X12300000Y11200000D02*
X17300000Y11200000D01*
X17300000Y11200000D02*
X17300000Y-6400000D01*
X17300000Y-6400000D02*
X12300000Y-6400000D01*
X12300000Y-6400000D02*
X12300000Y11200000D01*
%TO.C,C2*%
X-16675000Y6615225D02*
X-16175000Y6615225D01*
X-16425000Y6365225D02*
X-16425000Y6865225D01*
X-15234000Y11771000D02*
X-14666000Y11771000D01*
X-15468000Y11731000D02*
X-14432000Y11731000D01*
X-15627000Y11691000D02*
X-14273000Y11691000D01*
X-15755000Y11651000D02*
X-14145000Y11651000D01*
X-15865000Y11611000D02*
X-14035000Y11611000D01*
X-15961000Y11571000D02*
X-13939000Y11571000D01*
X-16048000Y11531000D02*
X-13852000Y11531000D01*
X-16128000Y11491000D02*
X-13772000Y11491000D01*
X-16201000Y11451000D02*
X-13699000Y11451000D01*
X-16269000Y11411000D02*
X-13631000Y11411000D01*
X-16333000Y11371000D02*
X-13567000Y11371000D01*
X-16393000Y11331000D02*
X-13507000Y11331000D01*
X-16450000Y11291000D02*
X-13450000Y11291000D01*
X-16504000Y11251000D02*
X-13396000Y11251000D01*
X-16555000Y11211000D02*
X-13345000Y11211000D01*
X-13910000Y11171000D02*
X-13297000Y11171000D01*
X-16603000Y11171000D02*
X-15990000Y11171000D01*
X-13910000Y11131000D02*
X-13251000Y11131000D01*
X-16649000Y11131000D02*
X-15990000Y11131000D01*
X-13910000Y11091000D02*
X-13207000Y11091000D01*
X-16693000Y11091000D02*
X-15990000Y11091000D01*
X-13910000Y11051000D02*
X-13165000Y11051000D01*
X-16735000Y11051000D02*
X-15990000Y11051000D01*
X-13910000Y11011000D02*
X-13124000Y11011000D01*
X-16776000Y11011000D02*
X-15990000Y11011000D01*
X-13910000Y10971000D02*
X-13086000Y10971000D01*
X-16814000Y10971000D02*
X-15990000Y10971000D01*
X-13910000Y10931000D02*
X-13049000Y10931000D01*
X-16851000Y10931000D02*
X-15990000Y10931000D01*
X-13910000Y10891000D02*
X-13013000Y10891000D01*
X-16887000Y10891000D02*
X-15990000Y10891000D01*
X-13910000Y10851000D02*
X-12979000Y10851000D01*
X-16921000Y10851000D02*
X-15990000Y10851000D01*
X-13910000Y10811000D02*
X-12946000Y10811000D01*
X-16954000Y10811000D02*
X-15990000Y10811000D01*
X-13910000Y10771000D02*
X-12915000Y10771000D01*
X-16985000Y10771000D02*
X-15990000Y10771000D01*
X-13910000Y10731000D02*
X-12885000Y10731000D01*
X-17015000Y10731000D02*
X-15990000Y10731000D01*
X-13910000Y10691000D02*
X-12855000Y10691000D01*
X-17045000Y10691000D02*
X-15990000Y10691000D01*
X-13910000Y10651000D02*
X-12828000Y10651000D01*
X-17072000Y10651000D02*
X-15990000Y10651000D01*
X-13910000Y10611000D02*
X-12801000Y10611000D01*
X-17099000Y10611000D02*
X-15990000Y10611000D01*
X-13910000Y10571000D02*
X-12775000Y10571000D01*
X-17125000Y10571000D02*
X-15990000Y10571000D01*
X-13910000Y10531000D02*
X-12750000Y10531000D01*
X-17150000Y10531000D02*
X-15990000Y10531000D01*
X-13910000Y10491000D02*
X-12726000Y10491000D01*
X-17174000Y10491000D02*
X-15990000Y10491000D01*
X-13910000Y10451000D02*
X-12703000Y10451000D01*
X-17197000Y10451000D02*
X-15990000Y10451000D01*
X-13910000Y10411000D02*
X-12682000Y10411000D01*
X-17218000Y10411000D02*
X-15990000Y10411000D01*
X-13910000Y10371000D02*
X-12660000Y10371000D01*
X-17240000Y10371000D02*
X-15990000Y10371000D01*
X-13910000Y10331000D02*
X-12640000Y10331000D01*
X-17260000Y10331000D02*
X-15990000Y10331000D01*
X-13910000Y10291000D02*
X-12621000Y10291000D01*
X-17279000Y10291000D02*
X-15990000Y10291000D01*
X-13910000Y10251000D02*
X-12602000Y10251000D01*
X-17298000Y10251000D02*
X-15990000Y10251000D01*
X-13910000Y10211000D02*
X-12585000Y10211000D01*
X-17315000Y10211000D02*
X-15990000Y10211000D01*
X-13910000Y10171000D02*
X-12568000Y10171000D01*
X-17332000Y10171000D02*
X-15990000Y10171000D01*
X-13910000Y10131000D02*
X-12552000Y10131000D01*
X-17348000Y10131000D02*
X-15990000Y10131000D01*
X-13910000Y10091000D02*
X-12536000Y10091000D01*
X-17364000Y10091000D02*
X-15990000Y10091000D01*
X-13910000Y10051000D02*
X-12522000Y10051000D01*
X-17378000Y10051000D02*
X-15990000Y10051000D01*
X-13910000Y10011000D02*
X-12508000Y10011000D01*
X-17392000Y10011000D02*
X-15990000Y10011000D01*
X-13910000Y9971000D02*
X-12495000Y9971000D01*
X-17405000Y9971000D02*
X-15990000Y9971000D01*
X-13910000Y9931000D02*
X-12482000Y9931000D01*
X-17418000Y9931000D02*
X-15990000Y9931000D01*
X-13910000Y9891000D02*
X-12470000Y9891000D01*
X-17430000Y9891000D02*
X-15990000Y9891000D01*
X-13910000Y9850000D02*
X-12459000Y9850000D01*
X-17441000Y9850000D02*
X-15990000Y9850000D01*
X-13910000Y9810000D02*
X-12449000Y9810000D01*
X-17451000Y9810000D02*
X-15990000Y9810000D01*
X-13910000Y9770000D02*
X-12439000Y9770000D01*
X-17461000Y9770000D02*
X-15990000Y9770000D01*
X-13910000Y9730000D02*
X-12430000Y9730000D01*
X-17470000Y9730000D02*
X-15990000Y9730000D01*
X-13910000Y9690000D02*
X-12422000Y9690000D01*
X-17478000Y9690000D02*
X-15990000Y9690000D01*
X-13910000Y9650000D02*
X-12414000Y9650000D01*
X-17486000Y9650000D02*
X-15990000Y9650000D01*
X-13910000Y9610000D02*
X-12407000Y9610000D01*
X-17493000Y9610000D02*
X-15990000Y9610000D01*
X-13910000Y9570000D02*
X-12400000Y9570000D01*
X-17500000Y9570000D02*
X-15990000Y9570000D01*
X-13910000Y9530000D02*
X-12394000Y9530000D01*
X-17506000Y9530000D02*
X-15990000Y9530000D01*
X-13910000Y9490000D02*
X-12389000Y9490000D01*
X-17511000Y9490000D02*
X-15990000Y9490000D01*
X-13910000Y9450000D02*
X-12385000Y9450000D01*
X-17515000Y9450000D02*
X-15990000Y9450000D01*
X-13910000Y9410000D02*
X-12381000Y9410000D01*
X-17519000Y9410000D02*
X-15990000Y9410000D01*
X-13910000Y9370000D02*
X-12377000Y9370000D01*
X-17523000Y9370000D02*
X-15990000Y9370000D01*
X-13910000Y9330000D02*
X-12374000Y9330000D01*
X-17526000Y9330000D02*
X-15990000Y9330000D01*
X-13910000Y9290000D02*
X-12372000Y9290000D01*
X-17528000Y9290000D02*
X-15990000Y9290000D01*
X-13910000Y9250000D02*
X-12371000Y9250000D01*
X-17529000Y9250000D02*
X-15990000Y9250000D01*
X-17530000Y9210000D02*
X-15990000Y9210000D01*
X-13910000Y9210000D02*
X-12370000Y9210000D01*
X-17530000Y9170000D02*
X-15990000Y9170000D01*
X-13910000Y9170000D02*
X-12370000Y9170000D01*
X-12330000Y9170000D02*
G75*
G03*
X-12330000Y9170000I-2620000J0D01*
G01*
%TO.C,J2*%
D12*
X-15054687Y-10017490D02*
X-14469578Y-10427187D01*
X-14379870Y-10548134D01*
X-14356482Y-10680775D01*
X-14399414Y-10825110D01*
X-14454040Y-10903124D01*
X-14730854Y-9721051D02*
X-14742548Y-9654731D01*
X-14726929Y-9549403D01*
X-14590363Y-9354367D01*
X-14496730Y-9303665D01*
X-14430409Y-9291971D01*
X-14325082Y-9307590D01*
X-14247067Y-9362217D01*
X-14157358Y-9483163D01*
X-14017030Y-10279008D01*
X-13661958Y-9771914D01*
%TO.C,J1*%
X14672303Y-9471388D02*
X14087194Y-9881086D01*
X13942859Y-9924018D01*
X13810218Y-9900630D01*
X13689272Y-9810921D01*
X13634645Y-9732907D01*
X14426727Y-10864117D02*
X14098969Y-10396030D01*
X14262848Y-10630073D02*
X15082000Y-10056497D01*
X14910352Y-10060422D01*
X14777711Y-10037034D01*
X14684078Y-9986333D01*
%TO.C,U1*%
X-599925Y6431196D02*
X-599925Y5793775D01*
X-562430Y5718785D01*
X-524934Y5681289D01*
X-449943Y5643794D01*
X-299962Y5643794D01*
X-224972Y5681289D01*
X-187476Y5718785D01*
X-149981Y5793775D01*
X-149981Y6431196D01*
X637420Y5643794D02*
X187476Y5643794D01*
X412448Y5643794D02*
X412448Y6431196D01*
X337458Y6318710D01*
X262467Y6243719D01*
X187476Y6206224D01*
X-5774281Y4931196D02*
X-5511814Y4143794D01*
X-5249346Y4931196D01*
X-5099365Y4931196D02*
X-4649421Y4931196D01*
X-4874393Y4143794D02*
X-4874393Y4931196D01*
X-4461944Y4931196D02*
X-3937010Y4143794D01*
X-3937010Y4931196D02*
X-4461944Y4143794D01*
X-3637047Y4443757D02*
X-3037122Y4443757D01*
X-2699663Y4856205D02*
X-2662168Y4893701D01*
X-2587177Y4931196D01*
X-2399701Y4931196D01*
X-2324710Y4893701D01*
X-2287215Y4856205D01*
X-2249720Y4781215D01*
X-2249720Y4706224D01*
X-2287215Y4593738D01*
X-2737159Y4143794D01*
X-2249720Y4143794D01*
X-1499813Y4143794D02*
X-1949757Y4143794D01*
X-1724785Y4143794D02*
X-1724785Y4931196D01*
X-1799776Y4818710D01*
X-1874766Y4743719D01*
X-1949757Y4706224D01*
X-824897Y4668729D02*
X-824897Y4143794D01*
X-1012374Y4968691D02*
X-1199850Y4406261D01*
X-712411Y4406261D01*
X-412448Y4443757D02*
X187476Y4443757D01*
X712411Y4931196D02*
X787402Y4931196D01*
X862392Y4893701D01*
X899888Y4856205D01*
X937383Y4781215D01*
X974878Y4631233D01*
X974878Y4443757D01*
X937383Y4293775D01*
X899888Y4218785D01*
X862392Y4181289D01*
X787402Y4143794D01*
X712411Y4143794D01*
X637420Y4181289D01*
X599925Y4218785D01*
X562430Y4293775D01*
X524934Y4443757D01*
X524934Y4631233D01*
X562430Y4781215D01*
X599925Y4856205D01*
X637420Y4893701D01*
X712411Y4931196D01*
X1462318Y4931196D02*
X1537308Y4931196D01*
X1612299Y4893701D01*
X1649794Y4856205D01*
X1687290Y4781215D01*
X1724785Y4631233D01*
X1724785Y4443757D01*
X1687290Y4293775D01*
X1649794Y4218785D01*
X1612299Y4181289D01*
X1537308Y4143794D01*
X1462318Y4143794D01*
X1387327Y4181289D01*
X1349832Y4218785D01*
X1312336Y4293775D01*
X1274841Y4443757D01*
X1274841Y4631233D01*
X1312336Y4781215D01*
X1349832Y4856205D01*
X1387327Y4893701D01*
X1462318Y4931196D01*
X1987252Y4931196D02*
X2474692Y4931196D01*
X2212224Y4631233D01*
X2324710Y4631233D01*
X2399701Y4593738D01*
X2437196Y4556243D01*
X2474692Y4481252D01*
X2474692Y4293775D01*
X2437196Y4218785D01*
X2399701Y4181289D01*
X2324710Y4143794D01*
X2099738Y4143794D01*
X2024748Y4181289D01*
X1987252Y4218785D01*
X2812150Y4443757D02*
X3412075Y4443757D01*
X3712038Y4931196D02*
X4236972Y4931196D01*
X3899514Y4143794D01*
X4686916Y4931196D02*
X4761907Y4931196D01*
X4836898Y4893701D01*
X4874393Y4856205D01*
X4911888Y4781215D01*
X4949384Y4631233D01*
X4949384Y4443757D01*
X4911888Y4293775D01*
X4874393Y4218785D01*
X4836898Y4181289D01*
X4761907Y4143794D01*
X4686916Y4143794D01*
X4611926Y4181289D01*
X4574430Y4218785D01*
X4536935Y4293775D01*
X4499440Y4443757D01*
X4499440Y4631233D01*
X4536935Y4781215D01*
X4574430Y4856205D01*
X4611926Y4893701D01*
X4686916Y4931196D01*
X5211851Y4931196D02*
X5699290Y4931196D01*
X5436823Y4631233D01*
X5549309Y4631233D01*
X5624299Y4593738D01*
X5661795Y4556243D01*
X5699290Y4481252D01*
X5699290Y4293775D01*
X5661795Y4218785D01*
X5624299Y4181289D01*
X5549309Y4143794D01*
X5324337Y4143794D01*
X5249346Y4181289D01*
X5211851Y4218785D01*
X-9785714Y-1952380D02*
X-9785714Y-952380D01*
X-9214285Y-1952380D01*
X-9214285Y-952380D01*
X9809523Y-1952380D02*
X9333333Y-1952380D01*
X9333333Y-952380D01*
X-10833333Y11547619D02*
X-10500000Y10547619D01*
X-10166666Y11547619D01*
X-9833333Y10547619D02*
X-9833333Y11547619D01*
X-9595238Y11547619D01*
X-9452380Y11500000D01*
X-9357142Y11404761D01*
X-9309523Y11309523D01*
X-9261904Y11119047D01*
X-9261904Y10976190D01*
X-9309523Y10785714D01*
X-9357142Y10690476D01*
X-9452380Y10595238D01*
X-9595238Y10547619D01*
X-9833333Y10547619D01*
X-8261904Y10642857D02*
X-8309523Y10595238D01*
X-8452380Y10547619D01*
X-8547619Y10547619D01*
X-8690476Y10595238D01*
X-8785714Y10690476D01*
X-8833333Y10785714D01*
X-8880952Y10976190D01*
X-8880952Y11119047D01*
X-8833333Y11309523D01*
X-8785714Y11404761D01*
X-8690476Y11500000D01*
X-8547619Y11547619D01*
X-8452380Y11547619D01*
X-8309523Y11500000D01*
X-8261904Y11452380D01*
X7738095Y11500000D02*
X7642857Y11547619D01*
X7499999Y11547619D01*
X7357142Y11500000D01*
X7261904Y11404761D01*
X7214285Y11309523D01*
X7166666Y11119047D01*
X7166666Y10976190D01*
X7214285Y10785714D01*
X7261904Y10690476D01*
X7357142Y10595238D01*
X7499999Y10547619D01*
X7595238Y10547619D01*
X7738095Y10595238D01*
X7785714Y10642857D01*
X7785714Y10976190D01*
X7595238Y10976190D01*
X8214285Y10547619D02*
X8214285Y11547619D01*
X8785714Y10547619D01*
X8785714Y11547619D01*
X9261904Y10547619D02*
X9261904Y11547619D01*
X9500000Y11547619D01*
X9642857Y11500000D01*
X9738095Y11404761D01*
X9785714Y11309523D01*
X9833333Y11119047D01*
X9833333Y10976190D01*
X9785714Y10785714D01*
X9738095Y10690476D01*
X9642857Y10595238D01*
X9500000Y10547619D01*
X9261904Y10547619D01*
%TO.C,F1*%
X-333333Y-13928571D02*
X-666666Y-13928571D01*
X-666666Y-14452380D02*
X-666666Y-13452380D01*
X-190476Y-13452380D01*
X714285Y-14452380D02*
X142857Y-14452380D01*
X428571Y-14452380D02*
X428571Y-13452380D01*
X333333Y-13595238D01*
X238095Y-13690476D01*
X142857Y-13738095D01*
X-9761904Y-7880952D02*
X-9857142Y-7833333D01*
X-9904761Y-7785714D01*
X-9952380Y-7690476D01*
X-9952380Y-7642857D01*
X-9904761Y-7547619D01*
X-9857142Y-7500000D01*
X-9761904Y-7452380D01*
X-9571428Y-7452380D01*
X-9476190Y-7500000D01*
X-9428571Y-7547619D01*
X-9380952Y-7642857D01*
X-9380952Y-7690476D01*
X-9428571Y-7785714D01*
X-9476190Y-7833333D01*
X-9571428Y-7880952D01*
X-9761904Y-7880952D01*
X-9857142Y-7928571D01*
X-9904761Y-7976190D01*
X-9952380Y-8071428D01*
X-9952380Y-8261904D01*
X-9904761Y-8357142D01*
X-9857142Y-8404761D01*
X-9761904Y-8452380D01*
X-9571428Y-8452380D01*
X-9476190Y-8404761D01*
X-9428571Y-8357142D01*
X-9380952Y-8261904D01*
X-9380952Y-8071428D01*
X-9428571Y-7976190D01*
X-9476190Y-7928571D01*
X-9571428Y-7880952D01*
X-8761904Y-7452380D02*
X-8666666Y-7452380D01*
X-8571428Y-7500000D01*
X-8523809Y-7547619D01*
X-8476190Y-7642857D01*
X-8428571Y-7833333D01*
X-8428571Y-8071428D01*
X-8476190Y-8261904D01*
X-8523809Y-8357142D01*
X-8571428Y-8404761D01*
X-8666666Y-8452380D01*
X-8761904Y-8452380D01*
X-8857142Y-8404761D01*
X-8904761Y-8357142D01*
X-8952380Y-8261904D01*
X-9000000Y-8071428D01*
X-9000000Y-7833333D01*
X-8952380Y-7642857D01*
X-8904761Y-7547619D01*
X-8857142Y-7500000D01*
X-8761904Y-7452380D01*
X-7999999Y-8452380D02*
X-7999999Y-7785714D01*
X-7999999Y-7880952D02*
X-7952380Y-7833333D01*
X-7857142Y-7785714D01*
X-7714285Y-7785714D01*
X-7619047Y-7833333D01*
X-7571428Y-7928571D01*
X-7571428Y-8452380D01*
X-7571428Y-7928571D02*
X-7523809Y-7833333D01*
X-7428571Y-7785714D01*
X-7285714Y-7785714D01*
X-7190476Y-7833333D01*
X-7142857Y-7928571D01*
X-7142857Y-8452380D01*
X-6714285Y-8166666D02*
X-6238095Y-8166666D01*
X-6809523Y-8452380D02*
X-6476190Y-7452380D01*
X-6142857Y-8452380D01*
X-4714285Y-7928571D02*
X-4571428Y-7976190D01*
X-4523809Y-8023809D01*
X-4476190Y-8119047D01*
X-4476190Y-8261904D01*
X-4523809Y-8357142D01*
X-4571428Y-8404761D01*
X-4666666Y-8452380D01*
X-5047619Y-8452380D01*
X-5047619Y-7452380D01*
X-4714285Y-7452380D01*
X-4619047Y-7500000D01*
X-4571428Y-7547619D01*
X-4523809Y-7642857D01*
X-4523809Y-7738095D01*
X-4571428Y-7833333D01*
X-4619047Y-7880952D01*
X-4714285Y-7928571D01*
X-5047619Y-7928571D01*
X-4047619Y-7928571D02*
X-3714285Y-7928571D01*
X-3571428Y-8452380D02*
X-4047619Y-8452380D01*
X-4047619Y-7452380D01*
X-3571428Y-7452380D01*
X-2666666Y-8452380D02*
X-3142857Y-8452380D01*
X-3142857Y-7452380D01*
X-1571428Y-8452380D02*
X-1571428Y-7452380D01*
X-1238095Y-8166666D01*
X-904761Y-7452380D01*
X-904761Y-8452380D01*
X142857Y-8452380D02*
X-190476Y-7976190D01*
X-428571Y-8452380D02*
X-428571Y-7452380D01*
X-47619Y-7452380D01*
X47619Y-7500000D01*
X95238Y-7547619D01*
X142857Y-7642857D01*
X142857Y-7785714D01*
X95238Y-7880952D01*
X47619Y-7928571D01*
X-47619Y-7976190D01*
X-428571Y-7976190D01*
X428571Y-7452380D02*
X1000000Y-7452380D01*
X714285Y-8452380D02*
X714285Y-7452380D01*
X2047619Y-7547619D02*
X2095238Y-7500000D01*
X2190476Y-7452380D01*
X2428571Y-7452380D01*
X2523809Y-7500000D01*
X2571428Y-7547619D01*
X2619047Y-7642857D01*
X2619047Y-7738095D01*
X2571428Y-7880952D01*
X2000000Y-8452380D01*
X2619047Y-8452380D01*
X3523809Y-7452380D02*
X3047619Y-7452380D01*
X3000000Y-7928571D01*
X3047619Y-7880952D01*
X3142857Y-7833333D01*
X3380952Y-7833333D01*
X3476190Y-7880952D01*
X3523809Y-7928571D01*
X3571428Y-8023809D01*
X3571428Y-8261904D01*
X3523809Y-8357142D01*
X3476190Y-8404761D01*
X3380952Y-8452380D01*
X3142857Y-8452380D01*
X3047619Y-8404761D01*
X3000000Y-8357142D01*
X4190476Y-7452380D02*
X4285714Y-7452380D01*
X4380952Y-7500000D01*
X4428571Y-7547619D01*
X4476190Y-7642857D01*
X4523809Y-7833333D01*
X4523809Y-8071428D01*
X4476190Y-8261904D01*
X4428571Y-8357142D01*
X4380952Y-8404761D01*
X4285714Y-8452380D01*
X4190476Y-8452380D01*
X4095238Y-8404761D01*
X4047619Y-8357142D01*
X4000000Y-8261904D01*
X3952380Y-8071428D01*
X3952380Y-7833333D01*
X4000000Y-7642857D01*
X4047619Y-7547619D01*
X4095238Y-7500000D01*
X4190476Y-7452380D01*
X4952380Y-8071428D02*
X5714285Y-8071428D01*
X6142857Y-8166666D02*
X6619047Y-8166666D01*
X6047619Y-8452380D02*
X6380952Y-7452380D01*
X6714285Y-8452380D01*
X7047619Y-8452380D02*
X7047619Y-7452380D01*
X7380952Y-8166666D01*
X7714285Y-7452380D01*
X7714285Y-8452380D01*
X8190476Y-8452380D02*
X8190476Y-7452380D01*
X8523809Y-8166666D01*
X8857142Y-7452380D01*
X8857142Y-8452380D01*
X9523809Y-7452380D02*
X9714285Y-7452380D01*
X9809523Y-7500000D01*
X9904761Y-7595238D01*
X9952380Y-7785714D01*
X9952380Y-8119047D01*
X9904761Y-8309523D01*
X9809523Y-8404761D01*
X9714285Y-8452380D01*
X9523809Y-8452380D01*
X9428571Y-8404761D01*
X9333333Y-8309523D01*
X9285714Y-8119047D01*
X9285714Y-7785714D01*
X9333333Y-7595238D01*
X9428571Y-7500000D01*
X9523809Y-7452380D01*
%TO.C,J3*%
X-333333Y15997619D02*
X-333333Y15283333D01*
X-380952Y15140476D01*
X-476190Y15045238D01*
X-619047Y14997619D01*
X-714285Y14997619D01*
X47619Y15997619D02*
X666666Y15997619D01*
X333333Y15616666D01*
X476190Y15616666D01*
X571428Y15569047D01*
X619047Y15521428D01*
X666666Y15426190D01*
X666666Y15188095D01*
X619047Y15092857D01*
X571428Y15045238D01*
X476190Y14997619D01*
X190476Y14997619D01*
X95238Y15045238D01*
X47619Y15092857D01*
%TO.C,C1*%
X16357142Y4333333D02*
X16404761Y4285714D01*
X16452380Y4142857D01*
X16452380Y4047619D01*
X16404761Y3904761D01*
X16309523Y3809523D01*
X16214285Y3761904D01*
X16023809Y3714285D01*
X15880952Y3714285D01*
X15690476Y3761904D01*
X15595238Y3809523D01*
X15500000Y3904761D01*
X15452380Y4047619D01*
X15452380Y4142857D01*
X15500000Y4285714D01*
X15547619Y4333333D01*
X16452380Y5285714D02*
X16452380Y4714285D01*
X16452380Y5000000D02*
X15452380Y5000000D01*
X15595238Y4904761D01*
X15690476Y4809523D01*
X15738095Y4714285D01*
X13452380Y-1523809D02*
X13452380Y-1428571D01*
X13500000Y-1333333D01*
X13547619Y-1285714D01*
X13642857Y-1238095D01*
X13833333Y-1190476D01*
X14071428Y-1190476D01*
X14261904Y-1238095D01*
X14357142Y-1285714D01*
X14404761Y-1333333D01*
X14452380Y-1428571D01*
X14452380Y-1523809D01*
X14404761Y-1619047D01*
X14357142Y-1666666D01*
X14261904Y-1714285D01*
X14071428Y-1761904D01*
X13833333Y-1761904D01*
X13642857Y-1714285D01*
X13547619Y-1666666D01*
X13500000Y-1619047D01*
X13452380Y-1523809D01*
X14357142Y-761904D02*
X14404761Y-714285D01*
X14452380Y-761904D01*
X14404761Y-809523D01*
X14357142Y-761904D01*
X14452380Y-761904D01*
X14452380Y238095D02*
X14452380Y-333333D01*
X14452380Y-47619D02*
X13452380Y-47619D01*
X13595238Y-142857D01*
X13690476Y-238095D01*
X13738095Y-333333D01*
X13785714Y1095238D02*
X14452380Y1095238D01*
X13785714Y666666D02*
X14309523Y666666D01*
X14404761Y714285D01*
X14452380Y809523D01*
X14452380Y952380D01*
X14404761Y1047619D01*
X14357142Y1095238D01*
X13928571Y1904761D02*
X13928571Y1571428D01*
X14452380Y1571428D02*
X13452380Y1571428D01*
X13452380Y2047619D01*
X13404761Y3142857D02*
X14690476Y2285714D01*
X13547619Y3428571D02*
X13500000Y3476190D01*
X13452380Y3571428D01*
X13452380Y3809523D01*
X13500000Y3904761D01*
X13547619Y3952380D01*
X13642857Y4000000D01*
X13738095Y4000000D01*
X13880952Y3952380D01*
X14452380Y3380952D01*
X14452380Y4000000D01*
X13452380Y4333333D02*
X13452380Y5000000D01*
X14452380Y4571428D01*
X13452380Y5857142D02*
X13452380Y5380952D01*
X13928571Y5333333D01*
X13880952Y5380952D01*
X13833333Y5476190D01*
X13833333Y5714285D01*
X13880952Y5809523D01*
X13928571Y5857142D01*
X14023809Y5904761D01*
X14261904Y5904761D01*
X14357142Y5857142D01*
X14404761Y5809523D01*
X14452380Y5714285D01*
X14452380Y5476190D01*
X14404761Y5380952D01*
X14357142Y5333333D01*
X13452380Y6190476D02*
X14452380Y6523809D01*
X13452380Y6857142D01*
%TO.C,C2*%
X-15116666Y5192857D02*
X-15164285Y5145238D01*
X-15307142Y5097619D01*
X-15402380Y5097619D01*
X-15545238Y5145238D01*
X-15640476Y5240476D01*
X-15688095Y5335714D01*
X-15735714Y5526190D01*
X-15735714Y5669047D01*
X-15688095Y5859523D01*
X-15640476Y5954761D01*
X-15545238Y6050000D01*
X-15402380Y6097619D01*
X-15307142Y6097619D01*
X-15164285Y6050000D01*
X-15116666Y6002380D01*
X-14735714Y6002380D02*
X-14688095Y6050000D01*
X-14592857Y6097619D01*
X-14354761Y6097619D01*
X-14259523Y6050000D01*
X-14211904Y6002380D01*
X-14164285Y5907142D01*
X-14164285Y5811904D01*
X-14211904Y5669047D01*
X-14783333Y5097619D01*
X-14164285Y5097619D01*
X-18452380Y3547619D02*
X-19023809Y3547619D01*
X-18738095Y3547619D02*
X-18738095Y4547619D01*
X-18833333Y4404761D01*
X-18928571Y4309523D01*
X-19023809Y4261904D01*
X-17833333Y4547619D02*
X-17738095Y4547619D01*
X-17642857Y4500000D01*
X-17595238Y4452380D01*
X-17547619Y4357142D01*
X-17500000Y4166666D01*
X-17500000Y3928571D01*
X-17547619Y3738095D01*
X-17595238Y3642857D01*
X-17642857Y3595238D01*
X-17738095Y3547619D01*
X-17833333Y3547619D01*
X-17928571Y3595238D01*
X-17976190Y3642857D01*
X-18023809Y3738095D01*
X-18071428Y3928571D01*
X-18071428Y4166666D01*
X-18023809Y4357142D01*
X-17976190Y4452380D01*
X-17928571Y4500000D01*
X-17833333Y4547619D01*
X-16880952Y4547619D02*
X-16785714Y4547619D01*
X-16690476Y4500000D01*
X-16642857Y4452380D01*
X-16595238Y4357142D01*
X-16547619Y4166666D01*
X-16547619Y3928571D01*
X-16595238Y3738095D01*
X-16642857Y3642857D01*
X-16690476Y3595238D01*
X-16785714Y3547619D01*
X-16880952Y3547619D01*
X-16976190Y3595238D01*
X-17023809Y3642857D01*
X-17071428Y3738095D01*
X-17119047Y3928571D01*
X-17119047Y4166666D01*
X-17071428Y4357142D01*
X-17023809Y4452380D01*
X-16976190Y4500000D01*
X-16880952Y4547619D01*
X-15690476Y4214285D02*
X-15690476Y3547619D01*
X-16119047Y4214285D02*
X-16119047Y3690476D01*
X-16071428Y3595238D01*
X-15976190Y3547619D01*
X-15833333Y3547619D01*
X-15738095Y3595238D01*
X-15690476Y3642857D01*
X-14880952Y4071428D02*
X-15214285Y4071428D01*
X-15214285Y3547619D02*
X-15214285Y4547619D01*
X-14738095Y4547619D01*
X-13642857Y4595238D02*
X-14500000Y3309523D01*
X-13357142Y4452380D02*
X-13309523Y4500000D01*
X-13214285Y4547619D01*
X-12976190Y4547619D01*
X-12880952Y4500000D01*
X-12833333Y4452380D01*
X-12785714Y4357142D01*
X-12785714Y4261904D01*
X-12833333Y4119047D01*
X-13404761Y3547619D01*
X-12785714Y3547619D01*
X-11880952Y4547619D02*
X-12357142Y4547619D01*
X-12404761Y4071428D01*
X-12357142Y4119047D01*
X-12261904Y4166666D01*
X-12023809Y4166666D01*
X-11928571Y4119047D01*
X-11880952Y4071428D01*
X-11833333Y3976190D01*
X-11833333Y3738095D01*
X-11880952Y3642857D01*
X-11928571Y3595238D01*
X-12023809Y3547619D01*
X-12261904Y3547619D01*
X-12357142Y3595238D01*
X-12404761Y3642857D01*
X-11547619Y4547619D02*
X-11214285Y3547619D01*
X-10880952Y4547619D01*
%TD*%
M02*
