%TF.GenerationSoftware,KiCad,Pcbnew,(5.1.9-0-10_14)*%
%TF.CreationDate,2024-01-22T23:17:15+01:00*%
%TF.ProjectId,berker-sensor,6265726b-6572-42d7-9365-6e736f722e6b,rev?*%
%TF.SameCoordinates,Original*%
%TF.FileFunction,Legend,Top*%
%TF.FilePolarity,Positive*%
%FSLAX46Y46*%
G04 Gerber Fmt 4.6, Leading zero omitted, Abs format (unit mm)*
G04 Created by KiCad (PCBNEW (5.1.9-0-10_14)) date 2024-01-22 23:17:15*
%MOMM*%
%LPD*%
G01*
G04 APERTURE LIST*
%ADD10C,0.150000*%
%ADD11C,0.120000*%
G04 APERTURE END LIST*
D10*
X-12952380Y-14802380D02*
X-12952380Y-13802380D01*
X-12609523Y-14802380D02*
X-12609523Y-14278571D01*
X-12647619Y-14183333D01*
X-12723809Y-14135714D01*
X-12838095Y-14135714D01*
X-12914285Y-14183333D01*
X-12952380Y-14230952D01*
X-12342857Y-14135714D02*
X-12038095Y-14135714D01*
X-12228571Y-13802380D02*
X-12228571Y-14659523D01*
X-12190476Y-14754761D01*
X-12114285Y-14802380D01*
X-12038095Y-14802380D01*
X-11885714Y-14135714D02*
X-11580952Y-14135714D01*
X-11771428Y-13802380D02*
X-11771428Y-14659523D01*
X-11733333Y-14754761D01*
X-11657142Y-14802380D01*
X-11580952Y-14802380D01*
X-11314285Y-14135714D02*
X-11314285Y-15135714D01*
X-11314285Y-14183333D02*
X-11238095Y-14135714D01*
X-11085714Y-14135714D01*
X-11009523Y-14183333D01*
X-10971428Y-14230952D01*
X-10933333Y-14326190D01*
X-10933333Y-14611904D01*
X-10971428Y-14707142D01*
X-11009523Y-14754761D01*
X-11085714Y-14802380D01*
X-11238095Y-14802380D01*
X-11314285Y-14754761D01*
X-10628571Y-14754761D02*
X-10552380Y-14802380D01*
X-10400000Y-14802380D01*
X-10323809Y-14754761D01*
X-10285714Y-14659523D01*
X-10285714Y-14611904D01*
X-10323809Y-14516666D01*
X-10400000Y-14469047D01*
X-10514285Y-14469047D01*
X-10590476Y-14421428D01*
X-10628571Y-14326190D01*
X-10628571Y-14278571D01*
X-10590476Y-14183333D01*
X-10514285Y-14135714D01*
X-10400000Y-14135714D01*
X-10323809Y-14183333D01*
X-9942857Y-14707142D02*
X-9904761Y-14754761D01*
X-9942857Y-14802380D01*
X-9980952Y-14754761D01*
X-9942857Y-14707142D01*
X-9942857Y-14802380D01*
X-9942857Y-14183333D02*
X-9904761Y-14230952D01*
X-9942857Y-14278571D01*
X-9980952Y-14230952D01*
X-9942857Y-14183333D01*
X-9942857Y-14278571D01*
X-8990476Y-13754761D02*
X-9676190Y-15040476D01*
X-8152380Y-13754761D02*
X-8838095Y-15040476D01*
X-7542857Y-14135714D02*
X-7542857Y-14945238D01*
X-7580952Y-15040476D01*
X-7619047Y-15088095D01*
X-7695238Y-15135714D01*
X-7809523Y-15135714D01*
X-7885714Y-15088095D01*
X-7542857Y-14754761D02*
X-7619047Y-14802380D01*
X-7771428Y-14802380D01*
X-7847619Y-14754761D01*
X-7885714Y-14707142D01*
X-7923809Y-14611904D01*
X-7923809Y-14326190D01*
X-7885714Y-14230952D01*
X-7847619Y-14183333D01*
X-7771428Y-14135714D01*
X-7619047Y-14135714D01*
X-7542857Y-14183333D01*
X-7161904Y-14802380D02*
X-7161904Y-14135714D01*
X-7161904Y-13802380D02*
X-7200000Y-13850000D01*
X-7161904Y-13897619D01*
X-7123809Y-13850000D01*
X-7161904Y-13802380D01*
X-7161904Y-13897619D01*
X-6895238Y-14135714D02*
X-6590476Y-14135714D01*
X-6780952Y-13802380D02*
X-6780952Y-14659523D01*
X-6742857Y-14754761D01*
X-6666666Y-14802380D01*
X-6590476Y-14802380D01*
X-6323809Y-14802380D02*
X-6323809Y-13802380D01*
X-5980952Y-14802380D02*
X-5980952Y-14278571D01*
X-6019047Y-14183333D01*
X-6095238Y-14135714D01*
X-6209523Y-14135714D01*
X-6285714Y-14183333D01*
X-6323809Y-14230952D01*
X-5257142Y-14135714D02*
X-5257142Y-14802380D01*
X-5600000Y-14135714D02*
X-5600000Y-14659523D01*
X-5561904Y-14754761D01*
X-5485714Y-14802380D01*
X-5371428Y-14802380D01*
X-5295238Y-14754761D01*
X-5257142Y-14707142D01*
X-4876190Y-14802380D02*
X-4876190Y-13802380D01*
X-4876190Y-14183333D02*
X-4800000Y-14135714D01*
X-4647619Y-14135714D01*
X-4571428Y-14183333D01*
X-4533333Y-14230952D01*
X-4495238Y-14326190D01*
X-4495238Y-14611904D01*
X-4533333Y-14707142D01*
X-4571428Y-14754761D01*
X-4647619Y-14802380D01*
X-4800000Y-14802380D01*
X-4876190Y-14754761D01*
X-4152380Y-14707142D02*
X-4114285Y-14754761D01*
X-4152380Y-14802380D01*
X-4190476Y-14754761D01*
X-4152380Y-14707142D01*
X-4152380Y-14802380D01*
X-3428571Y-14754761D02*
X-3504761Y-14802380D01*
X-3657142Y-14802380D01*
X-3733333Y-14754761D01*
X-3771428Y-14707142D01*
X-3809523Y-14611904D01*
X-3809523Y-14326190D01*
X-3771428Y-14230952D01*
X-3733333Y-14183333D01*
X-3657142Y-14135714D01*
X-3504761Y-14135714D01*
X-3428571Y-14183333D01*
X-2971428Y-14802380D02*
X-3047619Y-14754761D01*
X-3085714Y-14707142D01*
X-3123809Y-14611904D01*
X-3123809Y-14326190D01*
X-3085714Y-14230952D01*
X-3047619Y-14183333D01*
X-2971428Y-14135714D01*
X-2857142Y-14135714D01*
X-2780952Y-14183333D01*
X-2742857Y-14230952D01*
X-2704761Y-14326190D01*
X-2704761Y-14611904D01*
X-2742857Y-14707142D01*
X-2780952Y-14754761D01*
X-2857142Y-14802380D01*
X-2971428Y-14802380D01*
X-2361904Y-14802380D02*
X-2361904Y-14135714D01*
X-2361904Y-14230952D02*
X-2323809Y-14183333D01*
X-2247619Y-14135714D01*
X-2133333Y-14135714D01*
X-2057142Y-14183333D01*
X-2019047Y-14278571D01*
X-2019047Y-14802380D01*
X-2019047Y-14278571D02*
X-1980952Y-14183333D01*
X-1904761Y-14135714D01*
X-1790476Y-14135714D01*
X-1714285Y-14183333D01*
X-1676190Y-14278571D01*
X-1676190Y-14802380D01*
X-723809Y-13754761D02*
X-1409523Y-15040476D01*
X-457142Y-14135714D02*
X-457142Y-15135714D01*
X-457142Y-14183333D02*
X-380952Y-14135714D01*
X-228571Y-14135714D01*
X-152380Y-14183333D01*
X-114285Y-14230952D01*
X-76190Y-14326190D01*
X-76190Y-14611904D01*
X-114285Y-14707142D01*
X-152380Y-14754761D01*
X-228571Y-14802380D01*
X-380952Y-14802380D01*
X-457142Y-14754761D01*
X609523Y-14802380D02*
X609523Y-13802380D01*
X609523Y-14754761D02*
X533333Y-14802380D01*
X380952Y-14802380D01*
X304761Y-14754761D01*
X266666Y-14707142D01*
X228571Y-14611904D01*
X228571Y-14326190D01*
X266666Y-14230952D01*
X304761Y-14183333D01*
X380952Y-14135714D01*
X533333Y-14135714D01*
X609523Y-14183333D01*
X990476Y-14135714D02*
X990476Y-14992857D01*
X952380Y-15088095D01*
X876190Y-15135714D01*
X838095Y-15135714D01*
X990476Y-13802380D02*
X952380Y-13850000D01*
X990476Y-13897619D01*
X1028571Y-13850000D01*
X990476Y-13802380D01*
X990476Y-13897619D01*
X1371428Y-14802380D02*
X1371428Y-14135714D01*
X1371428Y-14326190D02*
X1409523Y-14230952D01*
X1447619Y-14183333D01*
X1523809Y-14135714D01*
X1600000Y-14135714D01*
X1866666Y-14421428D02*
X2476190Y-14421428D01*
X2780952Y-14135714D02*
X2933333Y-14802380D01*
X3085714Y-14326190D01*
X3238095Y-14802380D01*
X3390476Y-14135714D01*
X4000000Y-14754761D02*
X3923809Y-14802380D01*
X3771428Y-14802380D01*
X3695238Y-14754761D01*
X3657142Y-14659523D01*
X3657142Y-14278571D01*
X3695238Y-14183333D01*
X3771428Y-14135714D01*
X3923809Y-14135714D01*
X4000000Y-14183333D01*
X4038095Y-14278571D01*
X4038095Y-14373809D01*
X3657142Y-14469047D01*
X4380952Y-14802380D02*
X4380952Y-14135714D01*
X4380952Y-14230952D02*
X4419047Y-14183333D01*
X4495238Y-14135714D01*
X4609523Y-14135714D01*
X4685714Y-14183333D01*
X4723809Y-14278571D01*
X4723809Y-14802380D01*
X4723809Y-14278571D02*
X4761904Y-14183333D01*
X4838095Y-14135714D01*
X4952380Y-14135714D01*
X5028571Y-14183333D01*
X5066666Y-14278571D01*
X5066666Y-14802380D01*
X5561904Y-14802380D02*
X5485714Y-14754761D01*
X5447619Y-14707142D01*
X5409523Y-14611904D01*
X5409523Y-14326190D01*
X5447619Y-14230952D01*
X5485714Y-14183333D01*
X5561904Y-14135714D01*
X5676190Y-14135714D01*
X5752380Y-14183333D01*
X5790476Y-14230952D01*
X5828571Y-14326190D01*
X5828571Y-14611904D01*
X5790476Y-14707142D01*
X5752380Y-14754761D01*
X5676190Y-14802380D01*
X5561904Y-14802380D01*
X6133333Y-14754761D02*
X6209523Y-14802380D01*
X6361904Y-14802380D01*
X6438095Y-14754761D01*
X6476190Y-14659523D01*
X6476190Y-14611904D01*
X6438095Y-14516666D01*
X6361904Y-14469047D01*
X6247619Y-14469047D01*
X6171428Y-14421428D01*
X6133333Y-14326190D01*
X6133333Y-14278571D01*
X6171428Y-14183333D01*
X6247619Y-14135714D01*
X6361904Y-14135714D01*
X6438095Y-14183333D01*
X7390476Y-13754761D02*
X6704761Y-15040476D01*
X7657142Y-14802380D02*
X7657142Y-13802380D01*
X7923809Y-14516666D01*
X8190476Y-13802380D01*
X8190476Y-14802380D01*
X8571428Y-13802380D02*
X8571428Y-14611904D01*
X8609523Y-14707142D01*
X8647619Y-14754761D01*
X8723809Y-14802380D01*
X8876190Y-14802380D01*
X8952380Y-14754761D01*
X8990476Y-14707142D01*
X9028571Y-14611904D01*
X9028571Y-13802380D01*
X9790476Y-14802380D02*
X9409523Y-14802380D01*
X9409523Y-13802380D01*
X9942857Y-13802380D02*
X10400000Y-13802380D01*
X10171428Y-14802380D02*
X10171428Y-13802380D01*
X10666666Y-14802380D02*
X10666666Y-13802380D01*
X11200000Y-13802380D02*
X11276190Y-13802380D01*
X11352380Y-13850000D01*
X11390476Y-13897619D01*
X11428571Y-13992857D01*
X11466666Y-14183333D01*
X11466666Y-14421428D01*
X11428571Y-14611904D01*
X11390476Y-14707142D01*
X11352380Y-14754761D01*
X11276190Y-14802380D01*
X11200000Y-14802380D01*
X11123809Y-14754761D01*
X11085714Y-14707142D01*
X11047619Y-14611904D01*
X11009523Y-14421428D01*
X11009523Y-14183333D01*
X11047619Y-13992857D01*
X11085714Y-13897619D01*
X11123809Y-13850000D01*
X11200000Y-13802380D01*
X11961904Y-13802380D02*
X12038095Y-13802380D01*
X12114285Y-13850000D01*
X12152380Y-13897619D01*
X12190476Y-13992857D01*
X12228571Y-14183333D01*
X12228571Y-14421428D01*
X12190476Y-14611904D01*
X12152380Y-14707142D01*
X12114285Y-14754761D01*
X12038095Y-14802380D01*
X11961904Y-14802380D01*
X11885714Y-14754761D01*
X11847619Y-14707142D01*
X11809523Y-14611904D01*
X11771428Y-14421428D01*
X11771428Y-14183333D01*
X11809523Y-13992857D01*
X11847619Y-13897619D01*
X11885714Y-13850000D01*
X11961904Y-13802380D01*
X12990476Y-14802380D02*
X12533333Y-14802380D01*
X12761904Y-14802380D02*
X12761904Y-13802380D01*
X12685714Y-13945238D01*
X12609523Y-14040476D01*
X12533333Y-14088095D01*
X-6228571Y-15547619D02*
X-6190476Y-15500000D01*
X-6114285Y-15452380D01*
X-5923809Y-15452380D01*
X-5847619Y-15500000D01*
X-5809523Y-15547619D01*
X-5771428Y-15642857D01*
X-5771428Y-15738095D01*
X-5809523Y-15880952D01*
X-6266666Y-16452380D01*
X-5771428Y-16452380D01*
X-5276190Y-15452380D02*
X-5200000Y-15452380D01*
X-5123809Y-15500000D01*
X-5085714Y-15547619D01*
X-5047619Y-15642857D01*
X-5009523Y-15833333D01*
X-5009523Y-16071428D01*
X-5047619Y-16261904D01*
X-5085714Y-16357142D01*
X-5123809Y-16404761D01*
X-5200000Y-16452380D01*
X-5276190Y-16452380D01*
X-5352380Y-16404761D01*
X-5390476Y-16357142D01*
X-5428571Y-16261904D01*
X-5466666Y-16071428D01*
X-5466666Y-15833333D01*
X-5428571Y-15642857D01*
X-5390476Y-15547619D01*
X-5352380Y-15500000D01*
X-5276190Y-15452380D01*
X-4704761Y-15547619D02*
X-4666666Y-15500000D01*
X-4590476Y-15452380D01*
X-4400000Y-15452380D01*
X-4323809Y-15500000D01*
X-4285714Y-15547619D01*
X-4247619Y-15642857D01*
X-4247619Y-15738095D01*
X-4285714Y-15880952D01*
X-4742857Y-16452380D01*
X-4247619Y-16452380D01*
X-3561904Y-15785714D02*
X-3561904Y-16452380D01*
X-3752380Y-15404761D02*
X-3942857Y-16119047D01*
X-3447619Y-16119047D01*
X-2304761Y-16833333D02*
X-2342857Y-16785714D01*
X-2419047Y-16642857D01*
X-2457142Y-16547619D01*
X-2495238Y-16404761D01*
X-2533333Y-16166666D01*
X-2533333Y-15976190D01*
X-2495238Y-15738095D01*
X-2457142Y-15595238D01*
X-2419047Y-15500000D01*
X-2342857Y-15357142D01*
X-2304761Y-15309523D01*
X-1657142Y-16404761D02*
X-1733333Y-16452380D01*
X-1885714Y-16452380D01*
X-1961904Y-16404761D01*
X-2000000Y-16357142D01*
X-2038095Y-16261904D01*
X-2038095Y-15976190D01*
X-2000000Y-15880952D01*
X-1961904Y-15833333D01*
X-1885714Y-15785714D01*
X-1733333Y-15785714D01*
X-1657142Y-15833333D01*
X-1390476Y-16833333D02*
X-1352380Y-16785714D01*
X-1276190Y-16642857D01*
X-1238095Y-16547619D01*
X-1200000Y-16404761D01*
X-1161904Y-16166666D01*
X-1161904Y-15976190D01*
X-1200000Y-15738095D01*
X-1238095Y-15595238D01*
X-1276190Y-15500000D01*
X-1352380Y-15357142D01*
X-1390476Y-15309523D01*
X-171428Y-16452380D02*
X-171428Y-15452380D01*
X133333Y-15452380D01*
X209523Y-15500000D01*
X247619Y-15547619D01*
X285714Y-15642857D01*
X285714Y-15785714D01*
X247619Y-15880952D01*
X209523Y-15928571D01*
X133333Y-15976190D01*
X-171428Y-15976190D01*
X971428Y-16452380D02*
X971428Y-15928571D01*
X933333Y-15833333D01*
X857142Y-15785714D01*
X704761Y-15785714D01*
X628571Y-15833333D01*
X971428Y-16404761D02*
X895238Y-16452380D01*
X704761Y-16452380D01*
X628571Y-16404761D01*
X590476Y-16309523D01*
X590476Y-16214285D01*
X628571Y-16119047D01*
X704761Y-16071428D01*
X895238Y-16071428D01*
X971428Y-16023809D01*
X1695238Y-15785714D02*
X1695238Y-16452380D01*
X1352380Y-15785714D02*
X1352380Y-16309523D01*
X1390476Y-16404761D01*
X1466666Y-16452380D01*
X1580952Y-16452380D01*
X1657142Y-16404761D01*
X1695238Y-16357142D01*
X2190476Y-16452380D02*
X2114285Y-16404761D01*
X2076190Y-16309523D01*
X2076190Y-15452380D01*
X3561904Y-16452380D02*
X3295238Y-15976190D01*
X3104761Y-16452380D02*
X3104761Y-15452380D01*
X3409523Y-15452380D01*
X3485714Y-15500000D01*
X3523809Y-15547619D01*
X3561904Y-15642857D01*
X3561904Y-15785714D01*
X3523809Y-15880952D01*
X3485714Y-15928571D01*
X3409523Y-15976190D01*
X3104761Y-15976190D01*
X4209523Y-16404761D02*
X4133333Y-16452380D01*
X3980952Y-16452380D01*
X3904761Y-16404761D01*
X3866666Y-16309523D01*
X3866666Y-15928571D01*
X3904761Y-15833333D01*
X3980952Y-15785714D01*
X4133333Y-15785714D01*
X4209523Y-15833333D01*
X4247619Y-15928571D01*
X4247619Y-16023809D01*
X3866666Y-16119047D01*
X4895238Y-16404761D02*
X4819047Y-16452380D01*
X4666666Y-16452380D01*
X4590476Y-16404761D01*
X4552380Y-16309523D01*
X4552380Y-15928571D01*
X4590476Y-15833333D01*
X4666666Y-15785714D01*
X4819047Y-15785714D01*
X4895238Y-15833333D01*
X4933333Y-15928571D01*
X4933333Y-16023809D01*
X4552380Y-16119047D01*
X5199999Y-15785714D02*
X5390476Y-16452380D01*
X5580952Y-15785714D01*
X6190476Y-16404761D02*
X6114285Y-16452380D01*
X5961904Y-16452380D01*
X5885714Y-16404761D01*
X5847619Y-16309523D01*
X5847619Y-15928571D01*
X5885714Y-15833333D01*
X5961904Y-15785714D01*
X6114285Y-15785714D01*
X6190476Y-15833333D01*
X6228571Y-15928571D01*
X6228571Y-16023809D01*
X5847619Y-16119047D01*
X-4323809Y-17435714D02*
X-4323809Y-18435714D01*
X-4323809Y-17483333D02*
X-4247619Y-17435714D01*
X-4095238Y-17435714D01*
X-4019047Y-17483333D01*
X-3980952Y-17530952D01*
X-3942857Y-17626190D01*
X-3942857Y-17911904D01*
X-3980952Y-18007142D01*
X-4019047Y-18054761D01*
X-4095238Y-18102380D01*
X-4247619Y-18102380D01*
X-4323809Y-18054761D01*
X-3600000Y-18102380D02*
X-3600000Y-17435714D01*
X-3600000Y-17626190D02*
X-3561904Y-17530952D01*
X-3523809Y-17483333D01*
X-3447619Y-17435714D01*
X-3371428Y-17435714D01*
X-2800000Y-18054761D02*
X-2876190Y-18102380D01*
X-3028571Y-18102380D01*
X-3104761Y-18054761D01*
X-3142857Y-17959523D01*
X-3142857Y-17578571D01*
X-3104761Y-17483333D01*
X-3028571Y-17435714D01*
X-2876190Y-17435714D01*
X-2800000Y-17483333D01*
X-2761904Y-17578571D01*
X-2761904Y-17673809D01*
X-3142857Y-17769047D01*
X-2114285Y-18054761D02*
X-2190476Y-18102380D01*
X-2342857Y-18102380D01*
X-2419047Y-18054761D01*
X-2457142Y-17959523D01*
X-2457142Y-17578571D01*
X-2419047Y-17483333D01*
X-2342857Y-17435714D01*
X-2190476Y-17435714D01*
X-2114285Y-17483333D01*
X-2076190Y-17578571D01*
X-2076190Y-17673809D01*
X-2457142Y-17769047D01*
X-1809523Y-17435714D02*
X-1619047Y-18102380D01*
X-1428571Y-17435714D01*
X-819047Y-18054761D02*
X-895238Y-18102380D01*
X-1047619Y-18102380D01*
X-1123809Y-18054761D01*
X-1161904Y-17959523D01*
X-1161904Y-17578571D01*
X-1123809Y-17483333D01*
X-1047619Y-17435714D01*
X-895238Y-17435714D01*
X-819047Y-17483333D01*
X-780952Y-17578571D01*
X-780952Y-17673809D01*
X-1161904Y-17769047D01*
X57142Y-17626190D02*
X19047Y-17578571D01*
X-57142Y-17530952D01*
X-133333Y-17530952D01*
X-209523Y-17578571D01*
X-247619Y-17626190D01*
X-285714Y-17721428D01*
X-285714Y-17816666D01*
X-247619Y-17911904D01*
X-209523Y-17959523D01*
X-133333Y-18007142D01*
X-57142Y-18007142D01*
X19047Y-17959523D01*
X57142Y-17911904D01*
X57142Y-17530952D02*
X57142Y-17911904D01*
X95238Y-17959523D01*
X133333Y-17959523D01*
X209523Y-17911904D01*
X247619Y-17816666D01*
X247619Y-17578571D01*
X171428Y-17435714D01*
X57142Y-17340476D01*
X-95238Y-17292857D01*
X-247619Y-17340476D01*
X-361904Y-17435714D01*
X-438095Y-17578571D01*
X-476190Y-17769047D01*
X-438095Y-17959523D01*
X-361904Y-18102380D01*
X-247619Y-18197619D01*
X-95238Y-18245238D01*
X57142Y-18197619D01*
X171428Y-18102380D01*
X590476Y-17435714D02*
X590476Y-18435714D01*
X590476Y-17483333D02*
X666666Y-17435714D01*
X819047Y-17435714D01*
X895238Y-17483333D01*
X933333Y-17530952D01*
X971428Y-17626190D01*
X971428Y-17911904D01*
X933333Y-18007142D01*
X895238Y-18054761D01*
X819047Y-18102380D01*
X666666Y-18102380D01*
X590476Y-18054761D01*
X1657142Y-18102380D02*
X1657142Y-17102380D01*
X1657142Y-18054761D02*
X1580952Y-18102380D01*
X1428571Y-18102380D01*
X1352380Y-18054761D01*
X1314285Y-18007142D01*
X1276190Y-17911904D01*
X1276190Y-17626190D01*
X1314285Y-17530952D01*
X1352380Y-17483333D01*
X1428571Y-17435714D01*
X1580952Y-17435714D01*
X1657142Y-17483333D01*
X2038095Y-17435714D02*
X2038095Y-18292857D01*
X1999999Y-18388095D01*
X1923809Y-18435714D01*
X1885714Y-18435714D01*
X2038095Y-17102380D02*
X1999999Y-17150000D01*
X2038095Y-17197619D01*
X2076190Y-17150000D01*
X2038095Y-17102380D01*
X2038095Y-17197619D01*
X2419047Y-18102380D02*
X2419047Y-17435714D01*
X2419047Y-17626190D02*
X2457142Y-17530952D01*
X2495238Y-17483333D01*
X2571428Y-17435714D01*
X2647619Y-17435714D01*
X2914285Y-18007142D02*
X2952380Y-18054761D01*
X2914285Y-18102380D01*
X2876190Y-18054761D01*
X2914285Y-18007142D01*
X2914285Y-18102380D01*
X3599999Y-18054761D02*
X3523809Y-18102380D01*
X3371428Y-18102380D01*
X3295238Y-18054761D01*
X3257142Y-17959523D01*
X3257142Y-17578571D01*
X3295238Y-17483333D01*
X3371428Y-17435714D01*
X3523809Y-17435714D01*
X3599999Y-17483333D01*
X3638095Y-17578571D01*
X3638095Y-17673809D01*
X3257142Y-17769047D01*
X4323809Y-17435714D02*
X4323809Y-18102380D01*
X3980952Y-17435714D02*
X3980952Y-17959523D01*
X4019047Y-18054761D01*
X4095238Y-18102380D01*
X4209523Y-18102380D01*
X4285714Y-18054761D01*
X4323809Y-18007142D01*
X13779523Y8167619D02*
X13303333Y8167619D01*
X13255714Y7691428D01*
X13303333Y7739047D01*
X13398571Y7786666D01*
X13636666Y7786666D01*
X13731904Y7739047D01*
X13779523Y7691428D01*
X13827142Y7596190D01*
X13827142Y7358095D01*
X13779523Y7262857D01*
X13731904Y7215238D01*
X13636666Y7167619D01*
X13398571Y7167619D01*
X13303333Y7215238D01*
X13255714Y7262857D01*
X14112857Y8167619D02*
X14446190Y7167619D01*
X14779523Y8167619D01*
X3988095Y18950000D02*
X3892857Y18997619D01*
X3750000Y18997619D01*
X3607142Y18950000D01*
X3511904Y18854761D01*
X3464285Y18759523D01*
X3416666Y18569047D01*
X3416666Y18426190D01*
X3464285Y18235714D01*
X3511904Y18140476D01*
X3607142Y18045238D01*
X3750000Y17997619D01*
X3845238Y17997619D01*
X3988095Y18045238D01*
X4035714Y18092857D01*
X4035714Y18426190D01*
X3845238Y18426190D01*
X4464285Y17997619D02*
X4464285Y18997619D01*
X5035714Y17997619D01*
X5035714Y18997619D01*
X5511904Y17997619D02*
X5511904Y18997619D01*
X5750000Y18997619D01*
X5892857Y18950000D01*
X5988095Y18854761D01*
X6035714Y18759523D01*
X6083333Y18569047D01*
X6083333Y18426190D01*
X6035714Y18235714D01*
X5988095Y18140476D01*
X5892857Y18045238D01*
X5750000Y17997619D01*
X5511904Y17997619D01*
X-5738095Y19047619D02*
X-5119047Y19047619D01*
X-5452380Y18666666D01*
X-5309523Y18666666D01*
X-5214285Y18619047D01*
X-5166666Y18571428D01*
X-5119047Y18476190D01*
X-5119047Y18238095D01*
X-5166666Y18142857D01*
X-5214285Y18095238D01*
X-5309523Y18047619D01*
X-5595238Y18047619D01*
X-5690476Y18095238D01*
X-5738095Y18142857D01*
X-4833333Y19047619D02*
X-4500000Y18047619D01*
X-4166666Y19047619D01*
X-3928571Y19047619D02*
X-3309523Y19047619D01*
X-3642857Y18666666D01*
X-3500000Y18666666D01*
X-3404761Y18619047D01*
X-3357142Y18571428D01*
X-3309523Y18476190D01*
X-3309523Y18238095D01*
X-3357142Y18142857D01*
X-3404761Y18095238D01*
X-3500000Y18047619D01*
X-3785714Y18047619D01*
X-3880952Y18095238D01*
X-3928571Y18142857D01*
X-14517619Y-10612380D02*
X-14850952Y-10136190D01*
X-15089047Y-10612380D02*
X-15089047Y-9612380D01*
X-14708095Y-9612380D01*
X-14612857Y-9660000D01*
X-14565238Y-9707619D01*
X-14517619Y-9802857D01*
X-14517619Y-9945714D01*
X-14565238Y-10040952D01*
X-14612857Y-10088571D01*
X-14708095Y-10136190D01*
X-15089047Y-10136190D01*
X-14136666Y-10564761D02*
X-13993809Y-10612380D01*
X-13755714Y-10612380D01*
X-13660476Y-10564761D01*
X-13612857Y-10517142D01*
X-13565238Y-10421904D01*
X-13565238Y-10326666D01*
X-13612857Y-10231428D01*
X-13660476Y-10183809D01*
X-13755714Y-10136190D01*
X-13946190Y-10088571D01*
X-14041428Y-10040952D01*
X-14089047Y-9993333D01*
X-14136666Y-9898095D01*
X-14136666Y-9802857D01*
X-14089047Y-9707619D01*
X-14041428Y-9660000D01*
X-13946190Y-9612380D01*
X-13708095Y-9612380D01*
X-13565238Y-9660000D01*
X-13279523Y-9612380D02*
X-12708095Y-9612380D01*
X-12993809Y-10612380D02*
X-12993809Y-9612380D01*
X-14684285Y-7786666D02*
X-14208095Y-7786666D01*
X-14779523Y-8072380D02*
X-14446190Y-7072380D01*
X-14112857Y-8072380D01*
X-13589047Y-7072380D02*
X-13493809Y-7072380D01*
X-13398571Y-7120000D01*
X-13350952Y-7167619D01*
X-13303333Y-7262857D01*
X-13255714Y-7453333D01*
X-13255714Y-7691428D01*
X-13303333Y-7881904D01*
X-13350952Y-7977142D01*
X-13398571Y-8024761D01*
X-13493809Y-8072380D01*
X-13589047Y-8072380D01*
X-13684285Y-8024761D01*
X-13731904Y-7977142D01*
X-13779523Y-7881904D01*
X-13827142Y-7691428D01*
X-13827142Y-7453333D01*
X-13779523Y-7262857D01*
X-13731904Y-7167619D01*
X-13684285Y-7120000D01*
X-13589047Y-7072380D01*
X-14708095Y-5532380D02*
X-14708095Y-4532380D01*
X-14470000Y-4532380D01*
X-14327142Y-4580000D01*
X-14231904Y-4675238D01*
X-14184285Y-4770476D01*
X-14136666Y-4960952D01*
X-14136666Y-5103809D01*
X-14184285Y-5294285D01*
X-14231904Y-5389523D01*
X-14327142Y-5484761D01*
X-14470000Y-5532380D01*
X-14708095Y-5532380D01*
X-13517619Y-4532380D02*
X-13422380Y-4532380D01*
X-13327142Y-4580000D01*
X-13279523Y-4627619D01*
X-13231904Y-4722857D01*
X-13184285Y-4913333D01*
X-13184285Y-5151428D01*
X-13231904Y-5341904D01*
X-13279523Y-5437142D01*
X-13327142Y-5484761D01*
X-13422380Y-5532380D01*
X-13517619Y-5532380D01*
X-13612857Y-5484761D01*
X-13660476Y-5437142D01*
X-13708095Y-5341904D01*
X-13755714Y-5151428D01*
X-13755714Y-4913333D01*
X-13708095Y-4722857D01*
X-13660476Y-4627619D01*
X-13612857Y-4580000D01*
X-13517619Y-4532380D01*
X-14708095Y-2992380D02*
X-14708095Y-1992380D01*
X-14470000Y-1992380D01*
X-14327142Y-2040000D01*
X-14231904Y-2135238D01*
X-14184285Y-2230476D01*
X-14136666Y-2420952D01*
X-14136666Y-2563809D01*
X-14184285Y-2754285D01*
X-14231904Y-2849523D01*
X-14327142Y-2944761D01*
X-14470000Y-2992380D01*
X-14708095Y-2992380D01*
X-13231904Y-1992380D02*
X-13708095Y-1992380D01*
X-13755714Y-2468571D01*
X-13708095Y-2420952D01*
X-13612857Y-2373333D01*
X-13374761Y-2373333D01*
X-13279523Y-2420952D01*
X-13231904Y-2468571D01*
X-13184285Y-2563809D01*
X-13184285Y-2801904D01*
X-13231904Y-2897142D01*
X-13279523Y-2944761D01*
X-13374761Y-2992380D01*
X-13612857Y-2992380D01*
X-13708095Y-2944761D01*
X-13755714Y-2897142D01*
X-14708095Y-452380D02*
X-14708095Y547619D01*
X-14470000Y547619D01*
X-14327142Y500000D01*
X-14231904Y404761D01*
X-14184285Y309523D01*
X-14136666Y119047D01*
X-14136666Y-23809D01*
X-14184285Y-214285D01*
X-14231904Y-309523D01*
X-14327142Y-404761D01*
X-14470000Y-452380D01*
X-14708095Y-452380D01*
X-13279523Y547619D02*
X-13470000Y547619D01*
X-13565238Y500000D01*
X-13612857Y452380D01*
X-13708095Y309523D01*
X-13755714Y119047D01*
X-13755714Y-261904D01*
X-13708095Y-357142D01*
X-13660476Y-404761D01*
X-13565238Y-452380D01*
X-13374761Y-452380D01*
X-13279523Y-404761D01*
X-13231904Y-357142D01*
X-13184285Y-261904D01*
X-13184285Y-23809D01*
X-13231904Y71428D01*
X-13279523Y119047D01*
X-13374761Y166666D01*
X-13565238Y166666D01*
X-13660476Y119047D01*
X-13708095Y71428D01*
X-13755714Y-23809D01*
X-14708095Y2087619D02*
X-14708095Y3087619D01*
X-14470000Y3087619D01*
X-14327142Y3040000D01*
X-14231904Y2944761D01*
X-14184285Y2849523D01*
X-14136666Y2659047D01*
X-14136666Y2516190D01*
X-14184285Y2325714D01*
X-14231904Y2230476D01*
X-14327142Y2135238D01*
X-14470000Y2087619D01*
X-14708095Y2087619D01*
X-13803333Y3087619D02*
X-13136666Y3087619D01*
X-13565238Y2087619D01*
X-14708095Y4627619D02*
X-14708095Y5627619D01*
X-14470000Y5627619D01*
X-14327142Y5580000D01*
X-14231904Y5484761D01*
X-14184285Y5389523D01*
X-14136666Y5199047D01*
X-14136666Y5056190D01*
X-14184285Y4865714D01*
X-14231904Y4770476D01*
X-14327142Y4675238D01*
X-14470000Y4627619D01*
X-14708095Y4627619D01*
X-13565238Y5199047D02*
X-13660476Y5246666D01*
X-13708095Y5294285D01*
X-13755714Y5389523D01*
X-13755714Y5437142D01*
X-13708095Y5532380D01*
X-13660476Y5580000D01*
X-13565238Y5627619D01*
X-13374761Y5627619D01*
X-13279523Y5580000D01*
X-13231904Y5532380D01*
X-13184285Y5437142D01*
X-13184285Y5389523D01*
X-13231904Y5294285D01*
X-13279523Y5246666D01*
X-13374761Y5199047D01*
X-13565238Y5199047D01*
X-13660476Y5151428D01*
X-13708095Y5103809D01*
X-13755714Y5008571D01*
X-13755714Y4818095D01*
X-13708095Y4722857D01*
X-13660476Y4675238D01*
X-13565238Y4627619D01*
X-13374761Y4627619D01*
X-13279523Y4675238D01*
X-13231904Y4722857D01*
X-13184285Y4818095D01*
X-13184285Y5008571D01*
X-13231904Y5103809D01*
X-13279523Y5151428D01*
X-13374761Y5199047D01*
X-15017619Y8167619D02*
X-14398571Y8167619D01*
X-14731904Y7786666D01*
X-14589047Y7786666D01*
X-14493809Y7739047D01*
X-14446190Y7691428D01*
X-14398571Y7596190D01*
X-14398571Y7358095D01*
X-14446190Y7262857D01*
X-14493809Y7215238D01*
X-14589047Y7167619D01*
X-14874761Y7167619D01*
X-14970000Y7215238D01*
X-15017619Y7262857D01*
X-13970000Y7262857D02*
X-13922380Y7215238D01*
X-13970000Y7167619D01*
X-14017619Y7215238D01*
X-13970000Y7262857D01*
X-13970000Y7167619D01*
X-13589047Y8167619D02*
X-12970000Y8167619D01*
X-13303333Y7786666D01*
X-13160476Y7786666D01*
X-13065238Y7739047D01*
X-13017619Y7691428D01*
X-12970000Y7596190D01*
X-12970000Y7358095D01*
X-13017619Y7262857D01*
X-13065238Y7215238D01*
X-13160476Y7167619D01*
X-13446190Y7167619D01*
X-13541428Y7215238D01*
X-13589047Y7262857D01*
X13208095Y-9612380D02*
X13779523Y-9612380D01*
X13493809Y-10612380D02*
X13493809Y-9612380D01*
X14017619Y-9612380D02*
X14684285Y-10612380D01*
X14684285Y-9612380D02*
X14017619Y-10612380D01*
X13803333Y-8072380D02*
X13470000Y-7596190D01*
X13231904Y-8072380D02*
X13231904Y-7072380D01*
X13612857Y-7072380D01*
X13708095Y-7120000D01*
X13755714Y-7167619D01*
X13803333Y-7262857D01*
X13803333Y-7405714D01*
X13755714Y-7500952D01*
X13708095Y-7548571D01*
X13612857Y-7596190D01*
X13231904Y-7596190D01*
X14136666Y-7072380D02*
X14803333Y-8072380D01*
X14803333Y-7072380D02*
X14136666Y-8072380D01*
X13231904Y-452380D02*
X13231904Y547619D01*
X13470000Y547619D01*
X13612857Y500000D01*
X13708095Y404761D01*
X13755714Y309523D01*
X13803333Y119047D01*
X13803333Y-23809D01*
X13755714Y-214285D01*
X13708095Y-309523D01*
X13612857Y-404761D01*
X13470000Y-452380D01*
X13231904Y-452380D01*
X14136666Y547619D02*
X14755714Y547619D01*
X14422380Y166666D01*
X14565238Y166666D01*
X14660476Y119047D01*
X14708095Y71428D01*
X14755714Y-23809D01*
X14755714Y-261904D01*
X14708095Y-357142D01*
X14660476Y-404761D01*
X14565238Y-452380D01*
X14279523Y-452380D01*
X14184285Y-404761D01*
X14136666Y-357142D01*
X13231904Y-5532380D02*
X13231904Y-4532380D01*
X13470000Y-4532380D01*
X13612857Y-4580000D01*
X13708095Y-4675238D01*
X13755714Y-4770476D01*
X13803333Y-4960952D01*
X13803333Y-5103809D01*
X13755714Y-5294285D01*
X13708095Y-5389523D01*
X13612857Y-5484761D01*
X13470000Y-5532380D01*
X13231904Y-5532380D01*
X14755714Y-5532380D02*
X14184285Y-5532380D01*
X14470000Y-5532380D02*
X14470000Y-4532380D01*
X14374761Y-4675238D01*
X14279523Y-4770476D01*
X14184285Y-4818095D01*
X13231904Y-2992380D02*
X13231904Y-1992380D01*
X13470000Y-1992380D01*
X13612857Y-2040000D01*
X13708095Y-2135238D01*
X13755714Y-2230476D01*
X13803333Y-2420952D01*
X13803333Y-2563809D01*
X13755714Y-2754285D01*
X13708095Y-2849523D01*
X13612857Y-2944761D01*
X13470000Y-2992380D01*
X13231904Y-2992380D01*
X14184285Y-2087619D02*
X14231904Y-2040000D01*
X14327142Y-1992380D01*
X14565238Y-1992380D01*
X14660476Y-2040000D01*
X14708095Y-2087619D01*
X14755714Y-2182857D01*
X14755714Y-2278095D01*
X14708095Y-2420952D01*
X14136666Y-2992380D01*
X14755714Y-2992380D01*
X13231904Y2087619D02*
X13231904Y3087619D01*
X13470000Y3087619D01*
X13612857Y3040000D01*
X13708095Y2944761D01*
X13755714Y2849523D01*
X13803333Y2659047D01*
X13803333Y2516190D01*
X13755714Y2325714D01*
X13708095Y2230476D01*
X13612857Y2135238D01*
X13470000Y2087619D01*
X13231904Y2087619D01*
X14660476Y2754285D02*
X14660476Y2087619D01*
X14422380Y3135238D02*
X14184285Y2420952D01*
X14803333Y2420952D01*
X13208095Y5580000D02*
X13112857Y5627619D01*
X12970000Y5627619D01*
X12827142Y5580000D01*
X12731904Y5484761D01*
X12684285Y5389523D01*
X12636666Y5199047D01*
X12636666Y5056190D01*
X12684285Y4865714D01*
X12731904Y4770476D01*
X12827142Y4675238D01*
X12970000Y4627619D01*
X13065238Y4627619D01*
X13208095Y4675238D01*
X13255714Y4722857D01*
X13255714Y5056190D01*
X13065238Y5056190D01*
X13684285Y4627619D02*
X13684285Y5627619D01*
X14255714Y4627619D01*
X14255714Y5627619D01*
X14731904Y4627619D02*
X14731904Y5627619D01*
X14970000Y5627619D01*
X15112857Y5580000D01*
X15208095Y5484761D01*
X15255714Y5389523D01*
X15303333Y5199047D01*
X15303333Y5056190D01*
X15255714Y4865714D01*
X15208095Y4770476D01*
X15112857Y4675238D01*
X14970000Y4627619D01*
X14731904Y4627619D01*
D11*
%TO.C,J1*%
X2610000Y17070000D02*
X2610000Y19730000D01*
X10000Y17070000D02*
X2610000Y17070000D01*
X10000Y19730000D02*
X2610000Y19730000D01*
X10000Y17070000D02*
X10000Y19730000D01*
X-1260000Y17070000D02*
X-2590000Y17070000D01*
X-2590000Y17070000D02*
X-2590000Y18400000D01*
%TO.C,J4*%
X4000000Y9160000D02*
X4000000Y-11741000D01*
X9300000Y9160000D02*
X9300000Y-11741000D01*
X9760000Y9160000D02*
X9760000Y-11741000D01*
X3440000Y9160000D02*
X3440000Y-11741000D01*
X9760000Y9160000D02*
X3440000Y9160000D01*
X9760000Y-11741000D02*
X3440000Y-11741000D01*
X3940000Y9400000D02*
X3200000Y9400000D01*
X3200000Y9400000D02*
X3200000Y8900000D01*
%TO.C,J3*%
X-9200000Y9160000D02*
X-9200000Y-11741000D01*
X-3900000Y9160000D02*
X-3900000Y-11741000D01*
X-3440000Y9160000D02*
X-3440000Y-11741000D01*
X-9760000Y9160000D02*
X-9760000Y-11741000D01*
X-3440000Y9160000D02*
X-9760000Y9160000D01*
X-3440000Y-11741000D02*
X-9760000Y-11741000D01*
X-9260000Y9400000D02*
X-10000000Y9400000D01*
X-10000000Y9400000D02*
X-10000000Y8900000D01*
%TO.C,J1*%
D10*
X-333333Y16297619D02*
X-333333Y15583333D01*
X-380952Y15440476D01*
X-476190Y15345238D01*
X-619047Y15297619D01*
X-714285Y15297619D01*
X666666Y15297619D02*
X95238Y15297619D01*
X380952Y15297619D02*
X380952Y16297619D01*
X285714Y16154761D01*
X190476Y16059523D01*
X95238Y16011904D01*
%TO.C,J4*%
X6166666Y-11952380D02*
X6166666Y-12666666D01*
X6119047Y-12809523D01*
X6023809Y-12904761D01*
X5880952Y-12952380D01*
X5785714Y-12952380D01*
X7071428Y-12285714D02*
X7071428Y-12952380D01*
X6833333Y-11904761D02*
X6595238Y-12619047D01*
X7214285Y-12619047D01*
%TO.C,J3*%
X-6833333Y-11952380D02*
X-6833333Y-12666666D01*
X-6880952Y-12809523D01*
X-6976190Y-12904761D01*
X-7119047Y-12952380D01*
X-7214285Y-12952380D01*
X-6452380Y-11952380D02*
X-5833333Y-11952380D01*
X-6166666Y-12333333D01*
X-6023809Y-12333333D01*
X-5928571Y-12380952D01*
X-5880952Y-12428571D01*
X-5833333Y-12523809D01*
X-5833333Y-12761904D01*
X-5880952Y-12857142D01*
X-5928571Y-12904761D01*
X-6023809Y-12952380D01*
X-6309523Y-12952380D01*
X-6404761Y-12904761D01*
X-6452380Y-12857142D01*
%TD*%
M02*
